<?xml version="1.0" standalone="no"?>
<!DOCTYPE svg PUBLIC "-//W3C//DTD SVG 1.1//EN" "http://www.w3.org/Graphics/SVG/1.1/DTD/svg11.dtd" >
<svg xmlns="http://www.w3.org/2000/svg">
<metadata></metadata>
<defs>
<font id="quattrocento_sansitalic" horiz-adv-x="1177" >
<font-face units-per-em="2048" ascent="1638" descent="-410" />
<missing-glyph horiz-adv-x="501" />
<glyph unicode="&#xfb01;" horiz-adv-x="1071" d="M-25 -532l295 1378h-157l16 76l162 18q41 199 92 312.5t109 172.5q61 66 118.5 83.5t110.5 17.5q102 0 178 -34t123 -69l-96 -123q-80 57 -137.5 88t-116.5 31q-45 0 -76 -19.5t-53.5 -62.5t-42 -110.5t-39.5 -161.5l-27 -123h221l-20 -96h-221l-295 -1378h-144zM653 0 l201 942h143l-200 -942h-144z" />
<glyph unicode="&#xfb02;" horiz-adv-x="1097" d="M-23 -532l293 1378h-157l16 76l162 18q23 111 51.5 190.5t58 137t60.5 95.5t57 62q63 59 120.5 80t104.5 21q20 0 53 -1t74 -6.5t87.5 -16.5t93.5 -29l79 43l-321 -1516h-143l288 1362q-51 29 -123.5 43t-148.5 14q-33 0 -63.5 -18.5t-58.5 -59.5t-53.5 -108.5 t-45.5 -167.5l-27 -123h221l-20 -96h-221l-293 -1378h-144z" />
<glyph horiz-adv-x="0" />
<glyph unicode="&#xd;" horiz-adv-x="501" />
<glyph horiz-adv-x="0" />
<glyph horiz-adv-x="0" />
<glyph unicode=" "  horiz-adv-x="501" />
<glyph unicode="&#x09;" horiz-adv-x="501" />
<glyph unicode="&#xa0;" horiz-adv-x="501" />
<glyph unicode="!" horiz-adv-x="530" d="M63 55q0 43 38 79t83 36q33 0 54.5 -24.5t21.5 -59.5q0 -23 -11 -42t-27.5 -33.5t-37 -24t-41.5 -9.5q-35 0 -57.5 22.5t-22.5 55.5zM162 307l182 1090h199l-285 -1090h-96z" />
<glyph unicode="&#x22;" horiz-adv-x="681" d="M264 1057l51 442h166l-143 -442h-74zM545 1057l51 442h166l-144 -442h-73z" />
<glyph unicode="#" horiz-adv-x="1261" d="M57 455l43 108h242l102 244h-249l43 106h251l183 426h131l-182 -426h258l182 426h131l-182 -426h250l-43 -106h-252l-103 -244h260l-43 -108h-264l-192 -455h-131l192 455h-258l-193 -455h-131l193 455h-238zM473 563h258l103 244h-259z" />
<glyph unicode="$" horiz-adv-x="1087" d="M-10 88l76 150q31 -25 62.5 -47.5t70.5 -40t87 -27.5t111 -12l113 530q-68 25 -123 53.5t-94 65.5t-60.5 84t-21.5 108q0 98 35 172t96 124t143 78t177 34l38 176h123l-39 -176q90 -6 166 -26.5t129 -49.5l-75 -158q-41 45 -110 68t-138 29l-94 -449q57 -23 113 -49.5 t99.5 -65t70 -92t26.5 -129.5q0 -113 -40 -195.5t-106.5 -138t-152.5 -86t-180 -38.5l-37 -177h-123l37 174q-119 4 -215.5 36t-163.5 75zM367 991q0 -63 44 -100t136 -74l86 408q-123 -10 -194.5 -69t-71.5 -165zM520 115q154 18 218.5 91t64.5 169q0 43 -14.5 75.5 t-39 59.5t-57.5 48.5t-69 37.5z" />
<glyph unicode="%" horiz-adv-x="1683" d="M160 883q0 94 29.5 180t83 152.5t125 106.5t157.5 40q57 0 101 -22.5t74 -61.5t44 -92t14 -113q0 -86 -29.5 -170t-82.5 -151.5t-128 -108.5t-163 -41q-57 0 -100 21.5t-71 60.5t-41 89t-13 110zM170 -49l1260 1464h133l-1260 -1464h-133zM274 885q1 -191 134 -191 q70 0 120 35t82.5 89t49 122t16.5 133q0 88 -35 142.5t-109 54.5q-76 0 -126 -39t-78.5 -96.5t-41 -125t-12.5 -124.5zM946 266q0 94 30 180t83 153t124.5 106.5t157.5 39.5q57 0 101.5 -22.5t74 -61t44 -92t14.5 -112.5q0 -86 -29.5 -170t-83 -151.5t-128 -108.5 t-163.5 -41q-57 0 -100 21.5t-70.5 60t-41 89t-13.5 109.5zM1061 268q0 -190 133 -190q70 0 120 34.5t83 89t49 122t16 133.5q0 88 -34.5 142t-108.5 54q-76 0 -126 -39t-79 -96t-41 -124.5t-12 -125.5z" />
<glyph unicode="&#x26;" horiz-adv-x="1427" d="M76 299q0 61 24.5 129t71.5 129t115.5 114.5t154.5 88.5q-70 109 -69 229q0 90 31.5 160t84 117t120 71.5t141.5 24.5q70 0 138 -23.5t128 -66.5l-74 -146q-35 45 -95.5 74t-121.5 29q-41 0 -79 -13.5t-66.5 -42t-46 -72.5t-17.5 -106q0 -100 62 -180l366 -489 q74 109 74 229q0 39 -8.5 79t-22.5 77l-104 -9l20 97l531 75l-27 -126l-281 -25q12 -37 18.5 -79t6.5 -81q0 -90 -34 -177t-95 -161l170 -225h-172l-98 127q-88 -70 -201 -111t-246 -41q-102 0 -177 27t-124 71t-73.5 102t-24.5 124zM238 332q0 -106 77.5 -163.5 t206.5 -57.5q98 0 180 29.5t148 82.5l-338 441q-59 -18 -109.5 -51t-87 -77t-57 -96.5t-20.5 -107.5z" />
<glyph unicode="'" horiz-adv-x="401" d="M264 1057l51 442h166l-143 -442h-74z" />
<glyph unicode="(" horiz-adv-x="636" d="M102 467q0 162 45.5 314.5t128 292.5t199.5 267t260 238l74 -27q-104 -94 -201.5 -196.5t-171.5 -235.5t-119 -309t-45 -418q0 -59 7.5 -135t26 -157t49 -161.5t75.5 -152.5l-80 -27q-123 135 -185.5 322.5t-62.5 384.5z" />
<glyph unicode=")" horiz-adv-x="634" d="M-123 -213q133 125 233.5 252t167 267t100.5 300t34 350q0 166 -39 320t-123 276l84 27q59 -68 105 -149.5t77 -174t47.5 -189.5t16.5 -196q0 -160 -45.5 -313.5t-128 -293.5t-199.5 -267t-260 -236z" />
<glyph unicode="*" horiz-adv-x="897" d="M211 991l274 109l-227 110l92 119l185 -166l28 275h135l-90 -275l256 166l43 -119l-276 -110l229 -109l-90 -117l-188 162l-27 -270h-133l86 270l-256 -162z" />
<glyph unicode="+" horiz-adv-x="1009" d="M74 436l22 107h350l70 331h107l-70 -331h352l-22 -107h-353l-75 -352h-107l76 352h-350z" />
<glyph unicode="," horiz-adv-x="491" d="M-12 -160l112 150h-51l39 184h162l-47 -215l-183 -158z" />
<glyph unicode="-" horiz-adv-x="995" d="M125 436l22 107h693l-23 -107h-692z" />
<glyph unicode="." horiz-adv-x="475" d="M45 55q0 43 37 79t82 36q35 0 56.5 -24.5t21.5 -59.5q0 -23 -11.5 -42t-28 -33.5t-38 -24t-41.5 -9.5q-35 0 -56.5 22.5t-21.5 55.5z" />
<glyph unicode="/" horiz-adv-x="878" d="M-63 -117l899 1555h153l-899 -1555h-153z" />
<glyph unicode="0" horiz-adv-x="1341" d="M125 485q0 170 53 328t148.5 279.5t227.5 195.5t288 74q106 0 185 -42t131 -112.5t79 -166t27 -201.5q0 -158 -53.5 -312.5t-149.5 -277.5t-230.5 -199t-295.5 -76q-104 0 -182.5 40t-128.5 110t-74.5 163t-24.5 197zM295 487q0 -184 69.5 -280t202.5 -96t232.5 65.5 t166 170t99.5 235.5t33 262q0 86 -17.5 155.5t-53.5 120.5t-91 79t-129 28q-141 0 -239.5 -68.5t-159 -176.5t-87 -239t-26.5 -256z" />
<glyph unicode="1" horiz-adv-x="643" d="M166 1126l442 226l-286 -1352h-154l229 1077l-217 -94z" />
<glyph unicode="2" horiz-adv-x="1038" d="M-23 0l31 143q84 86 179.5 167t188.5 159t179 153.5t150.5 150.5t103.5 148.5t39 149.5q0 63 -44 109.5t-153 46.5q-45 0 -97 -7.5t-103.5 -21.5t-98.5 -32.5t-80 -39.5l-8 136q88 43 204 71.5t216 28.5q158 0 247 -76t89 -199q0 -82 -38 -160.5t-101.5 -156.5 t-147.5 -155.5t-177 -155.5t-189.5 -157t-184.5 -159h656l-31 -143h-830z" />
<glyph unicode="3" horiz-adv-x="1095" d="M-23 102l70 138q59 -59 140 -94t186 -35q199 0 305 96t106 258q0 92 -69.5 146.5t-229.5 54.5h-55l27 116h63q74 0 134.5 21.5t103.5 60.5t66.5 92.5t23.5 118.5q0 68 -42 110t-142 42q-47 0 -96.5 -8.5t-95.5 -21.5t-87 -31.5t-72 -39.5l-8 136q39 20 87 38.5t98.5 33 t99.5 21.5t90 7q158 0 248 -71.5t90 -207.5q0 -61 -21.5 -114.5t-58.5 -96.5t-84 -77.5t-98 -59.5q92 -35 144 -101.5t52 -168.5q0 -94 -39 -182t-115.5 -157t-189 -110t-258.5 -41q-119 0 -213 34t-160 93z" />
<glyph unicode="4" horiz-adv-x="1040" d="M37 430l31 143l737 779h164l-166 -779h141l-31 -143h-141l-92 -430h-154l92 430h-581zM242 573h407l117 555z" />
<glyph unicode="5" horiz-adv-x="1110" d="M2 102l74 144q63 -59 139 -97t191 -38q186 0 294.5 96t108.5 266q0 88 -61.5 142.5t-212.5 54.5q-72 0 -151 -12.5t-151 -39.5l-53 31l228 713h694l-31 -143h-565l-146 -437q66 14 137.5 23.5t131.5 9.5q160 0 257 -81t97 -230q0 -98 -40 -193.5t-117.5 -169t-190.5 -120 t-260 -46.5q-119 0 -213 34t-160 93z" />
<glyph unicode="6" horiz-adv-x="1144" d="M121 399q0 72 12 172.5t43 207t82 211t129 186t184.5 133t247.5 51.5q33 0 75 -4t85 -15.5t81 -31t62 -47.5l-63 -136q-57 57 -131 79t-135 22q-111 0 -197 -52.5t-146.5 -133t-95.5 -179t-43 -190.5q72 88 173.5 118.5t199.5 30.5q100 0 164.5 -31.5t102.5 -79.5 t52.5 -105.5t14.5 -108.5q0 -84 -33 -176.5t-99.5 -169t-168 -126t-238.5 -49.5q-96 0 -163.5 31t-110.5 86t-63.5 133t-20.5 174zM276 328q0 -104 58.5 -166t171.5 -62q76 0 140.5 28t111.5 79t72.5 120.5t25.5 155.5q0 43 -11 81t-36 68t-64.5 47t-97.5 17 q-94 0 -163.5 -30.5t-115.5 -82t-69 -118t-23 -137.5z" />
<glyph unicode="7" horiz-adv-x="937" d="M41 0q4 18 7 39.5t7 40.5q18 86 64.5 184t111 200.5t144.5 206t165 201t171 186.5t166 161h-660l31 143h829l-30 -143q-125 -102 -258.5 -249t-248 -306.5t-197.5 -313t-107 -268.5l-17 -82h-178z" />
<glyph unicode="8" horiz-adv-x="1146" d="M72 299q0 162 91 279.5t245 160.5l2 9q-55 23 -92 80t-37 143q0 84 32.5 155.5t93 124t145.5 82t191 29.5q156 0 241 -71.5t85 -190.5q0 -63 -20.5 -118.5t-55.5 -100.5t-80 -79t-94 -52l-2 -9q92 -23 137 -95.5t45 -176.5q0 -96 -33.5 -185t-103 -158t-173 -110 t-243.5 -41q-102 0 -173.5 27t-115.5 71t-64.5 102t-20.5 124zM238 307q0 -98 59 -152.5t176 -54.5q168 0 260 92t92 248q0 45 -12 87t-40 74t-72 51.5t-105 19.5q-94 0 -161.5 -34t-111.5 -87t-64.5 -117.5t-20.5 -126.5zM444 973q0 -78 44 -128t133 -50q63 0 114 22.5 t87 60t55.5 89t19.5 108.5q0 66 -41 112t-141 46q-76 0 -127 -21.5t-83 -58.5t-46.5 -84t-14.5 -96z" />
<glyph unicode="9" horiz-adv-x="1146" d="M70 74l63 135q57 -57 131 -78.5t135 -21.5q106 0 186.5 44t137.5 114.5t93 159.5t54 177q4 16 6.5 29.5t4.5 30.5l-7 2q-33 -45 -75.5 -74t-92 -46.5t-99.5 -24.5t-99 -7q-100 0 -164.5 32t-102.5 80t-52.5 105t-14.5 109q0 84 33 176t99.5 169t166.5 126t238 49 q193 0 276.5 -116t83.5 -308q0 -72 -12 -172t-43 -206.5t-82 -211t-129 -186.5t-184.5 -133.5t-247.5 -51.5q-33 0 -75 4.5t-85 15.5t-81 30.5t-62 48.5zM336 836q0 -84 46 -140.5t163 -56.5q94 0 162.5 30.5t114.5 82t68.5 118t22.5 138.5q0 104 -57 165.5t-170 61.5 q-78 0 -142.5 -34t-110.5 -89t-71.5 -128t-25.5 -148z" />
<glyph unicode=":" horiz-adv-x="499" d="M47 55q0 43 36 79t83 36q35 0 56.5 -24.5t21.5 -59.5q0 -23 -11.5 -42t-28 -33.5t-38 -24t-41.5 -9.5q-35 0 -56.5 22.5t-21.5 55.5zM211 819q0 43 36 78t81 35q35 0 57.5 -23.5t22.5 -58.5q0 -45 -39 -78t-82 -33q-35 0 -55.5 22.5t-20.5 57.5z" />
<glyph unicode=";" horiz-adv-x="518" d="M-2 -160l113 150h-52l39 184h162l-47 -215l-182 -158zM223 819q0 43 36 78t81 35q35 0 57.5 -23.5t22.5 -58.5q0 -45 -39 -78t-82 -33q-35 0 -55.5 22.5t-20.5 57.5z" />
<glyph unicode="&#x3c;" horiz-adv-x="841" d="M68 487l2 11l667 397l11 -129l-461 -268l-2 -11l348 -272l-66 -131z" />
<glyph unicode="=" horiz-adv-x="1005" d="M96 281l23 106h692l-23 -106h-692zM162 592l22 106h693l-23 -106h-692z" />
<glyph unicode="&#x3e;" horiz-adv-x="837" d="M61 215l463 272l2 11l-346 268l66 129l497 -397l-2 -11l-671 -403z" />
<glyph unicode="?" horiz-adv-x="854" d="M178 57q0 47 36 80t81 33q35 0 57.5 -23.5t22.5 -58.5q0 -23 -11.5 -42t-29 -34.5t-39 -25t-41.5 -9.5q-35 0 -55.5 23.5t-20.5 56.5zM242 1305q66 43 153.5 71.5t165.5 28.5q141 0 218 -74t77 -192q0 -74 -28.5 -136.5t-73.5 -120t-99.5 -115.5t-106.5 -126t-96 -148.5 t-67 -183.5h-131q25 113 66.5 197t92 150.5t102.5 120.5t94 105.5t69 106.5t27 125q0 66 -42 112t-133 46q-33 0 -70.5 -8.5t-75.5 -21.5t-73 -32.5t-61 -40.5z" />
<glyph unicode="@" horiz-adv-x="1486" d="M63 262q0 80 27 175t79 191.5t129 185.5t176 157.5t221 109.5t263 41q123 0 210 -35.5t143.5 -94t82 -133.5t25.5 -154q0 -104 -42 -204t-114.5 -177.5t-169 -124.5t-202.5 -47q-74 0 -99.5 23.5t-25.5 62.5q0 16 2 31.5t6 31.5q-49 -70 -110.5 -110.5t-114.5 -40.5 q-51 0 -90 46t-39 136q0 102 47 188t118.5 147.5t156.5 95.5t163 34q49 0 104.5 -16.5t82.5 -51.5q-57 -137 -88 -212t-45.5 -109.5t-17.5 -41.5l-3 -6q-12 -29 -18.5 -48t-6.5 -38q0 -39 50 -38q63 0 122.5 41.5t105.5 107.5t73.5 146.5t27.5 158.5q0 63 -19.5 123.5 t-62.5 108t-110.5 76t-163.5 28.5q-111 0 -210 -32.5t-181 -90t-147.5 -133.5t-111.5 -161t-69.5 -174t-23.5 -173q0 -96 31.5 -166.5t86 -116t128 -67t157.5 -21.5t159.5 17.5t138 43t110 54.5t73.5 49l-20 -102q-25 -18 -75 -46t-116.5 -53.5t-146.5 -43t-164 -17.5 q-106 0 -196.5 33t-156 94.5t-102.5 148.5t-37 193zM551 317q0 -80 45 -79q27 0 61.5 21.5t68.5 55t63.5 74.5t46.5 80l102 248q-10 12 -49 12q-78 0 -140.5 -46t-106.5 -110.5t-67.5 -135t-23.5 -120.5z" />
<glyph unicode="A" horiz-adv-x="1316" d="M-102 0l827 1352h186l308 -1352h-175l-102 455h-604l-277 -455h-163zM424 598h485l-129 582z" />
<glyph unicode="B" horiz-adv-x="1148" d="M86 0l287 1352q70 4 156.5 7t160.5 3q158 0 249 -71.5t91 -207.5q0 -106 -51 -192t-156 -143q94 -35 146.5 -106t52.5 -175q0 -94 -40 -183t-117 -158t-189.5 -110t-257.5 -41q-100 0 -183 7.5t-149 17.5zM264 117q76 -6 176 -6q199 0 305.5 96t106.5 258 q0 92 -68.5 146.5t-228.5 54.5q-45 0 -90 -1t-86 -3zM406 784q29 -2 60.5 -2h63.5q76 0 136.5 21.5t103.5 60.5t66.5 92.5t23.5 118.5q0 68 -42 110t-144 42q-45 0 -90 -1t-86 -3z" />
<glyph unicode="C" horiz-adv-x="1316" d="M123 508q0 166 57.5 320.5t167 272.5t266 189.5t355.5 71.5q111 0 216 -23.5t177 -64.5l-76 -148q-55 43 -145 72t-213 29q-188 0 -311 -63.5t-195 -166t-100.5 -229.5t-28.5 -252q0 -199 98 -302t295 -103q129 0 245 36.5t193 90.5l13 -138q-92 -49 -216 -87t-270 -38 q-139 0 -238.5 42t-164 115t-95 170t-30.5 206z" />
<glyph unicode="D" horiz-adv-x="1449" d="M86 0l287 1352q100 4 219 7t229 3q145 0 257 -41t179 -113q59 -66 87 -168t28 -211q0 -162 -53 -315.5t-157.5 -273t-258 -192.5t-354.5 -73q-145 0 -258 7.5t-205 17.5zM266 123q125 -12 305 -12q160 0 279 53t197.5 149.5t117.5 229.5t39 293q0 88 -21.5 159.5 t-69.5 122.5t-124 80t-184 29q-82 0 -162 -1t-145 -5z" />
<glyph unicode="E" horiz-adv-x="1069" d="M86 0l287 1352h741l-31 -144h-587l-88 -420h450l-31 -143h-450l-107 -502h629l-31 -143h-782z" />
<glyph unicode="F" horiz-adv-x="991" d="M86 0l287 1352h731l-31 -144h-577l-88 -420h428l-31 -143h-428l-137 -645h-154z" />
<glyph unicode="G" horiz-adv-x="1380" d="M123 508q0 166 57.5 320.5t167 272.5t266 189.5t355.5 71.5q119 0 226.5 -23.5t186.5 -64.5l-75 -148q-55 43 -152.5 72t-226.5 29q-188 0 -311 -63.5t-195 -166t-100.5 -229.5t-28.5 -252q0 -199 98 -302t295 -103q90 0 173 18t155 47l80 381h153l-94 -444 q-104 -61 -230 -99.5t-272 -38.5q-139 0 -238.5 42t-164 115t-95 170t-30.5 206z" />
<glyph unicode="H" horiz-adv-x="1443" d="M86 0l287 1352h153l-125 -584h729l125 584h154l-287 -1352h-153l131 625h-729l-131 -625h-154z" />
<glyph unicode="I" horiz-adv-x="561" d="M86 0l287 1352h153l-286 -1352h-154z" />
<glyph unicode="J" horiz-adv-x="559" d="M-190 -207q80 0 135 39t91 99.5t57.5 134t35.5 143.5l244 1143h153l-243 -1145q-23 -109 -65 -204t-101.5 -167t-135 -113.5t-167.5 -41.5z" />
<glyph unicode="K" horiz-adv-x="1220" d="M86 0l287 1352h153l-135 -639q66 39 120 77.5t126 96.5q123 98 251 220t238 245h177q-127 -143 -300.5 -303t-375.5 -326l473 -723h-191l-415 627l-142 -92l-112 -535h-154z" />
<glyph unicode="L" horiz-adv-x="985" d="M86 0l287 1352h153l-256 -1209h604l-30 -143h-758z" />
<glyph unicode="M" horiz-adv-x="1728" d="M86 0l287 1352h207l213 -1159l704 1159h197l-287 -1352h-154l217 1022l-630 -1022h-185l-198 1024l-217 -1024h-154z" />
<glyph unicode="N" horiz-adv-x="1443" d="M86 0l287 1352h186l461 -1108l235 1108h154l-287 -1352h-186l-463 1106l-233 -1106h-154z" />
<glyph unicode="O" horiz-adv-x="1560" d="M123 510q0 168 59.5 321.5t169 271.5t262 188.5t338.5 70.5q135 0 234.5 -43t166 -118t99.5 -174t33 -212q0 -154 -57.5 -303.5t-167 -269t-265 -193.5t-352.5 -74q-135 0 -233.5 42t-162 115t-94 170t-30.5 208zM283 504q0 -184 105.5 -288.5t303.5 -104.5 q160 0 280 63.5t198.5 164.5t117.5 230t39 260q0 88 -25.5 161t-78 125t-133 82t-191.5 30q-164 0 -280.5 -63.5t-191.5 -166t-109.5 -232.5t-34.5 -261z" />
<glyph unicode="P" horiz-adv-x="1089" d="M86 0l287 1352h8q68 4 147.5 7t151.5 3q193 0 302.5 -89t109.5 -255q0 -98 -37 -190.5t-109 -163t-178 -113.5t-246 -43q-98 0 -174 6l-108 -514h-154zM377 649q74 -6 168 -6q188 0 283.5 101.5t95.5 269.5q0 96 -59.5 154.5t-200.5 58.5q-43 0 -85 -1t-81 -3z" />
<glyph unicode="Q" horiz-adv-x="1564" d="M125 510q0 168 59.5 321.5t169 271.5t262 188.5t338.5 70.5q135 0 234.5 -43t166 -118t99.5 -174t33 -212q0 -150 -55.5 -296t-158 -264t-252 -193.5t-335.5 -84.5q70 -8 133.5 -33.5t128 -52t131 -48t144.5 -21.5q80 0 182 39l-68 -131q-41 -20 -82 -26.5t-75 -6.5 q-86 0 -162 28.5t-145.5 62.5t-136 62.5t-134.5 28.5q-49 0 -122.5 -18.5t-147.5 -65.5l-8 96q66 41 133 61.5t131 24.5q-121 8 -208 54.5t-143.5 118t-84 164t-27.5 196.5zM283 504q0 -184 105.5 -288.5t303.5 -104.5q160 0 280 63.5t198.5 164.5t117.5 230t39 260 q0 88 -25.5 161t-78 125t-133 82t-191.5 30q-164 0 -280.5 -63.5t-191.5 -166t-109.5 -232.5t-34.5 -261z" />
<glyph unicode="R" horiz-adv-x="1208" d="M86 0l287 1352h8q68 4 147.5 7t151.5 3q195 0 307.5 -82t112.5 -236q0 -74 -24.5 -145.5t-74 -130.5t-123 -104.5t-169.5 -67.5l391 -596h-191l-383 578q-90 0 -164 6l-122 -584h-154zM391 717q37 -4 79 -4h89q184 0 277.5 90t93.5 237q0 82 -60.5 134.5t-205.5 52.5 q-43 0 -85 -1t-81 -3z" />
<glyph unicode="S" horiz-adv-x="1138" d="M6 88l76 150q33 -27 66.5 -50.5t75.5 -40t95.5 -26.5t124.5 -10q109 0 183.5 20.5t122 56t69 83.5t21.5 102q0 57 -27 98t-70 71.5t-96 52t-104 40.5q-72 25 -130.5 54.5t-99.5 66.5t-63.5 85t-22.5 111q0 106 41 184t112 128.5t165 74t200 23.5q111 0 209.5 -22.5 t161.5 -55.5l-76 -158q-27 29 -66.5 48.5t-84.5 31t-92 16.5t-88 5q-150 0 -238 -58.5t-88 -177.5q0 -41 18.5 -69.5t54.5 -52t91 -45t129 -48.5q61 -23 121.5 -49.5t106.5 -66t75 -94t29 -132.5q0 -123 -50.5 -210t-131.5 -142t-185 -81t-213 -26q-133 0 -240.5 33 t-181.5 80z" />
<glyph unicode="T" horiz-adv-x="1085" d="M172 1208l31 144h1018l-31 -144h-432l-256 -1208h-154l256 1208h-432z" />
<glyph unicode="U" horiz-adv-x="1411" d="M152 317q0 61 16 138l190 897h154l-176 -828q-18 -84 -19 -147q0 -141 78 -203.5t219 -62.5q172 0 291 96t166 317l176 828h144l-191 -897q-23 -100 -72 -187.5t-125.5 -152t-181 -101.5t-235.5 -37q-119 0 -201 26t-134 71t-75.5 107.5t-23.5 135.5z" />
<glyph unicode="V" horiz-adv-x="1320" d="M150 1352h174l264 -1180l719 1180h163l-823 -1352h-194z" />
<glyph unicode="W" horiz-adv-x="2215" d="M162 1352h174l209 -1157l641 1157h174l176 -1153l655 1153h164l-768 -1352h-194l-172 1118l-619 -1118h-194z" />
<glyph unicode="X" horiz-adv-x="1323" d="M-86 0l684 698l-367 654h183l307 -547l536 547h177l-650 -662l390 -690h-183l-327 584l-574 -584h-176z" />
<glyph unicode="Y" horiz-adv-x="1157" d="M139 1352h183l290 -650l551 650h178l-692 -797l-117 -555h-153l115 547z" />
<glyph unicode="Z" horiz-adv-x="1130" d="M-31 0l31 143l979 1065h-723l31 144h897l-31 -144l-979 -1065h784l-30 -143h-959z" />
<glyph unicode="[" horiz-adv-x="583" d="M25 -195l366 1729h328l-19 -86h-194l-330 -1557h195l-19 -86h-327z" />
<glyph unicode="\" horiz-adv-x="864" d="M258 1438h150l239 -1555h-149z" />
<glyph unicode="]" horiz-adv-x="583" d="M-88 -195l18 86h195l330 1557h-195l19 86h327l-366 -1729h-328z" />
<glyph unicode="^" horiz-adv-x="712" d="M365 1161l8 15l270 202h16l181 -202l4 -15l-21 -39l-16 -6l-186 125l-240 -125l-12 6z" />
<glyph unicode="_" horiz-adv-x="985" d="M-76 -106l23 106h887l-23 -106h-887z" />
<glyph unicode="`" horiz-adv-x="448" d="M279 1293v12q0 35 23.5 60.5t64.5 27.5l327 -207l2 -15l-20 -41l-17 -6l-378 158q-2 4 -2 11z" />
<glyph unicode="a" d="M66 350q0 117 37.5 228.5t110.5 198.5t176.5 141.5t234.5 54.5q137 0 212.5 -59.5t84.5 -147.5l65 176h113l-199 -942h-113l21 168h-8q-66 -76 -172.5 -134.5t-237.5 -58.5q-84 0 -145.5 30t-101.5 81t-59 119.5t-19 144.5zM217 362q0 -51 11.5 -99t37 -85t66.5 -59.5 t100 -22.5q98 0 205.5 53.5t185.5 153.5l64 301q-12 117 -85 182.5t-181 65.5q-86 0 -161 -39t-128 -104.5t-84 -155.5t-31 -191z" />
<glyph unicode="b" d="M39 0l321 1516h144l-160 -750q47 88 149.5 147.5t235.5 59.5q88 0 153.5 -31t107.5 -83t62.5 -122.5t20.5 -150.5q0 -111 -36 -220.5t-104.5 -195.5t-167.5 -140.5t-226 -54.5q-131 0 -212 58.5t-116 134.5h-8l-51 -168h-113zM246 303q39 -98 122 -152.5t181 -54.5 q100 0 169.5 46t115 117t66 152t20.5 152q0 129 -60.5 209t-177.5 80q-109 0 -209 -65.5t-162 -182.5z" />
<glyph unicode="c" horiz-adv-x="1024" d="M70 369q0 111 36.5 219t112.5 193t190.5 138.5t268.5 53.5q98 0 187 -22.5t139 -59.5l-62 -121q-39 35 -121 62.5t-170 27.5q-109 0 -188.5 -41t-131.5 -107.5t-78 -148.5t-26 -164q0 -63 16.5 -119.5t50.5 -99.5t85 -67.5t123 -24.5q82 0 176 35t164 88v-133 q-66 -37 -172.5 -70t-218.5 -33q-98 0 -170 31t-119 85t-69.5 126t-22.5 152z" />
<glyph unicode="d" horiz-adv-x="1179" d="M68 350q0 117 37.5 228.5t110.5 198.5t176.5 141.5t234.5 54.5q137 0 212.5 -59.5t84.5 -147.5l157 750h144l-322 -1516h-112l20 168h-8q-66 -76 -172.5 -134.5t-237.5 -58.5q-84 0 -145.5 30t-101.5 81t-59 119.5t-19 144.5zM219 362q0 -51 11.5 -99t37 -85t66.5 -59.5 t100 -22.5q98 0 206 53.5t185 153.5l64 301q-12 117 -85 182.5t-181 65.5q-86 0 -161 -39t-128 -104.5t-84 -155.5t-31 -191z" />
<glyph unicode="e" horiz-adv-x="1056" d="M66 369q0 115 43 223t122.5 193t191.5 136.5t249 51.5q154 0 233.5 -71t79.5 -200q0 -59 -18.5 -117.5t-36.5 -82.5h-697q-12 -59 -12 -117q0 -61 15.5 -115.5t47 -95.5t82 -65.5t117.5 -24.5q49 0 99.5 11t96.5 28.5t88 38t75 41.5v-117q-31 -16 -74 -35.5t-94 -36 t-109.5 -28t-120.5 -11.5q-96 0 -166.5 32t-117.5 85t-70.5 125t-23.5 152zM268 610h568q4 10 9 23.5t5 50.5q0 86 -61.5 130t-147.5 44q-141 0 -233.5 -71.5t-139.5 -176.5z" />
<glyph unicode="f" horiz-adv-x="608" d="M-23 -532l293 1378h-157l16 76l162 18q25 115 49.5 197t48 138t46 92t42.5 58q49 57 111.5 79t124.5 22q8 0 28.5 -1t45 -4t50 -10.5t48.5 -19.5l-62 -121q-6 0 -26.5 7t-47 16.5t-56 17.5t-54.5 8q-31 0 -54.5 -17.5t-44 -57t-39 -105t-38.5 -162.5l-29 -135h221 l-20 -96h-221l-293 -1378h-144z" />
<glyph unicode="g" d="M-29 -406l25 111q43 -25 95 -45t106.5 -33.5t107.5 -21.5t98 -8q154 0 241 91t128 298l37 182h-8q-33 -37 -77 -72t-96.5 -61.5t-111.5 -43t-123 -16.5q-86 0 -148.5 30t-102.5 81t-58 119.5t-18 146.5q0 113 37.5 224.5t109.5 199.5t175.5 142.5t234.5 54.5 q141 0 215.5 -60.5t83.5 -146.5l65 176h113l-203 -954q-31 -139 -75 -235.5t-105.5 -156t-144.5 -86t-191 -26.5q-219 0 -410 110zM217 369q0 -55 11.5 -104.5t37 -87.5t67.5 -59.5t103 -21.5q47 0 98.5 13.5t102.5 40t99 65.5t87 88l64 301q-12 117 -85 182.5t-184 65.5 q-86 0 -159.5 -39t-126.5 -105.5t-84 -153.5t-31 -185z" />
<glyph unicode="h" horiz-adv-x="1112" d="M39 0l321 1516h144l-160 -750q45 86 147.5 146.5t239.5 60.5q55 0 103.5 -12.5t83 -39t55 -69.5t20.5 -107q0 -47 -12 -104l-137 -641h-144l134 623q8 39 8 77q0 82 -43 117t-115 35q-51 0 -104.5 -16.5t-102.5 -48t-92 -77.5t-74 -106l-129 -604h-143z" />
<glyph unicode="i" horiz-adv-x="458" d="M39 0l201 942h143l-201 -942h-143zM279 1268q0 25 11 47t28.5 39.5t41 28t48.5 10.5q37 0 60.5 -28t23.5 -62q0 -49 -41 -84t-89 -35q-37 0 -60 24.5t-23 59.5z" />
<glyph unicode="j" horiz-adv-x="460" d="M-293 -403q12 -6 43 -7q70 0 119 40t82 99.5t53.5 131t34.5 135.5l201 946h143l-201 -948q-23 -104 -62.5 -199.5t-94 -167t-122 -113.5t-145.5 -42q-14 0 -26.5 1t-16.5 5zM281 1268q0 47 38.5 86t88.5 39q37 0 61.5 -28t24.5 -62q0 -49 -41 -84t-88 -35 q-37 0 -60.5 24.5t-23.5 59.5z" />
<glyph unicode="k" horiz-adv-x="964" d="M39 0l321 1516h144l-207 -973l500 399h164l-408 -332l272 -610h-163l-230 512l-172 -141l-78 -371h-143z" />
<glyph unicode="l" horiz-adv-x="483" d="M51 0l322 1516h143l-321 -1516h-144z" />
<glyph unicode="m" horiz-adv-x="1757" d="M39 0l201 942h112l-22 -176h8q45 86 143.5 146.5t233.5 60.5q123 0 193.5 -54.5t72.5 -152.5q59 82 156.5 144.5t236.5 62.5q53 0 101.5 -12.5t84 -40t57 -71.5t21.5 -108q0 -45 -12 -100l-137 -641h-143l133 623q8 39 8 75q0 84 -45 119t-117 35q-104 0 -201.5 -64.5 t-158.5 -183.5l-129 -604h-144l133 623q8 39 9 75q0 84 -45.5 119t-116.5 35q-104 0 -201.5 -64.5t-159.5 -183.5l-129 -604h-143z" />
<glyph unicode="n" horiz-adv-x="1112" d="M39 0l201 942h112l-22 -176h8q45 86 150.5 146.5t242.5 60.5q55 0 103.5 -12.5t83 -39t55 -69.5t20.5 -107q0 -47 -12 -104l-137 -641h-144l134 623q8 39 8 77q0 80 -43 116t-115 36q-51 0 -104.5 -16.5t-102.5 -48t-92 -77.5t-74 -106l-129 -604h-143z" />
<glyph unicode="o" horiz-adv-x="1155" d="M68 367q0 113 38.5 221t113.5 194t187 138.5t257 52.5q102 0 174.5 -32t120 -86t69 -125t21.5 -150q0 -115 -37 -223.5t-111 -192.5t-184.5 -136.5t-257.5 -52.5q-102 0 -177 31t-122 85t-69.5 125t-22.5 151zM221 383q0 -59 14.5 -113.5t46 -95.5t80.5 -65.5t119 -24.5 q102 0 179 42t129.5 109.5t78 152.5t25.5 171q0 61 -14.5 115.5t-46 95.5t-81 64.5t-118.5 23.5q-102 0 -180 -42t-129.5 -109.5t-77 -152.5t-25.5 -171z" />
<glyph unicode="p" horiz-adv-x="1179" d="M-74 -532l314 1474h112l-20 -176h8q33 37 77 75t96 66.5t112.5 47t126.5 18.5q84 0 145 -30t101 -81t59.5 -119.5t19.5 -144.5q0 -117 -39 -228.5t-110.5 -198.5t-175 -141.5t-234.5 -54.5q-137 0 -213 59.5t-84 147.5l-151 -714h-144zM256 344q6 -59 31.5 -104t63.5 -78 t87 -49.5t103 -16.5q88 0 158.5 40t119.5 106.5t76 151.5t27 175q0 57 -13.5 108.5t-41 90.5t-72 61.5t-105.5 22.5q-98 0 -195.5 -53.5t-175.5 -153.5z" />
<glyph unicode="q" horiz-adv-x="1179" d="M68 360q0 113 36.5 222.5t105.5 196.5t166 140.5t220 53.5q68 0 122 -18.5t95 -47t68.5 -65.5t46.5 -76h8l53 176h113l-314 -1474h-143l152 714q-45 -88 -145.5 -147.5t-237.5 -59.5q-90 0 -155.5 31t-107.5 83t-62.5 122t-20.5 149zM219 371q0 -117 53.5 -196t167.5 -79 q53 0 109.5 16.5t109 49.5t97.5 78t75 104l64 301q-35 100 -109 153.5t-172 53.5q-96 0 -169.5 -44t-124 -113.5t-76 -155.5t-25.5 -168z" />
<glyph unicode="r" horiz-adv-x="729" d="M39 0l201 942h112l-28 -207h8q25 47 57.5 90t73.5 76t88 52.5t102 19.5q39 0 79 -13.5t54 -33.5l-71 -135q-29 18 -59.5 29t-61.5 11q-41 0 -83 -22.5t-81 -61t-72.5 -90t-58.5 -106.5l-117 -551h-143z" />
<glyph unicode="s" horiz-adv-x="905" d="M-4 78l65 133q59 -68 142.5 -98.5t154.5 -30.5q55 0 101.5 16.5t79 44t51 62.5t18.5 74q0 33 -22.5 71.5t-91.5 57.5l-187 49q-102 27 -140 82t-38 114q0 70 30.5 128.5t85 101.5t129.5 66.5t163 23.5q39 0 83 -5t84.5 -16.5t77.5 -27t64 -35.5l-66 -123 q-35 35 -108.5 63.5t-169.5 28.5q-117 0 -168 -45t-51 -113q0 -35 26.5 -71.5t100.5 -53.5l139 -32q66 -16 107.5 -41t66.5 -54.5t34 -62.5t9 -61q0 -70 -33 -133.5t-91 -110.5t-140 -76t-180 -29q-109 0 -194 32t-132 71z" />
<glyph unicode="t" horiz-adv-x="634" d="M104 846l17 76l166 20l92 285h108l-61 -285h221l-20 -96h-221l-140 -653q-6 -31 -6 -54q0 -33 15.5 -43t48.5 -10q47 0 88 14.5t71 34.5l6 -108q-37 -16 -97 -33t-128 -17q-92 0 -122.5 36t-30.5 87q0 20 4 43t8 45l139 658h-158z" />
<glyph unicode="u" horiz-adv-x="1110" d="M82 197q0 45 12 104l137 641h144l-133 -623q-4 -23 -7.5 -42t-3.5 -35q0 -82 44 -114t114 -32q104 0 207.5 61.5t167.5 180.5l127 604h143l-200 -942h-113l22 176h-8q-45 -86 -149.5 -143.5t-241.5 -57.5q-55 0 -103 11.5t-83 37t-55.5 68.5t-20.5 105z" />
<glyph unicode="v" horiz-adv-x="1067" d="M88 942h156l194 -807l539 807h149l-628 -942h-183z" />
<glyph unicode="w" horiz-adv-x="1685" d="M106 942h152l123 -803l467 803h151l107 -803l483 803h146l-568 -942h-194l-99 737l-428 -737h-194z" />
<glyph unicode="x" horiz-adv-x="1052" d="M-84 0l510 481l-289 461h174l224 -358l372 358h174l-485 -457l305 -485h-174l-240 383l-397 -383h-174z" />
<glyph unicode="y" horiz-adv-x="1060" d="M-158 -383q6 -2 13.5 -4t27.5 -2q137 0 251 114.5t222 305.5l-276 911h170l207 -784l504 784h161l-635 -950q-43 -66 -105.5 -155t-140 -169t-168.5 -136t-192 -56q-16 0 -23.5 1t-15.5 5v135z" />
<glyph unicode="z" horiz-adv-x="849" d="M-35 0l27 123l645 698h-477l26 121h643l-26 -119l-649 -702h522l-27 -121h-684z" />
<glyph unicode="{" horiz-adv-x="579" d="M88 639l12 61q55 2 92 31t59.5 70t34 86t19.5 82q27 125 43.5 233.5t51 186t102 122.5t198.5 45l-4 -43q-47 -4 -77.5 -22t-50 -46t-31 -65t-19.5 -75l-57 -293q-12 -63 -32.5 -119.5t-52.5 -102t-77 -77t-104 -43.5q78 -18 107.5 -81t29.5 -145q0 -55 -15.5 -123.5 t-33 -137t-32.5 -130t-15 -100.5q0 -47 21.5 -84t80.5 -43l-14 -43q-66 0 -110 14.5t-70.5 39t-37 60t-10.5 78.5q0 49 16.5 117t35 139.5t35 139t16.5 114.5q0 25 -5.5 51.5t-17.5 49t-33.5 37t-54.5 16.5z" />
<glyph unicode="|" horiz-adv-x="495" d="M16 -233l383 1806h127l-383 -1806h-127z" />
<glyph unicode="}" horiz-adv-x="577" d="M-76 -217l4 43q47 4 78 22.5t50.5 46t30.5 63.5t19 77q20 98 38 201.5t50.5 192.5t87 154.5t148.5 86.5q-76 18 -106.5 80.5t-30.5 144.5q0 55 15.5 123.5t32.5 137.5t32.5 130.5t15.5 99.5q0 47 -20.5 84t-79.5 43l12 43q131 0 179 -53t48 -139q0 -49 -15 -116.5 t-34.5 -139.5t-35 -138.5t-15.5 -113.5q0 -25 5 -51.5t17.5 -49t33 -38t53.5 -17.5l-13 -61q-55 -2 -91 -29.5t-58.5 -66.5t-33.5 -84t-19 -82q-27 -125 -43.5 -233.5t-52.5 -188.5t-104.5 -126t-197.5 -46z" />
<glyph unicode="~" horiz-adv-x="1013" d="M121 414q2 14 20.5 40.5t48 53.5t68.5 45t82 18q27 0 70 -3t93 -6t102 -6t97 -3q35 0 73 8t73 45l20 -16q-2 -6 -17 -32t-43 -53.5t-65.5 -50t-87.5 -22.5q-23 0 -73 3t-109 6t-115.5 6.5t-89.5 3.5q-51 0 -74.5 -13.5t-48.5 -38.5z" />
<glyph unicode="&#xa1;" horiz-adv-x="491" d="M-66 -446l281 1089h96l-178 -1089h-199zM219 862q0 45 36 78t81 33q35 0 56.5 -22.5t21.5 -57.5q0 -23 -11.5 -42.5t-28 -35.5t-38 -25.5t-41.5 -9.5q-35 0 -55.5 24.5t-20.5 57.5z" />
<glyph unicode="&#xa2;" horiz-adv-x="1040" d="M66 350q0 98 32.5 194.5t100 174.5t169 129t240.5 61l58 273h122l-59 -275q80 -6 150.5 -26.5t111.5 -51.5l-61 -120q-33 29 -93.5 51t-131.5 33l-150 -703q74 10 150.5 42t136.5 79v-133q-53 -31 -135 -59.5t-175 -38.5l-55 -261h-123l54 258q-88 6 -153 38t-107 82 t-62 114.5t-20 138.5zM223 383q0 -106 51.5 -187t159.5 -102l150 701q-92 -10 -161 -50t-113 -97.5t-65.5 -126t-21.5 -138.5z" />
<glyph unicode="&#xa3;" horiz-adv-x="1159" d="M-41 33q88 35 154.5 86t113.5 113.5t77 134t46 145.5l6 31h-200l22 106h193q10 94 14 184.5t21 161.5q20 100 70 170t115.5 114t139.5 63.5t141 19.5q94 0 174 -29.5t125 -70.5l-65 -136q-33 41 -104.5 71t-153.5 30q-61 0 -105.5 -17.5t-75 -48.5t-49 -72.5t-28.5 -89.5 q-16 -70 -20.5 -158.5t-20.5 -191.5h285l-23 -106h-281q-27 -104 -91 -220t-167 -212l2 -7q63 -4 126 -17t124.5 -28.5t125 -28t130.5 -12.5q51 0 94.5 9.5t96.5 29.5l-72 -149q-57 -27 -93 -34t-81 -7q-74 0 -140.5 21.5t-132 46t-134 46t-148.5 21.5q-20 0 -77.5 -9 t-125.5 -56z" />
<glyph unicode="&#xa4;" horiz-adv-x="1187" d="M12 55l195 164q-23 39 -35 87t-12 95q0 33 5 67t20.5 73t46 83t83.5 95l-133 164l74 61l129 -162q76 47 140.5 68.5t133.5 21.5q72 0 127.5 -21.5t104.5 -68.5l201 160l49 -59l-197 -164q23 -43 34 -90t11 -94q0 -78 -31.5 -152t-117.5 -164l129 -164l-76 -61l-133 162 q-68 -45 -134.5 -69t-133.5 -24q-66 0 -121.5 23t-114.5 70l-197 -162zM266 416q0 -53 17.5 -99.5t50.5 -80t78 -53t100 -19.5q72 0 138.5 28.5t118.5 77.5t84 114t32 138q0 53 -17.5 99.5t-49.5 80t-77 53t-100 19.5q-72 0 -138.5 -28.5t-119.5 -76.5t-85 -114t-32 -139z " />
<glyph unicode="&#xa5;" horiz-adv-x="1339" d="M205 416l22 106h353l6 25l-37 84h-299l22 106h230l-273 615h183l290 -650l551 650h179l-535 -615h233l-22 -106h-303l-66 -76l-8 -33h354l-22 -106h-354l-86 -416h-154l88 416h-352z" />
<glyph unicode="&#xa6;" horiz-adv-x="499" d="M18 -233l168 794h127l-168 -794h-127zM233 778l168 795h127l-168 -795h-127z" />
<glyph unicode="&#xa7;" horiz-adv-x="907" d="M37 -51l80 137q29 -41 76 -63.5t98 -22.5q37 0 71.5 13.5t62.5 38t44 57t16 73.5q0 49 -25.5 90t-65.5 80t-85 77t-85 81t-65.5 92t-25.5 113q0 45 15.5 90t42 86t62.5 77t77 60q-8 27 -8 68q0 88 36.5 155.5t92 111.5t121 66.5t122.5 22.5q59 0 119.5 -22.5t99.5 -55.5 l-79 -137q-29 41 -76 63.5t-99 22.5q-35 0 -69.5 -11.5t-62 -35t-45 -56t-17.5 -75.5q0 -49 25.5 -91t65.5 -81t85 -77t85 -81t65.5 -94t25.5 -113q0 -45 -15.5 -90t-42 -87t-62 -78t-76.5 -60q4 -16 6 -32.5t2 -33.5q0 -90 -37 -156.5t-92.5 -110.5t-121 -66.5 t-122.5 -22.5q-59 0 -119.5 22.5t-99.5 55.5zM274 782q0 -59 36 -106t87.5 -93t104.5 -95.5t88 -110.5q41 31 63.5 77t22.5 87q0 57 -36 104t-87 93t-104.5 95.5t-88.5 112.5q-43 -31 -64.5 -78t-21.5 -86z" />
<glyph unicode="&#xa8;" horiz-adv-x="450" d="M272 1276q0 41 33 74.5t74 33.5q29 0 48 -22.5t19 -54.5q0 -43 -33.5 -74t-72.5 -31q-31 0 -49.5 20.5t-18.5 53.5zM553 1276q0 41 32.5 74.5t73.5 33.5q29 0 48.5 -22.5t19.5 -54.5q0 -43 -34 -74t-72 -31q-31 0 -49.5 20.5t-18.5 53.5z" />
<glyph unicode="&#xa9;" horiz-adv-x="1488" d="M145 621q0 143 64.5 274t172 229.5t245 156.5t282.5 58q113 0 206 -39.5t159.5 -108.5t103.5 -162t37 -200q0 -147 -65.5 -278t-173 -230.5t-248 -157t-289.5 -57.5q-109 0 -200 40t-156.5 110t-101.5 164t-36 201zM242 629q0 -92 29.5 -173t85 -139.5t132 -92.5 t168.5 -34q131 0 251 50.5t211 135.5t145.5 199.5t54.5 243.5q0 92 -31 172t-86 138.5t-134 92t-175 33.5q-127 0 -244 -50t-208 -136t-145 -199.5t-54 -240.5zM436 649q0 76 23.5 152t74 134t129 95t189.5 37q68 0 131.5 -15.5t97.5 -41.5l-47 -105q-27 25 -85 43.5 t-118 18.5q-74 0 -125 -27t-81.5 -69t-45 -93t-14.5 -102q0 -80 41 -135.5t131 -55.5q59 0 125 23.5t115 62.5l-6 -114q-47 -27 -122 -49.5t-153 -22.5q-135 0 -197.5 77t-62.5 187z" />
<glyph unicode="&#xaa;" horiz-adv-x="759" d="M186 868q0 82 42 132.5t101.5 76t126 33.5t113.5 8h56l2 15q2 10 2 30q0 106 -131 107q-53 0 -95.5 -13.5t-83.5 -35.5l-4 73q47 25 98.5 39.5t108.5 14.5q41 0 80 -8.5t68.5 -27t47 -48t17.5 -72.5q0 -23 -6 -49l-82 -387h-82l10 100h-8q-39 -47 -108.5 -82t-141.5 -35 q-66 0 -98.5 37t-32.5 92zM287 887q-1 -64 75 -64q49 0 114 34t112 93l20 99h-10q-55 0 -110.5 -4.5t-100.5 -20.5t-72.5 -49t-27.5 -88z" />
<glyph unicode="&#xab;" horiz-adv-x="985" d="M88 487l2 11l352 362h162l-373 -362l-2 -11l217 -362h-163zM420 487l2 11l352 362h162l-373 -362l-2 -11l217 -362h-164z" />
<glyph unicode="&#xac;" horiz-adv-x="1298" d="M162 592l22 106h983l-98 -458h-108l75 352h-874z" />
<glyph unicode="&#xad;" horiz-adv-x="999" d="M125 436l27 107h688l-27 -107h-688z" />
<glyph unicode="&#xae;" horiz-adv-x="1488" d="M145 621q0 143 64.5 274t172 229.5t245 156.5t282.5 58q113 0 206 -39.5t159.5 -108.5t103.5 -162t37 -200q0 -147 -65.5 -278t-173 -230.5t-248 -157t-289.5 -57.5q-109 0 -200 40t-156.5 110t-101.5 164t-36 201zM242 629q0 -92 29.5 -173t85 -139.5t132 -92.5 t168.5 -34q131 0 251 50.5t211 135.5t145.5 199.5t54.5 243.5q0 92 -31 172t-86 138.5t-134 92t-175 33.5q-127 0 -244 -50t-208 -136t-145 -199.5t-54 -240.5zM508 412l143 673q35 2 87.5 3.5t88.5 1.5q98 0 159 -31t61 -117q0 -84 -57.5 -144.5t-149.5 -82.5l141 -303 h-113l-139 297h-59l-64 -297h-98zM686 782q16 -2 36.5 -2h43.5q80 0 128 40t48 108q0 37 -29.5 60.5t-99.5 23.5q-23 0 -42 -1t-38 -1z" />
<glyph unicode="&#xb0;" horiz-adv-x="729" d="M221 1065q0 55 21.5 106.5t61.5 90t96 62.5t126 24q106 0 156.5 -56.5t50.5 -138.5q0 -53 -19.5 -102.5t-58.5 -87t-96 -61t-133 -23.5q-109 0 -157 56t-48 130zM319 1079q0 -53 30 -88t93 -35q94 0 140.5 54.5t46.5 130.5q0 53 -29 88t-94 35q-49 0 -84 -15.5t-58.5 -42 t-34 -59.5t-10.5 -68z" />
<glyph unicode="&#xb1;" horiz-adv-x="987" d="M84 143l22 109h654l-23 -109h-653zM182 610l25 109h272l45 213h107l-45 -213h274l-24 -109h-275l-49 -235h-106l49 235h-273z" />
<glyph unicode="&#xb2;" horiz-adv-x="763" d="M141 612l19 86q66 66 147.5 125.5t153 117.5t121 118.5t49.5 126.5q0 33 -19.5 63.5t-79.5 30.5q-53 0 -113.5 -31.5t-105.5 -77.5l-4 91q57 43 121 71.5t123 28.5q92 0 139 -44t47 -116q0 -76 -40 -139.5t-104.5 -121.5t-146 -116.5t-163.5 -126.5h358l-18 -86h-484z " />
<glyph unicode="&#xb3;" horiz-adv-x="727" d="M135 680l43 82q35 -35 66.5 -56.5t93.5 -21.5q125 0 178 57.5t53 141.5q0 47 -36.5 74.5t-131.5 27.5h-24l14 70h31q92 0 135 43t43 110q0 33 -21.5 52.5t-80.5 19.5q-55 0 -97.5 -17.5t-78.5 -41.5l-7 79q47 27 95.5 44.5t97.5 17.5q94 0 144 -39t50 -113 q0 -68 -47 -112.5t-106 -71.5q57 -18 89 -55t32 -94q0 -49 -20.5 -97.5t-63.5 -88.5t-107.5 -64.5t-152.5 -24.5q-72 0 -112 20.5t-79 57.5z" />
<glyph unicode="&#xb4;" horiz-adv-x="448" d="M250 1171l8 15l414 207q29 -2 44 -18.5t15 -39.5q0 -27 -18 -53l-447 -158l-12 6z" />
<glyph unicode="&#xb5;" horiz-adv-x="1181" d="M-86 -227q51 70 93 132t76 125.5t58.5 129t40.5 141.5l137 641h144l-133 -623q-8 -33 -8 -71q0 -66 34.5 -109t122.5 -43q104 0 206.5 61.5t166.5 180.5l127 604h143l-198 -942h-113l20 176h-8q-45 -86 -149.5 -143.5t-241.5 -57.5q-66 0 -121 16.5t-90 55.5l-12 -27 q-35 -78 -79 -153.5t-97 -153.5z" />
<glyph unicode="&#xb6;" horiz-adv-x="1101" d="M145 846q0 121 44 216t124 161.5t188.5 102.5t237.5 36q72 0 155 -3t169 -7l-324 -1528h-92l297 1403h-110l-297 -1403h-103l146 684h-43q-102 0 -176 26.5t-122.5 72.5t-71 107.5t-22.5 131.5z" />
<glyph unicode="&#xb7;" horiz-adv-x="497" d="M137 481q0 43 37 79t82 36q33 0 55.5 -24.5t22.5 -59.5q0 -23 -11.5 -42t-27.5 -33.5t-37.5 -24t-42.5 -9.5q-35 0 -56.5 22.5t-21.5 55.5z" />
<glyph unicode="&#xb8;" horiz-adv-x="413" d="M-78 -365l37 48h14q23 -10 61 -17.5t77 -7.5q51 0 91 21.5t40 82.5q0 41 -27 56.5t-63 15.5q-25 0 -52.5 -4t-50.5 -10l-12 22l137 158h70l-84 -104q39 8 71 8q61 0 97.5 -35t36.5 -88q0 -39 -21.5 -74t-57.5 -62.5t-84 -44t-102 -16.5q-49 0 -95 11.5t-83 27.5v12z" />
<glyph unicode="&#xb9;" horiz-adv-x="499" d="M221 1227l283 135l-160 -750h-111l125 586l-129 -57z" />
<glyph unicode="&#xba;" horiz-adv-x="796" d="M207 989q0 70 26.5 134.5t73.5 114.5t111.5 80t142.5 30q115 0 172.5 -72t57.5 -170q0 -66 -24 -128.5t-70 -111.5t-111.5 -79.5t-149.5 -30.5q-61 0 -104 19.5t-71 51t-41 73.5t-13 89zM313 999q0 -68 34 -113.5t108 -45.5q61 0 105 22.5t71.5 59t40 83t12.5 93.5 q0 66 -35 112.5t-112 46.5q-66 0 -109 -24.5t-68.5 -62t-36 -83t-10.5 -88.5z" />
<glyph unicode="&#xbb;" horiz-adv-x="985" d="M20 125l373 362l2 11l-219 362h162l199 -362l-2 -11l-351 -362h-164zM352 125l373 362l2 11l-219 362h162l198 -362l-2 -11l-350 -362h-164z" />
<glyph unicode="&#xbc;" horiz-adv-x="1458" d="M35 -49l1259 1464h133l-1259 -1464h-133zM215 1227l283 135l-160 -750h-111l125 586l-129 -57zM825 225l19 86l393 437h98l-92 -437h74l-19 -86h-73l-49 -227h-93l50 227h-308zM948 311h203l68 316z" />
<glyph unicode="&#xbd;" horiz-adv-x="1462" d="M-2 -49l1259 1464h134l-1260 -1464h-133zM219 1227l283 135l-160 -750h-111l125 586l-129 -57zM772 -4l19 86q66 66 147.5 125t153 117.5t121 119t49.5 125.5q0 33 -19.5 64t-79.5 31q-53 0 -113.5 -32t-105.5 -77l-4 90q57 43 120.5 71.5t123.5 28.5q92 0 139 -44 t47 -115q0 -76 -40 -139.5t-104.5 -122t-146.5 -116.5t-164 -126h359l-19 -86h-483z" />
<glyph unicode="&#xbe;" horiz-adv-x="1538" d="M100 680l43 82q35 -35 67 -56.5t93 -21.5q125 0 178.5 57.5t53.5 141.5q0 47 -37 74.5t-131 27.5h-25l14 70h31q92 0 135 43t43 110q0 33 -21.5 52.5t-80.5 19.5q-55 0 -97 -17.5t-79 -41.5l-6 79q47 27 95 44.5t97 17.5q94 0 144.5 -39t50.5 -113q0 -68 -47.5 -112.5 t-106.5 -71.5q57 -18 89 -55t32 -94q0 -49 -20.5 -97.5t-63.5 -88.5t-107.5 -64.5t-152.5 -24.5q-72 0 -112 20.5t-79 57.5zM141 -49l1260 1464h133l-1260 -1464h-133zM903 225l19 86l393 437h98l-92 -437h74l-19 -86h-73l-50 -227h-92l49 227h-307zM1026 311h203l67 316z " />
<glyph unicode="&#xbf;" horiz-adv-x="831" d="M-51 -188q0 74 28.5 136t73.5 119.5t99.5 116t106.5 126t96 148.5t67 183h131q-25 -113 -68 -197t-93 -150.5t-102 -120.5t-94 -105.5t-69 -106.5t-27 -125q0 -66 42 -112t134 -46q33 0 71 8.5t76 21.5t71.5 31.5t60.5 41.5l8 -135q-66 -43 -152.5 -72t-164.5 -29 q-141 0 -218 74t-77 193zM430 862q0 43 39 77t82 34q35 0 55.5 -22.5t20.5 -55.5q0 -43 -35 -79t-82 -36q-35 0 -57.5 23.5t-22.5 58.5z" />
<glyph unicode="&#xc0;" horiz-adv-x="1316" d="M-102 0l827 1352h186l308 -1352h-175l-102 455h-604l-277 -455h-163zM424 598h485l-129 582zM678 1639.5v11.5q0 35 23.5 59.5t64.5 26.5l328 -205l2 -14l-21 -41l-16 -7l-379 158q-2 4 -2 11.5z" />
<glyph unicode="&#xc1;" horiz-adv-x="1316" d="M-102 0l827 1352h186l308 -1352h-175l-102 455h-604l-277 -455h-163zM424 598h485l-129 582zM649 1518l8 14l412 205q31 -2 45 -17.5t14 -38.5q0 -29 -16 -53l-446 -158l-15 7z" />
<glyph unicode="&#xc2;" horiz-adv-x="1316" d="M-102 0l827 1352h186l308 -1352h-175l-102 455h-604l-277 -455h-163zM424 598h485l-129 582zM635 1507l10 15l268 202h17l182 -202l2 -15l-20 -41l-15 -6l-186 127l-240 -127l-14 6z" />
<glyph unicode="&#xc3;" horiz-adv-x="1316" d="M-102 0l827 1352h186l308 -1352h-175l-102 455h-604l-277 -455h-163zM424 598h485l-129 582zM559 1540q14 27 33.5 55.5t46.5 50t61.5 36t77.5 14.5q51 0 88 -4t69 -10.5t61.5 -10.5t68.5 -4q35 0 72 8t73 45l21 -16q-12 -29 -31.5 -56.5t-46.5 -50t-60.5 -37 t-76.5 -14.5q-82 0 -164 14.5t-147 14.5q-51 0 -74 -13.5t-49 -37.5z" />
<glyph unicode="&#xc4;" horiz-adv-x="1316" d="M-102 0l827 1352h186l308 -1352h-175l-102 455h-604l-277 -455h-163zM424 598h485l-129 582zM649 1610q0 41 32 74.5t73 33.5q29 0 49 -22.5t20 -55.5q0 -43 -34.5 -73.5t-73.5 -30.5q-31 0 -48.5 20.5t-17.5 53.5zM971 1610q0 41 31.5 74.5t72.5 33.5q29 0 48.5 -22.5 t19.5 -53.5q0 -45 -35 -75.5t-72 -30.5q-29 0 -47 20.5t-18 53.5z" />
<glyph unicode="&#xc5;" horiz-adv-x="1316" d="M-102 0l809 1321q-25 16 -38.5 43t-13.5 57q0 35 16.5 68t46.5 57.5t68.5 40t83.5 15.5q72 0 109 -41t37 -95q0 -49 -29 -86t-69 -59l301 -1321h-175l-102 455h-604l-277 -455h-163zM426 598h483l-131 582zM737 1427q0 -35 22.5 -61.5t57.5 -26.5q45 0 81 37t36 82 q0 35 -21.5 58.5t-56.5 23.5q-53 0 -86 -32.5t-33 -80.5z" />
<glyph unicode="&#xc6;" horiz-adv-x="1560" d="M-125 0l1008 1352h725l-31 -144h-485l-88 -420h348l-31 -143h-348l-107 -502h527l-31 -143h-680l96 455h-397l-338 -455h-168zM487 598h322l129 606z" />
<glyph unicode="&#xc7;" horiz-adv-x="1318" d="M125 508q0 166 57.5 320.5t167 272.5t266 189.5t355.5 71.5q111 0 216 -23.5t177 -64.5l-76 -148q-55 43 -145 72t-213 29q-188 0 -311 -63.5t-195 -166t-100.5 -229.5t-28.5 -252q0 -199 98.5 -302t294.5 -103q129 0 245 36.5t193 90.5l13 -138q-90 -47 -207 -83.5 t-256 -41.5l-66 -79q18 4 36 6t32 2q63 0 99 -34t36 -87q0 -39 -21.5 -75t-57.5 -63.5t-84 -44t-101 -16.5q-49 0 -96 11.5t-82 27.5l2 12l35 48h14q23 -10 59.5 -17.5t77.5 -7.5q53 0 91 21.5t38 82.5q0 41 -25.5 56.5t-62.5 15.5q-25 0 -51.5 -4t-50.5 -10l-13 22l117 135 q-125 8 -215 53.5t-148.5 117t-86 163.5t-27.5 197z" />
<glyph unicode="&#xc8;" horiz-adv-x="1069" d="M86 0l287 1352h741l-31 -144h-587l-88 -420h450l-31 -143h-450l-107 -502h629l-31 -143h-782zM580 1639.5v11.5q0 35 23.5 59.5t64.5 26.5l327 -205l4 -14l-22 -41l-16 -7l-379 158q-2 4 -2 11.5z" />
<glyph unicode="&#xc9;" horiz-adv-x="1069" d="M86 0l287 1352h741l-31 -144h-587l-88 -420h450l-31 -143h-450l-107 -502h629l-31 -143h-782zM571 1518l9 14l413 205q59 -4 60 -56q0 -20 -6.5 -31.5t-12.5 -21.5l-446 -158l-15 7z" />
<glyph unicode="&#xca;" horiz-adv-x="1069" d="M86 0l287 1352h741l-31 -144h-587l-88 -420h450l-31 -143h-450l-107 -502h629l-31 -143h-782zM551 1507l10 15l268 202h17l182 -202l2 -15l-20 -41l-15 -6l-186 127l-240 -127l-14 6z" />
<glyph unicode="&#xcb;" horiz-adv-x="1069" d="M86 0l287 1352h741l-31 -144h-587l-88 -420h450l-31 -143h-450l-107 -502h629l-31 -143h-782zM551 1610q0 41 31.5 74.5t72.5 33.5q29 0 49.5 -22.5t20.5 -55.5q0 -43 -35 -73.5t-74 -30.5q-31 0 -48 20.5t-17 53.5zM872 1610q0 41 32 74.5t73 33.5q29 0 49.5 -22.5 t20.5 -55.5q0 -43 -35 -73.5t-74 -30.5q-31 0 -48.5 20.5t-17.5 53.5z" />
<glyph unicode="&#xcc;" horiz-adv-x="561" d="M86 0l287 1352h153l-286 -1352h-154zM266 1639.5v11.5q0 35 23.5 59.5t64.5 26.5l328 -205l4 -14l-22 -41l-15 -7l-381 158q-2 4 -2 11.5z" />
<glyph unicode="&#xcd;" horiz-adv-x="561" d="M86 0l287 1352h153l-286 -1352h-154zM279 1518l8 14l413 205q31 -2 45.5 -17.5t14.5 -38.5q0 -20 -6 -31.5t-13 -21.5l-444 -158l-16 7z" />
<glyph unicode="&#xce;" horiz-adv-x="561" d="M86 0l287 1352h153l-286 -1352h-154zM240 1507l10 15l268 202h14l185 -202l2 -15l-21 -41l-16 -6l-184 127l-240 -127l-16 6z" />
<glyph unicode="&#xcf;" horiz-adv-x="561" d="M86 0l287 1352h153l-286 -1352h-154zM266 1610q0 41 32 74.5t73 33.5q29 0 49 -22.5t20 -55.5q0 -43 -34.5 -73.5t-73.5 -30.5q-29 0 -47.5 20.5t-18.5 53.5zM588 1610q0 41 31.5 74.5t72.5 33.5q29 0 49.5 -22.5t20.5 -55.5q0 -43 -35 -73.5t-74 -30.5q-31 0 -48 20.5 t-17 53.5z" />
<glyph unicode="&#xd0;" horiz-adv-x="1462" d="M59 668l19 90h178l127 594l10 2q47 6 101.5 8t111.5 2q121 0 220.5 -4t180 -19.5t145.5 -47t116 -85.5q59 -66 86.5 -168t27.5 -211q0 -162 -53 -315.5t-157.5 -273t-258 -192.5t-354.5 -73q-145 0 -259 7.5t-204 17.5l142 668h-179zM274 123q129 -12 308 -12 q158 0 276.5 53t197.5 149.5t118.5 229.5t39.5 293q0 88 -21.5 159.5t-69.5 122.5t-123.5 80t-184.5 29q-82 0 -162 -1t-145 -5l-98 -463h358l-18 -90h-359z" />
<glyph unicode="&#xd1;" horiz-adv-x="1443" d="M86 0l287 1352h174l473 -1112l235 1112h154l-287 -1352h-174l-473 1110l-235 -1110h-154zM586 1540q14 27 33.5 55.5t46 50t61.5 36t78 14.5q51 0 88 -4t68.5 -10.5t61.5 -10.5t69 -4q35 0 71.5 8t73.5 45l20 -16q-12 -29 -31.5 -56.5t-46 -50t-60.5 -37t-77 -14.5 q-82 0 -163.5 14.5t-147.5 14.5q-51 0 -73.5 -13.5t-49.5 -37.5z" />
<glyph unicode="&#xd2;" horiz-adv-x="1560" d="M123 510q0 168 59.5 321.5t169 271.5t262 188.5t338.5 70.5q135 0 234.5 -43t166 -118t99.5 -174t33 -212q0 -154 -57.5 -303.5t-167 -269t-265 -193.5t-352.5 -74q-135 0 -233.5 42t-162 115t-94 170t-30.5 208zM283 504q0 -184 105.5 -288.5t303.5 -104.5 q160 0 280 63.5t198.5 164.5t117.5 230t39 260q0 88 -25.5 161t-78 125t-133 82t-191.5 30q-164 0 -280.5 -63.5t-191.5 -166t-109.5 -232.5t-34.5 -261zM731 1651q0 35 23.5 59.5t66.5 26.5l324 -205l4 -14l-19 -41l-18 -7l-379 158q0 4 -1 11.5t-1 11.5z" />
<glyph unicode="&#xd3;" horiz-adv-x="1560" d="M123 510q0 168 59.5 321.5t169 271.5t262 188.5t338.5 70.5q135 0 234.5 -43t166 -118t99.5 -174t33 -212q0 -154 -57.5 -303.5t-167 -269t-265 -193.5t-352.5 -74q-135 0 -233.5 42t-162 115t-94 170t-30.5 208zM283 504q0 -184 105.5 -288.5t303.5 -104.5 q160 0 280 63.5t198.5 164.5t117.5 230t39 260q0 88 -25.5 161t-78 125t-133 82t-191.5 30q-164 0 -280.5 -63.5t-191.5 -166t-109.5 -232.5t-34.5 -261zM840 1518l8 14l414 205q29 -2 43 -17.5t14 -38.5q0 -20 -16 -53l-447 -158l-14 7z" />
<glyph unicode="&#xd4;" horiz-adv-x="1560" d="M123 510q0 168 59.5 321.5t169 271.5t262 188.5t338.5 70.5q135 0 234.5 -43t166 -118t99.5 -174t33 -212q0 -154 -57.5 -303.5t-167 -269t-265 -193.5t-352.5 -74q-135 0 -233.5 42t-162 115t-94 170t-30.5 208zM283 504q0 -184 105.5 -288.5t303.5 -104.5 q160 0 280 63.5t198.5 164.5t117.5 230t39 260q0 88 -25.5 161t-78 125t-133 82t-191.5 30q-164 0 -280.5 -63.5t-191.5 -166t-109.5 -232.5t-34.5 -261zM764 1507l8 15l268 202h17l182 -202l4 -15l-20 -41l-17 -6l-186 127l-240 -127l-12 6z" />
<glyph unicode="&#xd5;" horiz-adv-x="1560" d="M123 510q0 168 59.5 321.5t169 271.5t262 188.5t338.5 70.5q135 0 234.5 -43t166 -118t99.5 -174t33 -212q0 -154 -57.5 -303.5t-167 -269t-265 -193.5t-352.5 -74q-135 0 -233.5 42t-162 115t-94 170t-30.5 208zM283 504q0 -184 105.5 -288.5t303.5 -104.5 q160 0 280 63.5t198.5 164.5t117.5 230t39 260q0 88 -25.5 161t-78 125t-133 82t-191.5 30q-164 0 -280.5 -63.5t-191.5 -166t-109.5 -232.5t-34.5 -261zM674 1540q14 27 34.5 55.5t46 50t60.5 36t78 14.5q51 0 88 -4t68.5 -10.5t61.5 -10.5t69 -4q35 0 72.5 8t72.5 45 l21 -16q-12 -29 -31 -56.5t-45.5 -50t-60 -37t-76.5 -14.5q-82 0 -164 14.5t-148 14.5q-51 0 -74.5 -13.5t-48.5 -37.5z" />
<glyph unicode="&#xd6;" horiz-adv-x="1560" d="M123 510q0 168 59.5 321.5t169 271.5t262 188.5t338.5 70.5q135 0 234.5 -43t166 -118t99.5 -174t33 -212q0 -154 -57.5 -303.5t-167 -269t-265 -193.5t-352.5 -74q-135 0 -233.5 42t-162 115t-94 170t-30.5 208zM283 504q0 -184 105.5 -288.5t303.5 -104.5 q160 0 280 63.5t198.5 164.5t117.5 230t39 260q0 88 -25.5 161t-78 125t-133 82t-191.5 30q-164 0 -280.5 -63.5t-191.5 -166t-109.5 -232.5t-34.5 -261zM762 1610q0 41 32.5 74.5t73.5 33.5q29 0 48.5 -22.5t19.5 -55.5q0 -43 -34 -73.5t-73 -30.5q-31 0 -49 20.5t-18 53.5 zM1083 1610q0 41 33 74.5t74 33.5q29 0 48 -22.5t19 -55.5q0 -43 -33.5 -73.5t-72.5 -30.5q-31 0 -49.5 20.5t-18.5 53.5z" />
<glyph unicode="&#xd7;" horiz-adv-x="933" d="M76 242l299 247l-195 246l92 76l195 -246l301 248l59 -76l-301 -248l197 -249l-92 -76l-197 250l-299 -248z" />
<glyph unicode="&#xd8;" horiz-adv-x="1558" d="M8 16l191 183q-76 131 -76 311q0 168 59.5 321.5t169 271.5t262 188.5t338.5 70.5q113 0 200 -31t153 -86l170 162l88 -80l-179 -170q49 -72 74 -158t25 -184q0 -154 -57.5 -303.5t-166 -269t-264 -193.5t-352.5 -74q-123 0 -214 34t-155 95l-186 -176zM283 504 q0 -111 36 -191l875 828q-53 41 -125 63.5t-170 22.5q-164 0 -280.5 -63.5t-191.5 -166t-109.5 -232.5t-34.5 -261zM389 215q109 -104 303 -104q160 0 280 63.5t198.5 164.5t117.5 230t39 260q0 127 -55 224z" />
<glyph unicode="&#xd9;" horiz-adv-x="1411" d="M152 317q0 61 16 138l190 897h154l-176 -828q-18 -84 -19 -147q0 -141 78 -203.5t219 -62.5q172 0 291 96t166 317l176 828h144l-191 -897q-23 -100 -72 -187.5t-125.5 -152t-181 -101.5t-235.5 -37q-119 0 -201 26t-134 71t-75.5 107.5t-23.5 135.5zM688 1639.5v11.5 q0 35 23.5 59.5t64.5 26.5l328 -205v-14l-19 -41l-18 -7l-377 158q-2 4 -2 11.5z" />
<glyph unicode="&#xda;" horiz-adv-x="1411" d="M152 317q0 61 16 138l190 897h154l-176 -828q-18 -84 -19 -147q0 -141 78 -203.5t219 -62.5q172 0 291 96t166 317l176 828h144l-191 -897q-23 -100 -72 -187.5t-125.5 -152t-181 -101.5t-235.5 -37q-119 0 -201 26t-134 71t-75.5 107.5t-23.5 135.5zM715 1518l10 14 l414 205q59 -4 59 -56q0 -20 -6 -31.5t-12 -21.5l-447 -158l-14 7z" />
<glyph unicode="&#xdb;" horiz-adv-x="1411" d="M152 317q0 61 16 138l190 897h154l-176 -828q-18 -84 -19 -147q0 -141 78 -203.5t219 -62.5q172 0 291 96t166 317l176 828h144l-191 -897q-23 -100 -72 -187.5t-125.5 -152t-181 -101.5t-235.5 -37q-119 0 -201 26t-134 71t-75.5 107.5t-23.5 135.5zM662 1466v41l8 15 l270 202h14l185 -202v-15l-19 -41l-18 -6l-184 127l-240 -127z" />
<glyph unicode="&#xdc;" horiz-adv-x="1411" d="M152 317q0 61 16 138l190 897h154l-176 -828q-18 -84 -19 -147q0 -141 78 -203.5t219 -62.5q172 0 291 96t166 317l176 828h144l-191 -897q-23 -100 -72 -187.5t-125.5 -152t-181 -101.5t-235.5 -37q-119 0 -201 26t-134 71t-75.5 107.5t-23.5 135.5zM709 1610 q0 41 32.5 74.5t73.5 33.5q29 0 48.5 -22.5t19.5 -55.5q0 -43 -34 -73.5t-73 -30.5q-31 0 -49 20.5t-18 53.5zM1030 1610q0 41 33 74.5t74 33.5q29 0 48 -22.5t19 -55.5q0 -43 -33.5 -73.5t-72.5 -30.5q-31 0 -49.5 20.5t-18.5 53.5z" />
<glyph unicode="&#xdd;" horiz-adv-x="1157" d="M139 1352h183l290 -650l551 650h178l-692 -797l-117 -555h-153l115 547zM637 1518l10 14l412 205q59 -4 59 -56q0 -20 -16 -53l-449 -158l-14 7z" />
<glyph unicode="&#xde;" horiz-adv-x="1069" d="M86 0l287 1352h143l-55 -260q41 2 83 3t68 1q193 0 299.5 -84t106.5 -244q0 -90 -32 -177t-100.5 -155.5t-176 -110.5t-260.5 -42q-29 0 -73 1t-85 5l-62 -289h-143zM319 426q39 -4 82 -6t68 -2q201 0 290 93t89 255q0 92 -58.5 143.5t-201.5 51.5q-27 0 -72 -1.5 t-84 -3.5z" />
<glyph unicode="&#xdf;" horiz-adv-x="1110" d="M39 0l211 995q25 115 68.5 209t105 162t140.5 104.5t173 36.5q68 0 119 -19.5t87 -51t54.5 -74.5t18.5 -90q0 -82 -48 -149.5t-105.5 -126t-105.5 -110.5t-48 -106q0 -35 21.5 -63.5t52 -56t68.5 -57.5t68.5 -66.5t52 -83.5t21.5 -111q0 -98 -41 -168t-99 -114 t-124.5 -64.5t-118.5 -20.5q-68 0 -119 28t-79 63l71 145q16 -61 63.5 -95t102.5 -34q37 0 70 15.5t59.5 44t42 71.5t15.5 98q0 82 -42 131.5t-92.5 90t-92.5 87t-42 121.5q0 59 21.5 107.5t54.5 88.5t71 77t70.5 72.5t54 75.5t21.5 87q0 53 -39 93t-119 40 q-74 0 -126 -32.5t-86.5 -86t-57 -124t-39.5 -144.5l-211 -995h-143z" />
<glyph unicode="&#xe0;" d="M66 350q0 117 37.5 228.5t110.5 198.5t176.5 141.5t234.5 54.5q137 0 212.5 -59.5t84.5 -147.5l65 176h113l-199 -942h-113l21 168h-8q-66 -76 -172.5 -134.5t-237.5 -58.5q-84 0 -145.5 30t-101.5 81t-59 119.5t-19 144.5zM217 362q0 -51 11.5 -99t37 -85t66.5 -59.5 t100 -22.5q98 0 205.5 53.5t185.5 153.5l64 301q-12 117 -85 182.5t-181 65.5q-86 0 -161 -39t-128 -104.5t-84 -155.5t-31 -191zM489 1282q0 47 19.5 78t69.5 33l325 -207l4 -15l-20 -41l-17 -6z" />
<glyph unicode="&#xe1;" d="M66 350q0 117 37.5 228.5t110.5 198.5t176.5 141.5t234.5 54.5q137 0 212.5 -59.5t84.5 -147.5l65 176h113l-199 -942h-113l21 168h-8q-66 -76 -172.5 -134.5t-237.5 -58.5q-84 0 -145.5 30t-101.5 81t-59 119.5t-19 144.5zM217 362q0 -51 11.5 -99t37 -85t66.5 -59.5 t100 -22.5q98 0 205.5 53.5t185.5 153.5l64 301q-12 117 -85 182.5t-181 65.5q-86 0 -161 -39t-128 -104.5t-84 -155.5t-31 -191zM612 1130v41l9 15l411 207q31 -2 46.5 -18.5t15.5 -39.5t-19 -53l-446 -158z" />
<glyph unicode="&#xe2;" d="M66 350q0 117 37.5 228.5t110.5 198.5t176.5 141.5t234.5 54.5q137 0 212.5 -59.5t84.5 -147.5l65 176h113l-199 -942h-113l21 168h-8q-66 -76 -172.5 -134.5t-237.5 -58.5q-84 0 -145.5 30t-101.5 81t-59 119.5t-19 144.5zM217 362q0 -51 11.5 -99t37 -85t66.5 -59.5 t100 -22.5q98 0 205.5 53.5t185.5 153.5l64 301q-12 117 -85 182.5t-181 65.5q-86 0 -161 -39t-128 -104.5t-84 -155.5t-31 -191zM494 1161l10 15l268 202h16l183 -202l2 -15l-21 -39l-14 -6l-186 125l-238 -125l-16 6z" />
<glyph unicode="&#xe3;" d="M66 350q0 117 37.5 228.5t110.5 198.5t176.5 141.5t234.5 54.5q137 0 212.5 -59.5t84.5 -147.5l65 176h113l-199 -942h-113l21 168h-8q-66 -76 -172.5 -134.5t-237.5 -58.5q-84 0 -145.5 30t-101.5 81t-59 119.5t-19 144.5zM217 362q0 -51 11.5 -99t37 -85t66.5 -59.5 t100 -22.5q98 0 205.5 53.5t185.5 153.5l64 301q-12 117 -85 182.5t-181 65.5q-86 0 -161 -39t-128 -104.5t-84 -155.5t-31 -191zM432 1194q2 14 20.5 41t48 52.5t68.5 44t82 18.5q53 0 132 -9.5t169 -9.5q35 0 73 8.5t73 44.5l20 -16q-2 -6 -17.5 -31.5t-43 -53.5 t-65.5 -50.5t-87 -22.5q-23 0 -63.5 3.5t-88.5 6.5t-95.5 6t-79.5 3q-51 0 -74 -13.5t-49 -37.5z" />
<glyph unicode="&#xe4;" d="M66 350q0 117 37.5 228.5t110.5 198.5t176.5 141.5t234.5 54.5q137 0 212.5 -59.5t84.5 -147.5l65 176h113l-199 -942h-113l21 168h-8q-66 -76 -172.5 -134.5t-237.5 -58.5q-84 0 -145.5 30t-101.5 81t-59 119.5t-19 144.5zM217 362q0 -51 11.5 -99t37 -85t66.5 -59.5 t100 -22.5q98 0 205.5 53.5t185.5 153.5l64 301q-12 117 -85 182.5t-181 65.5q-86 0 -161 -39t-128 -104.5t-84 -155.5t-31 -191zM532 1266q0 41 33 74.5t74 33.5q29 0 47.5 -22.5t18.5 -53.5q0 -45 -35 -75.5t-70 -30.5q-31 0 -49.5 20.5t-18.5 53.5zM854 1264 q0 43 33 76.5t71 33.5q29 0 48.5 -22.5t19.5 -55.5q0 -43 -34 -73.5t-72 -30.5q-29 0 -47.5 20.5t-18.5 51.5z" />
<glyph unicode="&#xe5;" d="M66 350q0 117 37.5 228.5t110.5 198.5t176.5 141.5t234.5 54.5q137 0 212.5 -59.5t84.5 -147.5l65 176h113l-199 -942h-113l21 168h-8q-66 -76 -172.5 -134.5t-237.5 -58.5q-84 0 -145.5 30t-101.5 81t-59 119.5t-19 144.5zM217 362q0 -51 11.5 -99t37 -85t66.5 -59.5 t100 -22.5q98 0 205.5 53.5t185.5 153.5l64 301q-12 117 -85 182.5t-181 65.5q-86 0 -161 -39t-128 -104.5t-84 -155.5t-31 -191zM610 1227q0 31 15.5 61.5t42 55t64.5 40t81 15.5q70 0 105.5 -40t35.5 -89q0 -31 -14 -60.5t-41 -54.5t-64.5 -39t-82.5 -14q-74 0 -108 39 t-34 86zM688 1235q0 -33 19.5 -58.5t54.5 -25.5q47 0 79.5 36t32.5 77q0 33 -18 59.5t-55 26.5q-49 0 -81 -38t-32 -77z" />
<glyph unicode="&#xe6;" horiz-adv-x="1673" d="M8 190q0 92 33 158t86 112t120.5 72.5t138.5 42t137.5 19.5t119.5 4h92l6 25q4 23 7.5 39t3.5 32q0 41 -15.5 69t-40.5 48q-31 23 -68.5 32t-103.5 9q-86 0 -155.5 -22.5t-139.5 -59.5l-6 123q154 80 344 80q76 0 141.5 -13.5t108.5 -46.5q23 -16 40 -44.5t22 -57.5h8 q74 70 180.5 116t222.5 46q154 0 234 -71t80 -200q0 -59 -18.5 -117.5t-37.5 -82.5h-690l-8 -37q-12 -55 -12 -105q0 -117 64.5 -196.5t201.5 -79.5q49 0 98 10t95 25.5t86 35t73 40.5l4 -109q-31 -16 -74 -35.5t-94 -36t-109.5 -28t-119.5 -11.5q-137 0 -223 56.5 t-125 148.5h-8q-106 -113 -234.5 -159t-245.5 -46q-111 0 -165 61.5t-54 153.5zM164 221q0 -59 35 -92t98 -33q41 0 90 13.5t99.5 40t98.5 65.5t87 88l41 191h-19q-92 0 -186 -8.5t-171 -36t-125 -82t-48 -146.5zM895 610h559q4 10 10 23.5t6 50.5q0 86 -61 130t-149 44 q-135 0 -225.5 -70.5t-139.5 -177.5z" />
<glyph unicode="&#xe7;" horiz-adv-x="1024" d="M70 369q0 111 36.5 219t112.5 193t190.5 138.5t268.5 53.5q98 0 187 -22.5t139 -59.5l-62 -121q-39 35 -121 62.5t-170 27.5q-109 0 -188.5 -41t-131.5 -107.5t-78 -148.5t-26 -164q0 -63 16.5 -119.5t50.5 -99.5t85 -67.5t123 -24.5q82 0 173 32t161 85l6 -127 q-61 -35 -160.5 -66.5t-208.5 -36.5l-65 -79q18 4 36.5 6t32.5 2q61 0 97 -34t36 -87q0 -39 -21.5 -75t-57 -63.5t-84 -44t-101.5 -16.5q-49 0 -96 11.5t-82 27.5l2 12l37 48h14q23 -10 58.5 -17.5t76.5 -7.5q53 0 91 21.5t38 82.5q0 41 -25.5 56.5t-62.5 15.5 q-25 0 -51.5 -4t-50.5 -10l-12 22l116 135q-86 8 -147.5 42t-102 86.5t-60 120t-19.5 143.5z" />
<glyph unicode="&#xe8;" horiz-adv-x="1054" d="M66 369q0 115 43 223t122.5 193t191.5 136.5t249 51.5q154 0 233.5 -71t79.5 -200q0 -59 -18.5 -117.5t-36.5 -82.5h-697q-12 -59 -12 -117q0 -61 15.5 -115.5t47 -95.5t82 -65.5t117.5 -24.5q98 0 193.5 35t161.5 76l4 -109q-31 -16 -74 -35.5t-94 -36t-109.5 -28 t-120.5 -11.5q-96 0 -166.5 32t-117.5 85t-70.5 125t-23.5 152zM268 610h568q4 10 9 23.5t5 50.5q0 86 -61.5 130t-147.5 44q-141 0 -233.5 -71.5t-139.5 -176.5zM444 1282q0 47 19.5 78t68.5 33l326 -207l2 -15l-18 -41l-19 -6z" />
<glyph unicode="&#xe9;" horiz-adv-x="1054" d="M66 369q0 115 43 223t122.5 193t191.5 136.5t249 51.5q154 0 233.5 -71t79.5 -200q0 -59 -18.5 -117.5t-36.5 -82.5h-697q-12 -59 -12 -117q0 -61 15.5 -115.5t47 -95.5t82 -65.5t117.5 -24.5q98 0 193.5 35t161.5 76l4 -109q-31 -16 -74 -35.5t-94 -36t-109.5 -28 t-120.5 -11.5q-96 0 -166.5 32t-117.5 85t-70.5 125t-23.5 152zM268 610h568q4 10 9 23.5t5 50.5q0 86 -61.5 130t-147.5 44q-141 0 -233.5 -71.5t-139.5 -176.5zM526 1171l11 15l411 207q31 -2 45.5 -18.5t14.5 -39.5q0 -18 -5.5 -30.5t-11.5 -22.5l-448 -158l-13 6z" />
<glyph unicode="&#xea;" horiz-adv-x="1054" d="M66 369q0 115 43 223t122.5 193t191.5 136.5t249 51.5q154 0 233.5 -71t79.5 -200q0 -59 -18.5 -117.5t-36.5 -82.5h-697q-12 -59 -12 -117q0 -61 15.5 -115.5t47 -95.5t82 -65.5t117.5 -24.5q98 0 193.5 35t161.5 76l4 -109q-31 -16 -74 -35.5t-94 -36t-109.5 -28 t-120.5 -11.5q-96 0 -166.5 32t-117.5 85t-70.5 125t-23.5 152zM268 610h568q4 10 9 23.5t5 50.5q0 86 -61.5 130t-147.5 44q-141 0 -233.5 -71.5t-139.5 -176.5zM446 1161l9 15l270 202h14l185 -202v-15l-19 -39l-16 -6l-184 125l-240 -125l-16 6z" />
<glyph unicode="&#xeb;" horiz-adv-x="1054" d="M66 369q0 115 43 223t122.5 193t191.5 136.5t249 51.5q154 0 233.5 -71t79.5 -200q0 -59 -18.5 -117.5t-36.5 -82.5h-697q-12 -59 -12 -117q0 -61 15.5 -115.5t47 -95.5t82 -65.5t117.5 -24.5q98 0 193.5 35t161.5 76l4 -109q-31 -16 -74 -35.5t-94 -36t-109.5 -28 t-120.5 -11.5q-96 0 -166.5 32t-117.5 85t-70.5 125t-23.5 152zM268 610h568q4 10 9 23.5t5 50.5q0 86 -61.5 130t-147.5 44q-141 0 -233.5 -71.5t-139.5 -176.5zM459 1266q0 41 31.5 74.5t72.5 33.5q29 0 49.5 -22.5t20.5 -55.5q0 -43 -35 -73.5t-74 -30.5q-29 0 -47 20.5 t-18 53.5zM780 1266q0 41 32 74.5t73 33.5q29 0 49 -22.5t20 -55.5q0 -43 -34.5 -73.5t-73.5 -30.5q-29 0 -47.5 20.5t-18.5 53.5z" />
<glyph unicode="&#xec;" horiz-adv-x="458" d="M39 0l201 942h143l-201 -942h-143zM88 1293v12q0 35 23.5 60.5t66.5 27.5l326 -207l4 -15l-23 -41l-16 -6l-379 158q-2 4 -2 11z" />
<glyph unicode="&#xed;" horiz-adv-x="458" d="M39 0l201 942h143l-201 -942h-143zM160 1171l8 15l414 207q29 -2 44 -18.5t15 -39.5t-18 -53l-447 -158l-14 6z" />
<glyph unicode="&#xee;" horiz-adv-x="458" d="M39 0l201 942h143l-201 -942h-143zM113 1161l8 15l268 202h17l182 -202l4 -15l-23 -39l-14 -6l-186 125l-238 -125l-16 6z" />
<glyph unicode="&#xef;" horiz-adv-x="458" d="M39 0l201 942h143l-201 -942h-143zM133 1266q0 41 33 74.5t74 33.5q29 0 48 -22.5t19 -55.5q0 -43 -33.5 -73.5t-72.5 -30.5q-31 0 -49.5 20.5t-18.5 53.5zM455 1266q0 41 32.5 74.5t73.5 33.5q29 0 48.5 -22.5t19.5 -55.5q0 -43 -34 -73.5t-73 -30.5q-31 0 -49 20.5 t-18 53.5z" />
<glyph unicode="&#xf0;" horiz-adv-x="1181" d="M70 369q0 111 36.5 219t111.5 194t186.5 138.5t261.5 52.5q113 0 193.5 -38t103.5 -124l6 2q-2 123 -11.5 216t-29.5 171l-271 -65l-14 94l254 63q-23 59 -56.5 112.5t-78.5 111.5h149q31 -35 56.5 -84.5t48.5 -110.5l258 65l16 -98l-248 -61q23 -86 33 -178.5t10 -188.5 q0 -84 -10 -182t-36.5 -196.5t-71.5 -189.5t-116 -162t-169 -113t-231 -42q-104 0 -176 33t-118 87.5t-66.5 125t-20.5 148.5zM225 383q0 -59 14.5 -113.5t44 -95.5t76.5 -65.5t113 -24.5q102 0 181 46t133.5 117.5t82 160t27.5 174.5q0 137 -70.5 207.5t-191.5 70.5 q-109 0 -185.5 -44t-127 -113.5t-74 -153.5t-23.5 -166z" />
<glyph unicode="&#xf1;" horiz-adv-x="1112" d="M39 0l201 942h112l-22 -176h8q45 86 150.5 146.5t242.5 60.5q55 0 103.5 -12.5t83 -39t55 -69.5t20.5 -107q0 -47 -12 -104l-137 -641h-144l134 623q8 39 8 77q0 82 -43 117t-115 35q-51 0 -104.5 -16.5t-102.5 -48t-92 -77.5t-74 -106l-129 -604h-143zM379 1194 q14 27 34.5 55.5t46 50t60.5 36t78 14.5q51 0 88 -4.5t68.5 -10.5t61.5 -10t69 -4q35 0 72.5 8t72.5 45l21 -16q-12 -29 -32 -56.5t-45.5 -50t-59 -37t-76.5 -14.5q-82 0 -164 14.5t-148 14.5q-51 0 -74.5 -13.5t-50.5 -37.5z" />
<glyph unicode="&#xf2;" horiz-adv-x="1155" d="M68 367q0 113 38.5 221t113.5 194t187 138.5t257 52.5q102 0 174.5 -32t120 -86t69 -125t21.5 -150q0 -115 -37 -223.5t-111 -192.5t-184.5 -136.5t-257.5 -52.5q-102 0 -177 31t-122 85t-69.5 125t-22.5 151zM221 383q0 -59 14.5 -113.5t46 -95.5t80.5 -65.5t119 -24.5 q102 0 179 42t129.5 109.5t78 152.5t25.5 171q0 61 -14.5 115.5t-46 95.5t-81 64.5t-118.5 23.5q-102 0 -180 -42t-129.5 -109.5t-77 -152.5t-25.5 -171zM440 1293v12q0 35 24.5 60.5t63.5 27.5l328 -207l2 -15l-20 -41l-15 -6l-381 158q-2 4 -2 11z" />
<glyph unicode="&#xf3;" horiz-adv-x="1155" d="M68 367q0 113 38.5 221t113.5 194t187 138.5t257 52.5q102 0 174.5 -32t120 -86t69 -125t21.5 -150q0 -115 -37 -223.5t-111 -192.5t-184.5 -136.5t-257.5 -52.5q-102 0 -177 31t-122 85t-69.5 125t-22.5 151zM221 383q0 -59 14.5 -113.5t46 -95.5t80.5 -65.5t119 -24.5 q102 0 179 42t129.5 109.5t78 152.5t25.5 171q0 61 -14.5 115.5t-46 95.5t-81 64.5t-118.5 23.5q-102 0 -180 -42t-129.5 -109.5t-77 -152.5t-25.5 -171zM541 1171l10 15l412 207q31 -2 46 -18.5t15 -39.5t-18 -53l-447 -158l-14 6z" />
<glyph unicode="&#xf4;" horiz-adv-x="1155" d="M68 367q0 113 38.5 221t113.5 194t187 138.5t257 52.5q102 0 174.5 -32t120 -86t69 -125t21.5 -150q0 -115 -37 -223.5t-111 -192.5t-184.5 -136.5t-257.5 -52.5q-102 0 -177 31t-122 85t-69.5 125t-22.5 151zM221 383q0 -59 14.5 -113.5t46 -95.5t80.5 -65.5t119 -24.5 q102 0 179 42t129.5 109.5t78 152.5t25.5 171q0 61 -14.5 115.5t-46 95.5t-81 64.5t-118.5 23.5q-102 0 -180 -42t-129.5 -109.5t-77 -152.5t-25.5 -171zM479 1161l10 15l271 202h14l182 -202l2 -15l-18 -39l-16 -6l-187 125l-237 -125l-17 6z" />
<glyph unicode="&#xf5;" horiz-adv-x="1155" d="M68 367q0 113 38.5 221t113.5 194t187 138.5t257 52.5q102 0 174.5 -32t120 -86t69 -125t21.5 -150q0 -115 -37 -223.5t-111 -192.5t-184.5 -136.5t-257.5 -52.5q-102 0 -177 31t-122 85t-69.5 125t-22.5 151zM221 383q0 -59 14.5 -113.5t46 -95.5t80.5 -65.5t119 -24.5 q102 0 179 42t129.5 109.5t78 152.5t25.5 171q0 61 -14.5 115.5t-46 95.5t-81 64.5t-118.5 23.5q-102 0 -180 -42t-129.5 -109.5t-77 -152.5t-25.5 -171zM375 1194q14 27 33.5 55.5t46 50t61.5 36t78 14.5q51 0 88 -4.5t68.5 -10.5t61.5 -10t69 -4q35 0 71.5 8t73.5 45 l21 -16q-12 -29 -32 -56.5t-46.5 -50t-60.5 -37t-77 -14.5q-82 0 -163.5 14.5t-147.5 14.5q-51 0 -73.5 -13.5t-49.5 -37.5z" />
<glyph unicode="&#xf6;" horiz-adv-x="1155" d="M68 367q0 113 38.5 221t113.5 194t187 138.5t257 52.5q102 0 174.5 -32t120 -86t69 -125t21.5 -150q0 -115 -37 -223.5t-111 -192.5t-184.5 -136.5t-257.5 -52.5q-102 0 -177 31t-122 85t-69.5 125t-22.5 151zM221 383q0 -59 14.5 -113.5t46 -95.5t80.5 -65.5t119 -24.5 q102 0 179 42t129.5 109.5t78 152.5t25.5 171q0 61 -14.5 115.5t-46 95.5t-81 64.5t-118.5 23.5q-102 0 -180 -42t-129.5 -109.5t-77 -152.5t-25.5 -171zM483 1266q0 41 33 74.5t74 33.5q29 0 48 -22.5t19 -55.5q0 -43 -33.5 -73.5t-72.5 -30.5q-31 0 -49.5 20.5t-18.5 53.5 zM805 1266q0 41 32.5 74.5t73.5 33.5q29 0 48.5 -22.5t19.5 -55.5q0 -43 -34 -73.5t-73 -30.5q-31 0 -49 20.5t-18 53.5z" />
<glyph unicode="&#xf7;" horiz-adv-x="1150" d="M127 436l23 107h847l-22 -107h-848zM418 147q0 45 37 79t82 34q33 0 55 -23.5t22 -58.5q0 -23 -11 -42t-27.5 -34.5t-38 -24.5t-41.5 -9q-35 0 -56.5 22t-21.5 57zM555 797q0 43 37 78.5t82 35.5q33 0 55.5 -24.5t22.5 -59.5q0 -23 -11.5 -42t-28 -33.5t-38 -23.5 t-41.5 -9q-35 0 -56.5 22.5t-21.5 55.5z" />
<glyph unicode="&#xf8;" horiz-adv-x="1155" d="M-29 16l148 136q-51 90 -51 215q0 113 38.5 221t113.5 194t186.5 138.5t257.5 52.5q86 0 149.5 -22.5t110.5 -61.5l133 123l88 -80l-148 -135q27 -47 39.5 -102.5t12.5 -114.5q0 -115 -37 -223.5t-111 -192.5t-184.5 -136.5t-255.5 -52.5q-88 0 -153.5 21.5t-112.5 62.5 l-144 -131zM223 383q0 -33 3 -62.5t14 -58.5l575 526q-33 33 -78 51.5t-104 18.5q-102 0 -179 -42t-128.5 -109.5t-77 -152.5t-25.5 -171zM299 154q31 -33 76 -51.5t106 -18.5q102 0 179 42t129.5 109.5t79 152.5t26.5 171q0 66 -18 125z" />
<glyph unicode="&#xf9;" horiz-adv-x="1110" d="M82 197q0 45 12 104l137 641h144l-133 -623q-4 -23 -7.5 -42t-3.5 -35q0 -82 44 -114t114 -32q104 0 207.5 61.5t167.5 180.5l127 604h143l-200 -942h-113l22 176h-8q-45 -86 -149.5 -143.5t-241.5 -57.5q-55 0 -103 11.5t-83 37t-55.5 68.5t-20.5 105zM422 1293v12 q0 35 23.5 60.5t64.5 27.5l326 -207l2 -15l-19 -41l-18 -6l-377 158q-2 4 -2 11z" />
<glyph unicode="&#xfa;" horiz-adv-x="1110" d="M82 197q0 45 12 104l137 641h144l-133 -623q-4 -23 -7.5 -42t-3.5 -35q0 -82 44 -114t114 -32q104 0 207.5 61.5t167.5 180.5l127 604h143l-200 -942h-113l22 176h-8q-45 -86 -149.5 -143.5t-241.5 -57.5q-55 0 -103 11.5t-83 37t-55.5 68.5t-20.5 105zM469 1130v41 l10 15l412 207q29 -2 44 -18.5t15 -39.5q0 -12 -5 -25.5t-11 -27.5l-449 -158z" />
<glyph unicode="&#xfb;" horiz-adv-x="1110" d="M82 197q0 45 12 104l137 641h144l-133 -623q-4 -23 -7.5 -42t-3.5 -35q0 -82 44 -114t114 -32q104 0 207.5 61.5t167.5 180.5l127 604h143l-200 -942h-113l22 176h-8q-45 -86 -149.5 -143.5t-241.5 -57.5q-55 0 -103 11.5t-83 37t-55.5 68.5t-20.5 105zM434 1122v39l6 15 l273 202h14l182 -202l2 -15l-18 -39l-19 -6l-186 125l-237 -125z" />
<glyph unicode="&#xfc;" horiz-adv-x="1110" d="M82 197q0 45 12 104l137 641h144l-133 -623q-4 -23 -7.5 -42t-3.5 -35q0 -82 44 -114t114 -32q104 0 207.5 61.5t167.5 180.5l127 604h143l-200 -942h-113l22 176h-8q-45 -86 -149.5 -143.5t-241.5 -57.5q-55 0 -103 11.5t-83 37t-55.5 68.5t-20.5 105zM449 1266 q0 41 32.5 74.5t73.5 33.5q29 0 49.5 -22.5t20.5 -55.5q0 -43 -35 -73.5t-74 -30.5q-31 0 -49 20.5t-18 53.5zM770 1266q0 41 33 74.5t74 33.5q29 0 49 -22.5t20 -55.5q0 -43 -34.5 -73.5t-73.5 -30.5q-31 0 -49.5 20.5t-18.5 53.5z" />
<glyph unicode="&#xfd;" horiz-adv-x="1060" d="M-158 -383q6 -2 13.5 -4t27.5 -2q41 0 79 8t79 33q84 51 162 149.5t153 229.5l-276 911h170l207 -784l504 784h161l-635 -950q-43 -66 -105.5 -155t-140 -169t-168.5 -136t-192 -56q-16 0 -23.5 1t-15.5 5v135zM522 1171l10 15l412 207q31 -2 45.5 -18.5t14.5 -39.5 q0 -18 -5.5 -30.5t-11.5 -22.5l-448 -158l-13 6z" />
<glyph unicode="&#xfe;" horiz-adv-x="1179" d="M-74 -532l436 2048h144l-160 -750q29 35 72 71.5t95 66.5t112.5 49.5t126.5 19.5q84 0 145 -30t101 -81t59.5 -119.5t19.5 -144.5q0 -117 -39 -228.5t-110.5 -198.5t-175 -141.5t-234.5 -54.5q-137 0 -213 59.5t-84 147.5l-151 -714h-144zM256 344q6 -59 31.5 -104 t63.5 -78t87 -49.5t103 -16.5q88 0 158.5 40t119.5 106.5t76 151.5t27 175q0 57 -13.5 108.5t-41 90.5t-72 61.5t-105.5 22.5q-98 0 -195.5 -53.5t-175.5 -153.5z" />
<glyph unicode="&#xff;" horiz-adv-x="1060" d="M-158 -383q6 -2 13.5 -4t27.5 -2q41 0 79 8t79 33q84 51 162 149.5t153 229.5l-276 911h170l207 -784l504 784h161l-635 -950q-43 -66 -105.5 -155t-140 -169t-168.5 -136t-192 -56q-16 0 -23.5 1t-15.5 5v135zM426 1266q0 41 31.5 74.5t72.5 33.5q29 0 49.5 -22.5 t20.5 -55.5q0 -43 -35 -73.5t-73 -30.5q-29 0 -47.5 20.5t-18.5 53.5zM748 1266q0 41 31.5 74.5t72.5 33.5q29 0 49.5 -22.5t20.5 -55.5q0 -43 -35 -73.5t-74 -30.5q-29 0 -47 20.5t-18 53.5z" />
<glyph unicode="&#x152;" horiz-adv-x="1753" d="M123 510q0 168 59.5 321.5t169 271.5t262 188.5t338.5 70.5q39 0 75 -3t71 -7h702l-31 -144h-548l-91 -420h412l-31 -143h-411l-107 -502h590l-31 -143h-708q-92 -25 -201 -25q-135 0 -233.5 42t-162 115t-94 170t-30.5 208zM295 518q0 -199 96.5 -303t284.5 -104 q88 0 162 18l229 1079q-68 18 -149 19q-176 0 -295 -61.5t-192 -161t-104.5 -227.5t-31.5 -259z" />
<glyph unicode="&#x153;" horiz-adv-x="1865" d="M68 365q0 113 38.5 221t113.5 194t186.5 138.5t257.5 52.5q152 0 236.5 -60.5t119.5 -158.5q80 98 198 158.5t265 60.5q154 0 233.5 -71t79.5 -200q0 -59 -18.5 -117.5t-36.5 -82.5h-690l-4 -21q-12 -59 -13 -114q0 -59 15.5 -110.5t47 -90.5t81 -60.5t118.5 -21.5 q49 0 98.5 10t95.5 25.5t86 35t73 40.5l4 -109q-31 -16 -74 -35.5t-94 -36t-109.5 -28t-120.5 -11.5q-139 0 -228 57.5t-126 151.5q-74 -94 -183.5 -151.5t-258.5 -57.5q-102 0 -177 31t-122 85t-69.5 125t-22.5 151zM221 381q0 -59 14.5 -113.5t46 -95.5t80.5 -65.5 t119 -24.5q102 0 179 42t129.5 109.5t78 152.5t25.5 171q0 61 -14.5 115.5t-46 95.5t-81 64.5t-118.5 23.5q-102 0 -180 -42t-129.5 -109.5t-77 -152.5t-25.5 -171zM1087 608h560q4 10 10 23.5t6 50.5q0 86 -61.5 130t-149.5 44q-135 0 -225 -70.5t-140 -177.5z" />
<glyph unicode="&#x178;" horiz-adv-x="1157" d="M139 1352h183l290 -650l551 650h178l-692 -797l-117 -555h-153l115 547zM559 1610q0 41 33 74.5t74 33.5q29 0 47 -22.5t18 -53.5q0 -45 -33.5 -75.5t-70.5 -30.5q-31 0 -49.5 20.5t-18.5 53.5zM881 1608q0 43 32.5 76.5t71.5 33.5q29 0 48.5 -22.5t19.5 -55.5 q0 -43 -34 -73.5t-73 -30.5q-29 0 -47 20.5t-18 51.5z" />
<glyph unicode="&#x2c6;" horiz-adv-x="479" d="M248 1161l8 15l270 202h17l180 -202l4 -15l-20 -39l-17 -6l-186 125l-240 -125l-12 6z" />
<glyph unicode="&#x2dc;" horiz-adv-x="636" d="M254 1194q14 27 33.5 55.5t46 50t61.5 36t78 14.5q51 0 88 -4.5t69 -10.5t61.5 -10t68.5 -4q35 0 72.5 8t72.5 45l21 -16q-25 -57 -77 -107.5t-136 -50.5q-82 0 -164 14.5t-148 14.5q-51 0 -74.5 -13.5t-50.5 -37.5z" />
<glyph unicode="&#x2000;" horiz-adv-x="868" />
<glyph unicode="&#x2001;" horiz-adv-x="1737" />
<glyph unicode="&#x2002;" horiz-adv-x="868" />
<glyph unicode="&#x2003;" horiz-adv-x="1737" />
<glyph unicode="&#x2004;" horiz-adv-x="579" />
<glyph unicode="&#x2005;" horiz-adv-x="434" />
<glyph unicode="&#x2006;" horiz-adv-x="289" />
<glyph unicode="&#x2007;" horiz-adv-x="289" />
<glyph unicode="&#x2008;" horiz-adv-x="217" />
<glyph unicode="&#x2009;" horiz-adv-x="347" />
<glyph unicode="&#x200a;" horiz-adv-x="96" />
<glyph unicode="&#x2010;" horiz-adv-x="995" d="M125 436l22 107h693l-23 -107h-692z" />
<glyph unicode="&#x2011;" horiz-adv-x="995" d="M125 436l22 107h693l-23 -107h-692z" />
<glyph unicode="&#x2012;" horiz-adv-x="995" d="M125 436l22 107h693l-23 -107h-692z" />
<glyph unicode="&#x2013;" horiz-adv-x="1150" d="M125 436l22 107h848l-22 -107h-848z" />
<glyph unicode="&#x2014;" horiz-adv-x="1617" d="M125 436l22 107h1315l-22 -107h-1315z" />
<glyph unicode="&#x2018;" horiz-adv-x="456" d="M266 1130l45 216l185 157l32 -39l-112 -149h51l-39 -185h-162z" />
<glyph unicode="&#x2019;" horiz-adv-x="419" d="M250 1169l112 150h-51l39 184h162l-47 -215l-182 -158z" />
<glyph unicode="&#x201a;" horiz-adv-x="491" d="M-12 -160l112 150h-51l39 184h162l-47 -215l-183 -158z" />
<glyph unicode="&#x201c;" horiz-adv-x="763" d="M266 1130l45 216l185 157l32 -39l-112 -149h51l-39 -185h-162zM573 1130l45 216l185 157l33 -39l-113 -149h51l-39 -185h-162z" />
<glyph unicode="&#x201d;" horiz-adv-x="727" d="M250 1169l112 150h-51l39 184h162l-47 -215l-182 -158zM557 1169l113 150h-52l39 184h162l-47 -215l-182 -158z" />
<glyph unicode="&#x201e;" horiz-adv-x="821" d="M-12 -160l112 150h-51l39 184h162l-47 -215l-183 -158zM317 -160l113 150h-51l39 184h162l-48 -215l-182 -158z" />
<glyph unicode="&#x2022;" horiz-adv-x="677" d="M182 473q0 31 14.5 61.5t39 53t55.5 37t63 14.5q47 0 80 -36t33 -85q0 -33 -15.5 -61.5t-40 -50t-55 -34t-61.5 -12.5q-51 0 -82 33t-31 80z" />
<glyph unicode="&#x2026;" horiz-adv-x="1249" d="M45 55q0 43 37 79t82 36q35 0 56.5 -24.5t21.5 -59.5q0 -23 -11.5 -42t-28 -33.5t-38 -24t-41.5 -9.5q-35 0 -56.5 22.5t-21.5 55.5zM432 55q0 43 38 79t81 36q35 0 56.5 -24.5t21.5 -59.5q0 -23 -11.5 -42t-28 -33.5t-38 -24t-41.5 -9.5q-35 0 -56.5 22.5t-21.5 55.5z M819 55q0 43 38 79t81 36q35 0 56.5 -24.5t21.5 -59.5q0 -23 -11.5 -42t-27.5 -33.5t-37.5 -24t-42.5 -9.5q-35 0 -56.5 22.5t-21.5 55.5z" />
<glyph unicode="&#x202f;" horiz-adv-x="347" />
<glyph unicode="&#x2039;" horiz-adv-x="653" d="M88 487l2 11l352 362h162l-373 -362l-2 -11l217 -362h-163z" />
<glyph unicode="&#x203a;" horiz-adv-x="653" d="M20 125l373 362l2 11l-219 362h162l199 -362l-2 -11l-351 -362h-164z" />
<glyph unicode="&#x205f;" horiz-adv-x="434" />
<glyph unicode="&#x20ac;" horiz-adv-x="1267" d="M72 522l22 107h150q6 57 20 108h-147l22 107h158q41 111 105.5 205t150.5 163.5t190.5 109.5t227.5 40q92 0 183 -23.5t149 -64.5l-74 -148q-47 43 -121 72t-178 29q-109 0 -188.5 -33t-137 -86t-94.5 -121.5t-59 -142.5h546l-22 -107h-551q-6 -29 -9 -56.5t-5 -51.5h542 l-22 -107h-527v-35q0 -184 72 -280t213 -96q111 0 210 36.5t167 90.5l12 -138q-84 -49 -190.5 -87t-233.5 -38q-111 0 -189.5 40t-129.5 110t-76 162t-25 196v39h-161z" />
<glyph unicode="&#x2122;" horiz-adv-x="1404" d="M268 1257l17 80h440l-16 -80h-172l-107 -501h-96l106 501h-172zM678 756l123 581h98l96 -495l303 495h97l-123 -581h-80l90 428l-262 -428h-92l-80 430l-92 -430h-78z" />
<glyph unicode="&#x25fc;" horiz-adv-x="942" d="M0 0v942h942v-942h-942z" />
</font>
</defs>
</svg>
