<?xml version="1.0" encoding="utf-8"?>
<!-- Generator: Adobe Illustrator 16.0.0, SVG Export Plug-In . SVG Version: 6.00 Build 0)  -->
<!DOCTYPE svg PUBLIC "-//W3C//DTD SVG 1.1//EN" "http://www.w3.org/Graphics/SVG/1.1/DTD/svg11.dtd">
<svg version="1.1" id="Layer_1" xmlns="http://www.w3.org/2000/svg" xmlns:xlink="http://www.w3.org/1999/xlink" x="0px" y="0px"
	 width="100px" height="100px" viewBox="0 0 100 100" enable-background="new 0 0 100 100" xml:space="preserve">
<g id="Captions">
</g>
<g id="svg-brain">
	<path fill="#FAFAFA" d="M45.883,4.389c0.752,0.883,1.503,1.766,2.423,2.845c-0.443,0.063-0.75,0.045-1.002,0.155
		c-0.572,0.252-1.116,0.567-1.672,0.855c0.456,0.537,0.807,1.281,1.386,1.568c1.673,0.831,1.979,1.608,1.037,3.692
		c-0.293-0.112-0.6-0.222-0.899-0.345c-0.213-0.088-0.418-0.195-1.121-0.526c1.159,1.875,2.113,3.222,2.857,4.677
		c0.795,1.556,1.163,3.061-0.687,4.398c-0.639,0.462-0.965,1.717-0.974,2.614c-0.019,1.716,0.108,3.479,0.502,5.144
		c0.849,3.587-0.207,4.963-3.823,5.056c-3.015,0.078-5.996,0.548-8.556,2.293c0.039,0.195,0.077,0.389,0.116,0.583
		c1.588-0.255,3.171-0.596,4.771-0.743c1.361-0.125,2.995-0.491,4.053,0.085c1.39,0.757,2.888,2.162,3.334,3.6
		c0.602,1.942-0.207,4.042-2.064,5.303c-0.494,0.336-1.352,0.22-2.036,0.18c-1.699-0.097-3.418-0.521-5.08-0.348
		c-2.202,0.228-4.333,0.414-6.251-0.838c-3.839-2.506-4.309-6.377-1.207-9.763c1.083-1.182,2.306-2.236,3.466-3.35
		c-0.121-0.167-0.24-0.336-0.359-0.504c-0.82,0.403-1.633,0.821-2.463,1.205c-1.737,0.803-2.248,0.443-2.341-1.418
		c-0.183-3.655,2.064-5.728,4.756-7.544c0.662-0.446,1.317-0.901,1.978-1.602c-2.262,0.671-3.345-0.125-3.827-2.259
		c-0.504-2.225-0.16-3.886,1.842-5.035c1.529-0.875,3.293-1.339,4.866-1.953c-0.186-0.658-0.826-1.699-0.534-2.219
		c0.338-0.607,1.51-0.724,2.287-1.119c0.888-0.452,1.759-0.95,2.582-1.51c0.075-0.052-0.331-1.032-0.382-1.021
		c-0.963,0.226-1.973,0.408-2.833,0.864C39,7.953,38.109,8.752,37.146,9.422c-0.08,0.056-0.263-0.037-0.504-0.08
		c-0.14-1.478,0.204-2.692,1.72-3.336c1.388-0.589,2.781-1.169,4.171-1.753C43.65,4.3,44.767,4.345,45.883,4.389z"/>
	<path fill="#FAFAFA" d="M7.62,49.386c0.396-0.72,0.807-1.433,1.188-2.162c0.867-1.655,1.982-2.301,3.907-1.48
		c0.724,0.308,1.807-0.092,2.685-0.328c0.784-0.212,1.51-0.641,2.38-1.024c0.03,1.132,0.055,2.077,0.079,3.022
		c0.191,0.164,0.381,0.328,0.571,0.492c0.203-0.407,0.342-0.862,0.618-1.211c0.604-0.763,1.22-1.529,1.927-2.192
		c3.038-2.854,5.983-2.755,8.454,0.511c1.198,1.583,2.358,2.236,4.429,2.156c2.888-0.11,5.885,0.041,8.681,0.714
		c4.79,1.152,6.346,4.431,4.83,9.409c-1.532-0.668-3.055-1.335-4.576-1.999c-0.093,0.163-0.185,0.327-0.277,0.491
		c1.166,0.831,2.409,1.574,3.47,2.521c0.889,0.791,2.074,1.739,2.238,2.762c0.431,2.688,0.724,5.494,0.417,8.179
		c-0.285,2.489-2.689,3.12-4.732,1.597c-0.387-0.291-0.785-0.613-1.051-1.008c-1.196-1.77-2.57-3.179-4.895-3.393
		c-0.506-0.049-1.029-0.805-1.393-1.336c-1.997-2.92-3.842-5.949-5.974-8.764c-0.626-0.824-1.976-1.232-3.075-1.533
		c-1.799-0.49-3.681-0.67-5.499-1.1c-2.564-0.607-4.951-1.036-7.658,0.036c-3.599,1.423-4.875,0.803-6.844-1.853
		C7.553,51.059,7.586,50.223,7.62,49.386z"/>
	<path fill="#FAFAFA" d="M40.966,95.984c-1.738-0.683-3.458-1.418-5.221-2.032c-1.727-0.601-3.495-1.079-5.771-1.769
		c2.829-0.824,5-0.136,7.154,0.453c1.334,0.369,2.607,0.956,3.926,1.393c1.987,0.652,4.058-0.057,5.695-2.141
		c-0.878,0.203-1.433,0.368-2.002,0.452c-1.082,0.16-2.176,0.411-3.255,0.365c-1.377-0.06-3.252-0.243-3.176-1.912
		c0.045-1.009,1.456-2.332,2.561-2.835c2.055-0.936,4.334-1.37,6.83-2.104c-0.931,4.027-4.522,3.08-6.933,4.063
		c0.035,0.184,0.071,0.369,0.108,0.553c0.703-0.097,1.433-0.104,2.105-0.303c2.433-0.72,4.755-0.24,5.289,1.152
		c0.436,1.139-1.519,3.44-3.528,4.154c-0.562,0.198-1.127,0.396-1.69,0.592C42.361,96.041,41.664,96.012,40.966,95.984z"/>
	<path fill="#FAFAFA" d="M31.514,79.28c0.443,0.674,0.886,1.349,1.327,2.021c-3.564,1.453-5.886-0.459-7.795-6.242
		c-0.14,0.806-0.279,1.608-0.443,2.549c-2.403,0.332-5.018,0.312-6.78-1.455c-1.547-1.549-2.354-3.838-3.457-5.744
		c-0.141,0.263-0.447,0.841-0.748,1.402c-2.133-0.274-3.746-2.416-4.514-6.472c2.508,2.785,5.266,3.81,8.774,3.538
		c-0.507-0.482-0.85-1.013-1.333-1.229c-1.393-0.625-2.805-1.273-4.279-1.627c-1.583-0.379-2.173-1.285-2.267-2.989
		c2.979-0.28,5.416,0.78,7.812,2.265c2.743,1.7,2.33,4.564,2.563,7.227c0.188-0.015,0.376-0.028,0.565-0.043
		c0.28-0.603,0.458-1.287,0.865-1.789c0.56-0.693,1.312-1.77,1.941-1.741c0.925,0.036,1.976,0.747,2.682,1.46
		c0.812,0.82,1.197,2.054,1.972,2.925c0.674,0.757,1.554,1.457,2.484,1.832c2.462,0.993,4.989,1.836,7.52,2.642
		c0.553,0.178,1.233-0.045,1.855-0.461c-1.159-0.463-2.319-0.925-3.595-1.435c0.709-1.043,1.207-1.777,1.971-2.902
		c-0.875,0.3-1.37,0.419-1.815,0.636c-5.142,2.482-9.477-0.36-9.374-6.17c0.022-1.224,0.093-2.447,0.143-3.672
		c-0.23-0.035-0.459-0.07-0.688-0.104c-0.13,0.157-0.298,0.297-0.383,0.477c-0.525,1.072,0.151,3.028-1.858,2.997
		c-2.079-0.033-4.372-0.189-5.539-2.249c-0.977-1.725-1.504-3.704-2.233-5.569c-0.11-0.282-0.229-0.563-0.596-1.461
		c-0.354,1.674-0.574,2.715-0.792,3.74c-4.106,0.805-6.614-0.518-7.318-3.828c-0.374-1.762,0.141-2.24,1.966-2.328
		c1.501-0.073,3.039-0.297,4.466-0.75c2.74-0.869,6.024-0.521,9.809,1.328c-0.546,0.771-1.095,1.549-1.667,2.357
		c0.359,0.172,0.436,0.24,0.472,0.225c4.64-2.236,6.841-1.387,8.905,3.369c1.231,2.84,3.104,5.051,6.12,6.188
		c0.854,0.323,1.612,1.002,2.301,1.638c1.697,1.574,2.995,3.71,5.845,3.465c0.366-0.031,1.15,1.121,1.208,1.773
		c0.306,3.463-1.972,6.218-5.654,7.123c-3.078,0.756-5.581-0.346-7.88-2.287c-0.606-0.514-1.352-0.867-2.035-1.294
		C31.862,78.834,31.688,79.059,31.514,79.28z"/>
	<path fill="#FAFAFA" d="M35.096,6.513c0.163,1.768,0.296,3.208,0.455,4.914C35.455,11.49,35.083,11.819,34.65,12
		c-3.447,1.436-4.414,4.32-4.178,7.652c0.144,2.025-0.154,3.546-1.711,5.019c-2.011,1.901-2.298,6.036-0.976,8.59
		c0.242,0.467,0.401,0.979,0.721,1.774c-1.188-0.225-2.063-0.391-3.082-0.583c2.651,3.815,2.661,3.851,1.93,6.614
		c-2.325-1.246-4.507-1.137-6.707,0.434c-2.12,1.514-4.451,2.487-7.191,2.395c-1.201-0.04-2.278,0.077-2.687-1.284
		c-0.466-1.55-0.794-3.129,0.637-5.056c0.415,1.667,0.698,2.808,1.063,4.268c1.176-1.479,0.425-4.148,3.111-3.809
		c1.64,0.208,3.277,0.426,5.217,0.678c-1.42-1.725-3.23-1.779-4.837-1.707c-1.579,0.07-2.202-0.509-2.409-1.875
		c-0.104-0.685-0.177-1.384-0.167-2.074c0.025-1.998,0.546-3.942,2.605-4.563c1.936-0.584,3.149,0.921,4.259,2.347
		c0.699,0.899,1.586,1.653,2.389,2.473c0.164-0.143,0.328-0.285,0.493-0.427c-0.368-0.479-0.697-0.995-1.108-1.434
		c-1.667-1.784-2.203-3.845-1.435-6.158c0.569-1.71,1.672-2.781,3.634-2.935c1.824-0.142,3.802-0.237,4.626-2.596
		c-1.724-0.332-3.823,1.768-4.957-0.587c-1.157-2.403,1.995-2.773,2.623-4.924c-1.229,0.773-2.167,1.366-3.106,1.958
		c-0.109-0.092-0.218-0.185-0.325-0.277c0.399-0.523,0.688-1.287,1.218-1.533c3.711-1.725,6.345-4.861,9.597-7.176
		C34.169,7.005,34.481,6.863,35.096,6.513z"/>
	<path fill="#FAFAFA" d="M10.341,72.3c2.201,0.929,3.693,2.126,5.013,3.88c1.886,2.5,4.995,2.883,7.952,2.979
		c1.05,0.033,1.571,0.205,2.088,1.182c1.41,2.67,3.616,3.445,6.707,2.938c1.51-0.25,3.145-0.279,4.637,0.02
		c4.04,0.813,7.929,1.363,10.843-2.717c0.157,0.105,0.315,0.212,0.473,0.316c-0.061,0.643,0.082,1.418-0.232,1.891
		c-0.436,0.656-1.134,1.328-1.86,1.57c-3.743,1.254-7.486,2.563-11.315,3.485c-3.888,0.938-7.312-0.784-9.533-4.096
		c-0.457-0.681-1.36-1.312-2.157-1.476c-5.393-1.103-9.857-3.418-12.205-8.734C10.615,73.229,10.536,72.896,10.341,72.3z"/>
	<path fill="#FAFAFA" d="M17.837,82.648c0.205-0.043,0.274-0.072,0.341-0.069c3.158,0.206,5.621,1.382,7.669,4.042
		c1.146,1.486,3.435,2.095,5.181,3.079C27.112,91.166,21.481,88.214,17.837,82.648z"/>
	<path fill="#FAFAFA" d="M21.735,18.937c0.104,0.89,0.403,1.579,0.202,2.056c-0.723,1.708-1.477,3.438-2.513,4.96
		c-0.425,0.625-1.6,0.737-2.435,1.082c-0.173-0.672-0.687-1.505-0.458-1.987c0.809-1.713,1.799-3.358,2.88-4.917
		C19.752,19.639,20.594,19.497,21.735,18.937z"/>
	<path fill="#FAFAFA" d="M54.38,3.97c-0.776,0.862-1.552,1.724-2.502,2.776c0.442,0.076,0.749,0.066,0.997,0.184
		c0.564,0.268,1.1,0.598,1.648,0.901c-0.473,0.523-0.846,1.258-1.433,1.529c-1.694,0.784-2.021,1.552-1.138,3.661
		c0.297-0.104,0.605-0.205,0.906-0.319c0.217-0.082,0.425-0.183,1.136-0.495c-1.21,1.841-2.2,3.163-2.986,4.596
		c-0.838,1.532-1.247,3.027,0.563,4.416c0.626,0.48,0.918,1.743,0.902,2.641c-0.029,1.716-0.207,3.474-0.646,5.128
		c-0.949,3.562,0.066,4.966,3.68,5.16c3.014,0.162,5.979,0.716,8.488,2.532c-0.044,0.193-0.086,0.386-0.131,0.579
		c-1.582-0.3-3.154-0.684-4.749-0.875c-1.357-0.163-2.979-0.574-4.056-0.028c-1.408,0.718-2.947,2.081-3.432,3.505
		c-0.656,1.923,0.094,4.046,1.914,5.36c0.484,0.349,1.346,0.256,2.03,0.236c1.7-0.049,3.43-0.426,5.089-0.206
		c2.191,0.29,4.316,0.534,6.271-0.664c3.906-2.397,4.485-6.254,1.479-9.725c-1.051-1.212-2.243-2.3-3.371-3.445
		c0.124-0.165,0.248-0.329,0.372-0.495c0.81,0.426,1.61,0.867,2.429,1.273c1.715,0.85,2.235,0.505,2.379-1.353
		c0.284-3.648-1.902-5.784-4.544-7.674c-0.649-0.464-1.29-0.938-1.932-1.657c2.241,0.734,3.348-0.031,3.889-2.151
		c0.566-2.21,0.271-3.88-1.702-5.084c-1.502-0.918-3.25-1.431-4.807-2.088c0.203-0.653,0.872-1.675,0.596-2.203
		c-0.322-0.617-1.488-0.766-2.254-1.183c-0.877-0.477-1.732-0.998-2.539-1.581c-0.074-0.054,0.36-1.023,0.41-1.01
		c0.956,0.253,1.961,0.462,2.809,0.942c1.012,0.572,1.879,1.396,2.824,2.093c0.078,0.058,0.262-0.03,0.506-0.066
		c0.181-1.473-0.129-2.697-1.627-3.382c-1.371-0.628-2.746-1.247-4.121-1.869C56.613,3.944,55.498,3.958,54.38,3.97z"/>
	<path fill="#FAFAFA" d="M91.372,50.018c-0.376-0.731-0.767-1.455-1.127-2.194c-0.82-1.678-1.916-2.355-3.863-1.588
		c-0.731,0.287-1.804-0.143-2.675-0.403c-0.777-0.234-1.492-0.683-2.352-1.091c-0.061,1.131-0.112,2.074-0.164,3.019
		c-0.193,0.158-0.391,0.318-0.584,0.475c-0.19-0.412-0.318-0.872-0.584-1.228c-0.582-0.779-1.178-1.562-1.864-2.246
		c-2.955-2.938-5.904-2.919-8.466,0.275c-1.242,1.548-2.42,2.169-4.486,2.032c-2.884-0.192-5.883-0.124-8.697,0.471
		c-4.818,1.019-6.468,4.25-5.091,9.271c1.55-0.627,3.091-1.248,4.629-1.871c0.089,0.168,0.177,0.332,0.265,0.5
		c-1.188,0.797-2.451,1.506-3.539,2.422c-0.91,0.768-2.121,1.683-2.314,2.699c-0.505,2.676-0.877,5.473-0.645,8.164
		c0.216,2.498,2.6,3.194,4.686,1.729c0.396-0.279,0.803-0.594,1.079-0.979c1.246-1.735,2.657-3.104,4.987-3.256
		c0.504-0.033,1.052-0.771,1.431-1.296c2.075-2.862,4.006-5.839,6.215-8.591c0.647-0.809,2.011-1.18,3.116-1.447
		c1.813-0.441,3.697-0.566,5.527-0.945c2.58-0.537,4.978-0.897,7.652,0.248c3.559,1.524,4.854,0.939,6.895-1.656
		C91.393,51.693,91.382,50.855,91.372,50.018z"/>
	<path fill="#FAFAFA" d="M56.736,95.668c1.758-0.634,3.498-1.322,5.277-1.885c1.741-0.555,3.523-0.982,5.817-1.61
		c-2.806-0.899-4.996-0.272-7.164,0.257c-1.344,0.33-2.633,0.883-3.964,1.28c-2.005,0.599-4.055-0.167-5.635-2.298
		c0.871,0.229,1.423,0.41,1.988,0.509c1.078,0.188,2.164,0.472,3.243,0.456c1.38-0.021,3.261-0.15,3.229-1.824
		c-0.018-1.009-1.391-2.371-2.481-2.904c-2.026-0.991-4.294-1.489-6.767-2.293c0.817,4.052,4.436,3.205,6.815,4.254
		c-0.039,0.186-0.082,0.369-0.121,0.552c-0.701-0.115-1.43-0.146-2.099-0.361c-2.41-0.788-4.744-0.375-5.318,1.007
		c-0.467,1.125,1.42,3.479,3.411,4.248c0.557,0.217,1.114,0.428,1.674,0.641C55.343,95.686,56.04,95.677,56.736,95.668z"/>
	<path fill="#FAFAFA" d="M66.65,79.232c-0.459,0.662-0.922,1.326-1.381,1.984c3.521,1.553,5.896-0.295,7.965-6.021
		c0.119,0.807,0.236,1.615,0.373,2.56c2.394,0.397,5.008,0.451,6.817-1.266c1.591-1.507,2.462-3.771,3.616-5.646
		c0.133,0.267,0.424,0.854,0.707,1.427c2.141-0.215,3.813-2.312,4.693-6.347c-2.584,2.716-5.369,3.662-8.868,3.293
		c0.521-0.468,0.876-0.989,1.366-1.19c1.408-0.586,2.84-1.195,4.322-1.508c1.594-0.336,2.207-1.226,2.35-2.927
		c-2.971-0.362-5.437,0.63-7.871,2.048c-2.789,1.622-2.457,4.498-2.764,7.152c-0.188-0.021-0.375-0.04-0.563-0.059
		c-0.263-0.612-0.422-1.301-0.813-1.814c-0.539-0.708-1.262-1.807-1.892-1.795c-0.927,0.012-1.999,0.691-2.724,1.386
		c-0.836,0.798-1.254,2.019-2.053,2.868c-0.693,0.737-1.595,1.414-2.533,1.764c-2.489,0.924-5.039,1.693-7.592,2.428
		c-0.558,0.162-1.23-0.078-1.841-0.512c1.17-0.43,2.343-0.858,3.632-1.332c-0.678-1.063-1.156-1.812-1.888-2.957
		c0.866,0.325,1.354,0.457,1.795,0.684c5.071,2.628,9.483-0.094,9.544-5.904c0.014-1.224-0.025-2.447-0.041-3.673
		c0.23-0.029,0.463-0.06,0.692-0.087c0.125,0.162,0.288,0.305,0.368,0.488c0.496,1.084-0.234,3.021,1.774,3.048
		c2.079,0.024,4.375-0.069,5.601-2.097c1.024-1.695,1.605-3.66,2.388-5.506c0.116-0.277,0.245-0.555,0.637-1.441
		c0.308,1.683,0.498,2.729,0.688,3.762c4.08,0.918,6.625-0.331,7.421-3.624c0.423-1.748-0.077-2.241-1.9-2.381
		c-1.497-0.115-3.028-0.382-4.442-0.874c-2.715-0.944-6.008-0.688-9.842,1.053c0.521,0.788,1.051,1.579,1.601,2.404
		c-0.363,0.16-0.442,0.229-0.479,0.21c-4.574-2.363-6.799-1.575-8.994,3.121c-1.31,2.804-3.244,4.96-6.289,6.016
		c-0.861,0.3-1.64,0.955-2.347,1.572c-1.741,1.526-3.099,3.623-5.938,3.299c-0.365-0.042-1.182,1.088-1.258,1.738
		c-0.402,3.452,1.797,6.271,5.451,7.278c3.057,0.842,5.59-0.189,7.94-2.066c0.622-0.497,1.378-0.828,2.071-1.235
		C66.316,78.777,66.484,79.006,66.65,79.232z"/>
	<path fill="#FAFAFA" d="M65.104,6.395c-0.211,1.763-0.385,3.198-0.59,4.9c0.092,0.064,0.455,0.404,0.885,0.597
		c3.406,1.532,4.291,4.442,3.961,7.765c-0.197,2.021,0.057,3.55,1.572,5.064c1.957,1.958,2.129,6.098,0.735,8.615
		c-0.256,0.46-0.429,0.967-0.771,1.754c1.192-0.193,2.072-0.334,3.099-0.499c-2.759,3.74-2.771,3.775-2.114,6.558
		c2.357-1.182,4.535-1.012,6.691,0.62c2.074,1.573,4.381,2.611,7.119,2.596c1.203-0.006,2.277,0.14,2.725-1.209
		c0.508-1.536,0.88-3.105-0.498-5.072c-0.459,1.656-0.773,2.787-1.178,4.237c-1.137-1.512-0.313-4.159-3.008-3.895
		c-1.644,0.161-3.285,0.333-5.231,0.53c1.467-1.684,3.28-1.687,4.883-1.57c1.575,0.114,2.216-0.448,2.462-1.809
		c0.121-0.682,0.215-1.378,0.225-2.069c0.031-1.998-0.438-3.955-2.477-4.633c-1.919-0.638-3.176,0.833-4.322,2.228
		c-0.727,0.879-1.633,1.609-2.457,2.405c-0.162-0.146-0.322-0.293-0.48-0.44c0.38-0.47,0.725-0.975,1.146-1.403
		c1.715-1.736,2.31-3.781,1.604-6.115c-0.521-1.725-1.594-2.826-3.55-3.034c-1.819-0.194-3.795-0.343-4.553-2.725
		c1.732-0.282,3.772,1.875,4.973-0.447c1.222-2.37-1.918-2.829-2.484-4.998c1.206,0.809,2.129,1.426,3.051,2.044
		c0.11-0.089,0.223-0.179,0.332-0.268c-0.385-0.534-0.651-1.306-1.174-1.567c-3.662-1.828-6.207-5.035-9.395-7.441
		C66.016,6.913,65.707,6.761,65.104,6.395z"/>
	<path fill="#FAFAFA" d="M88.014,72.85c-2.228,0.862-3.752,2.02-5.121,3.733c-1.953,2.449-5.07,2.744-8.033,2.755
		c-1.049,0.006-1.574,0.163-2.118,1.124c-1.483,2.632-3.709,3.345-6.785,2.747c-1.503-0.29-3.138-0.365-4.636-0.107
		c-4.063,0.697-7.965,1.143-10.764-3.02c-0.161,0.102-0.322,0.204-0.481,0.305c0.042,0.643-0.121,1.415,0.18,1.896
		c0.417,0.668,1.097,1.355,1.815,1.619c3.705,1.357,7.41,2.771,11.214,3.802c3.858,1.047,7.331-0.581,9.643-3.827
		c0.476-0.668,1.396-1.273,2.197-1.413c5.422-0.953,9.948-3.144,12.444-8.392C87.712,73.768,87.802,73.436,88.014,72.85z"/>
	<path fill="#FAFAFA" d="M80.23,82.982c-0.205-0.049-0.271-0.082-0.34-0.078c-3.162,0.115-5.656,1.223-7.779,3.824
		c-1.187,1.455-3.49,1.998-5.266,2.937C70.723,91.238,76.434,88.445,80.23,82.982z"/>
	<path fill="#FAFAFA" d="M78.113,19.187c-0.131,0.886-0.449,1.567-0.262,2.049c0.676,1.727,1.381,3.478,2.375,5.029
		c0.407,0.635,1.58,0.78,2.402,1.148c0.193-0.667,0.729-1.485,0.516-1.974c-0.762-1.736-1.707-3.406-2.742-4.996
		C80.075,19.944,79.236,19.779,78.113,19.187z"/>
</g>
</svg>
