<!-- Generator: Adobe Illustrator 16.0.0, SVG Export Plug-In . SVG Version: 6.00 Build 0)  -->
<!DOCTYPE svg PUBLIC "-//W3C//DTD SVG 1.1//EN" "http://www.w3.org/Graphics/SVG/1.1/DTD/svg11.dtd">
<svg id="chain" version="1.1" id="Layer_1" xmlns="http://www.w3.org/2000/svg" xmlns:xlink="http://www.w3.org/1999/xlink" x="0px" y="0px"
	 width="300px" height="300px" viewBox="0 -24 100 100" enable-background="new 0 -24 100 100" xml:space="preserve">
<path fill="none" d="M47.807,33.138c0.008-0.009,0.016-0.019,0.024-0.025c-0.009,0.007-0.018,0.015-0.026,0.022
	C47.805,33.136,47.806,33.137,47.807,33.138z"/>
<path fill="none" d="M53.048,49.8c-0.274-0.071-0.545-0.151-0.815-0.231c-0.002,0-0.004,0.003-0.006,0.003
	C52.484,49.648,52.76,49.727,53.048,49.8z"/>
<path fill="none" d="M36.33,35.501h-0.004c0.204,0.522,0.496,1.114,0.783,1.651h0.013C36.838,36.612,36.574,36.063,36.33,35.501z"/>
<path d="M37.108,37.152c0.291,0.544,0.577,1.029,0.758,1.332c-0.263-0.437-0.508-0.883-0.746-1.332H37.108z"/>
<path d="M38.062,38.804h0.006c-0.048-0.079-0.1-0.151-0.147-0.23C38.008,38.717,38.062,38.804,38.062,38.804z"/>
<path d="M51.813,49.445c-0.631-0.197-1.25-0.424-1.856-0.67c-0.003,0.002-0.007,0.004-0.009,0.005
	C50.007,48.805,50.729,49.104,51.813,49.445z"/>
<path d="M52.227,49.57c0.002,0,0.004-0.002,0.006-0.004c-0.105-0.029-0.213-0.057-0.317-0.09
	C52.016,49.509,52.12,49.541,52.227,49.57z"/>
<path class="chain-orange" d="M49.975-9.007L39.153,1.577c-0.934,0.914-1.781,1.882-2.543,2.897c-0.167,0.221-0.316,0.451-0.475,0.675
	C41.321,3.807,46.807,3.95,51.92,5.577l0.887-0.866l5.967-5.835c5.234-5.12,13.629-5.025,18.748,0.21
	c5.119,5.234,5.025,13.63-0.209,18.748l-6.803,6.653l-1.4,1.37l-1.361,1.332l-0.004,0.005l-2.268,2.217
	c-2.363,2.311-5.369,3.555-8.428,3.748v0.005c-0.002-0.001-0.002-0.001-0.004-0.001c-0.643,0.049-1.193,0.047-1.664,0.021
	c-1.035-0.056-1.635-0.224-1.635-0.224c0-0.002,0-0.003,0-0.004c-0.002,0.001-0.004,0-0.004-0.001
	c-2.58-0.484-5.041-1.736-7.014-3.755c-1.92-1.964-3.106-4.369-3.564-6.882c-0.013-0.071-0.021-0.144-0.032-0.214
	c-2.271,0.16-4.5,1.089-6.252,2.803l-3.604,3.525c1.187,3.107,3.008,6.031,5.482,8.563c2.475,2.529,5.354,4.42,8.434,5.676
	c0.568,0.231,1.141,0.438,1.722,0.627c0.483,0.155,0.971,0.304,1.464,0.432c0.039,0.01,0.067,0.016,0.102,0.024
	c0.087,0.022,0.175,0.039,0.265,0.062c5.117,1.239,10.547,0.848,15.473-1.182c0.605-0.248,1.207-0.519,1.795-0.818
	c0.031-0.016,0.064-0.032,0.096-0.049c0.098-0.05,0.193-0.105,0.291-0.159c0.248-0.131,0.5-0.263,0.744-0.403
	c0.004-0.003,0.006-0.003,0.01-0.006c1.787-1.031,3.479-2.301,5.021-3.809l10.822-10.584c9.889-9.671,10.064-25.526,0.395-35.415
	C75.721-18.5,59.865-18.678,49.975-9.007z"/>
<path class="chain-blue" d="M50.024,61.006l10.822-10.584c0.936-0.914,1.783-1.885,2.545-2.898c0.166-0.221,0.316-0.451,0.475-0.676
	c-5.186,1.344-10.674,1.201-15.785-0.427l-0.887,0.866l-5.967,5.836c-5.234,5.119-13.628,5.025-18.748-0.211
	c-5.119-5.234-5.025-13.627,0.209-18.746l6.803-6.654l1.4-1.368l1.361-1.333l0.005-0.004l2.267-2.216
	c2.362-2.311,5.367-3.555,8.426-3.748v-0.004c0.001,0,0.002,0.001,0.004,0.001c0.643-0.051,1.193-0.048,1.664-0.023
	c1.034,0.055,1.635,0.224,1.635,0.224c0,0.001-0.001,0.003,0,0.003c0,0,0.002,0,0.004,0.001c2.58,0.484,5.041,1.736,7.013,3.753
	c1.92,1.963,3.107,4.372,3.564,6.882c0.014,0.073,0.021,0.144,0.031,0.214c2.273-0.158,4.502-1.088,6.254-2.801l3.605-3.525
	c-1.188-3.108-3.012-6.031-5.486-8.562c-2.475-2.53-5.354-4.42-8.434-5.676c-0.566-0.231-1.141-0.438-1.721-0.627
	c-0.486-0.156-0.972-0.305-1.464-0.431c-0.038-0.009-0.068-0.018-0.102-0.026c-0.088-0.022-0.176-0.041-0.265-0.062
	c-5.117-1.239-10.549-0.847-15.472,1.181c-0.607,0.25-1.207,0.521-1.796,0.819c-0.032,0.016-0.063,0.033-0.097,0.049
	c-0.097,0.051-0.192,0.106-0.289,0.159c-0.25,0.131-0.5,0.263-0.746,0.405c-0.003,0.002-0.004,0.003-0.008,0.005
	c-1.789,1.03-3.479,2.3-5.022,3.81L15.002,25.194c-9.889,9.671-10.066,25.526-0.395,35.415C24.28,70.5,40.135,70.677,50.024,61.006z
	"/>
<path d="M53.059,49.803c-0.004-0.001-0.007-0.003-0.011-0.003C53.052,49.8,53.055,49.802,53.059,49.803z"/>
<path d="M51.813,49.445c0.033,0.011,0.067,0.021,0.103,0.031C51.881,49.468,51.848,49.456,51.813,49.445z"/>
<path d="M47.805,33.141c0,0,0.311,0.539,1.011,1.303c0.005-0.006,0.01-0.012,0.016-0.015c-0.369-0.407-0.709-0.84-1.025-1.291
	C47.807,33.139,47.806,33.139,47.805,33.141z"/>
<path d="M37.92,38.572c-0.018-0.029-0.034-0.055-0.054-0.088C37.885,38.514,37.902,38.542,37.92,38.572z"/>
<path d="M48.832,34.429c-0.006,0.003-0.011,0.009-0.016,0.015c0.319,0.348,0.711,0.734,1.206,1.148
	c0.001-0.002,0.002-0.003,0.002-0.003C49.604,35.227,49.204,34.84,48.832,34.429z"/>
<path d="M50.027,35.592c0.001-0.003,0.004-0.006,0.012-0.015c-0.004,0.004-0.01,0.008-0.015,0.012
	C50.025,35.589,50.026,35.59,50.027,35.592z"/>
<rect x="50.022" y="35.59" width="0.004" height="0.004"/>
</svg>
