<!-- Generator: Adobe Illustrator 16.0.0, SVG Export Plug-In . SVG Version: 6.00 Build 0)  -->
<!DOCTYPE svg PUBLIC "-//W3C//DTD SVG 1.1//EN" "http://www.w3.org/Graphics/SVG/1.1/DTD/svg11.dtd">
<svg version="1.1" xmlns="http://www.w3.org/2000/svg" xmlns:xlink="http://www.w3.org/1999/xlink" x="0px" y="0px" width="1000px"
	 height="1000px" viewBox="0 0 1000 1000" enable-background="new 0 0 1000 1000" xml:space="preserve">
<g id="Bottom_bird">
	<path d="M714.667,888c0,0-5.165-10.665-6.499-16.999s-5.5-23.334-5.5-23.334s-0.333-2.5,0.5-2.5s1,1.667,1,1.667
		s3.666,6.666,5.333,8.833s4.666,4.834,4.833,6.167s1.168,4.667,1.834,5.5s17.5,13,17.5,13s3.166,2.5,4.666,1.5s2.5-4.5,2.5-6
		s-1.833-3.499-1.333-3.833s2.167,0,2.5-0.667s-1.001-6.333-1.667-7.833s-7.834-18.001-13.167-26.834s-13.666-24.833-13.666-24.833
		s-1.334-1.333-0.667-1.833s3.667-0.333,4.667-2.333s0-5.168,0.5-5.334s2.167-0.167,2.5-1.5s-0.5-11.167-3.5-15s-8-12-8-12
		s-2.5-2.666-1.5-4.833s1.499-3.333,2.833-3.333s3.5,1.166,4.667,2.333s2.833,3.167,3.833,3.167s1.334-2.501,0.834-3.334
		s-3-5.834-3-9.5s-0.834-8.666,0.166-12.333s3-9.5,3-9.5s1.5-2.166,2.167-0.833s2.667,6.833,2.667,6.833s1,4.501,2,4.167
		s1.832-7.833,2.666-9.5s4-11.833,6.667-15.5S743,712,744.334,708.334s3.167-6.832,5.167-8.666s4.833-1.334,6.5-0.667
		s6.999,2.501,9.833,3.167s8.334,1.5,8.334,1.5s2.334,0.832,3-0.334s-0.667-3-0.667-3l-1.167-4.5c0,0,0-1,0.5-1.5
		s4.5,0.334,4.5,0.334s7.501,3.499,9.334,3.666s4.499,0.167,5.999-1s5.333-5.334,6.5-6.667s2-4.499,4.167-4.666
		s6.666-1.5,9.833,0.333s8.166,4.5,9,4.5s2.333-1.001,2-2.167s1.668-3.332,1.834-4.666s0.666-3.834,0.666-3.834
		s0.667,1.501,2.667,2.334s9.333,4.333,11.5,4.833s10.333,4.833,13.833,4s5.5-2.334,4.5-4.167s-4.834-5.667-5.5-7.5
		s-2.167-5.667-2.5-8s-1.333-7-1.333-7s-0.167-0.999,1-1.666s4.5,0.333,4.5,0.333s5.667,2.167,16.667,3.167s15.834,2.166,23.5,1.666
		s11.833-1.166,11.833-1.166s2.334-0.167,2.167-1.167s-1.667-2.5-2.667-3.333s-5.834-2.999-7.5-4.833s-3.166-2.834-2.333-3.667
		s1.834-0.333,3.167,0.167s24,5.834,32.5,5.5s8.666-1.167,8.666-1.167l-0.833-1.333c0,0,7.333-0.334,9-1.167s0.333-1.499-1.5-2.333
		s-23.167-15.167-32.667-19.834s-27.5-12.833-27.5-12.833s3.833-0.501,5-0.167s14.167,5,22.167,4.5s13-0.332,14.5-0.666
		s2-1.5,2-2.667s-2.167-4.667-1.167-5.5s3.001-2,3.667-2.5s1.667-2.666-1-2.833s-14.667-3.334-18.167-4.834s-17.333-8-30.333-10.5
		S815.5,571.5,771.5,565s-47.5-3.5-56-4.5s-33.5-9-46.5-4.5c0,0-15.25,9.25-16.25,21.75s-1.25,12.75-0.5,18.75s1.25,11.5,1.25,11.5
		s-0.75,2-1.75,2.25s-2.5-2.75-2.5-2.75s-6-13.75-8.5-17.5s-5-5.25-6.25-9s-2.25-10.25-2.25-10.25c-0.25-4-1-5.75-0.75-9
		s0.75-8.75-1.5-13.5s-11.25-18.25-21.5-22s-19,0-23.5-1s-8.75-6.25-13.25-8S559,513.875,559,513.875s-5.625-0.688-6.375,0.563
		s1.813,5.281,1.813,5.281s4.281,5.516,6.031,11.016s2.516,9.508,3.016,10.758s4.008,7.504,4.508,14.254s-1.746,17.752-1.746,19.502
		s1.502,6.501,1.252,8.251s-2.499,14.751-3.499,20.751c-0.832,3.751-2.832,9.084-2.832,9.084s-13.666-8.666-22.5-6.833
		s-18.334,13.333-20.501,17.333c-2.166,4-20.833,36.5-26.5,51s-24.166,58.333-27,67.333s-8.667,27.5-10.333,35.167
		s-4.167,17.5-4.167,17.5s-1.5,4.167,1,4.667s9.333-2.833,11.833-6s13-21,13-21s-3.333,15.833-3.667,24.5s-0.5,15.5-0.5,15.5
		s-0.334,4,0.833,4.5s4.5,1.999,6,0.833s19.167-27.833,19.167-27.833s-0.334,5.666,0.333,6.833s2.667,3.5,4,3
		c1.334-0.5,3.334,0.834,10.834-3.666s12.667-7.834,12.667-7.834s1.832-1,2.666-0.833S531.25,792,531.25,792s1.25,4.25,2.75,4.25
		s5.25-1.75,8-6s4.5-14,4.5-14s-0.25-2,0.75-2s2.25,1.25,2.25,1.25s5.75,5,8.25,8.75S564,791.5,566,792s3.75,0.5,3.75,0.5
		l0.25-10.25c0,0-0.5-3.75,0.5-5s3.25-4.5,3.25-4.5s0.75-0.75,1.75-0.25s4.5,4.25,6.5,5.25s6.25,4.5,10,3
		c0,0,0.667-0.417,1.667-0.417s1.666,1.334-0.334,3.667s-5.333,8.667-4.999,11.333s2.664,15,3.664,16s4.998,3,7.998,1.334
		s3.996-3.667,3.996-3.667l0.326,1.667c0,0-1.683,1.666-2.683,6s-1.365,12.666-1.365,19.333s4.938,22.333,6.271,23
		s5.208-1.333,7.541-3s6.5-11,6.5-11s1.417-1,2.417-1s0,3,0,3s-0.334,3.667-2,6.333s-3.458,13.667-4.125,24s0.729,25.333,1.063,27
		s4.365,5,4.365,5l1.349,3c0,0,0.008,4.333,1.341,5.667s5.671,4.666,6.338,4.333s2.335-4,2.335-4s2.668-5.667,4.334-8.667
		s4.335-7.666,6.667-13.333c2.334-5.667,3.001-20.333,3.668-25.667S654.667,849,654.667,849s1-4,2-3.667s0.667,2.667,0.667,2.667
		s0.333,3.333-0.667,6s0.667,13,0.667,18s-0.334,11.666-1,21.333s2.333,18.333,4.666,24s3.334,6.333,4.334,7.333s2.333,7,6,9.334
		s10.333,1.666,11.666-1s0.334-11.334,0.667-12.667s0.667-5.333,1.667-13.667S685,880.333,685,880.333s0.334-3.333,1.334-3.333
		s1.666,2,1.666,2s0.334,2.666,0.334,4S691,896.333,692,907.333s4.667,20,6.334,23.667s3,5,4,5.333s1,3.333,1.333,4.667
		s3.667,4,5.333,3.666c0,0,5.333-14.665,6.333-29.665S714.667,888,714.667,888z"/>
</g>
<g id="Top_bird">
	<path d="M294.5,503.25c7.25-5.75,9.75-9.5,39.75-25.25s39.5-23.75,46.75-30.5s10.25-13,16.75-17s19.75-5.5,23.75-4s5.5,5,7,6.75
		s3.25,2.5,5.75,5.75s4.999,8.666,6.75,8.208s3.75-8.417,3.75-14.042s-3.125-12.708-3.125-12.708s10.25-20.292,5.75-38.292
		c-6.5-17.5-12.375-20.521-12.375-20.521s35-3.261,53.125-18.011s53.125-79.38,53.125-79.38s-0.75-6.419,0-8.919
		s0.75-1.334,0.75-1.334s0,0.999,0,2.166s0,3.833,0,3.833s3-4.167,3-9.667s0-6.333,0-6.333l3.667,1.833c0,0,9-29.333,9.5-47.333
		s-3.917-38.333-6.417-45.667s-5.708-14-7.875-16.667s-4.771-2-4.771-2s-2.803-4.5-4.803-5.5S527.317,125,527.317,125
		s1.009,3.167,1.342,4.667s0.17,1.667,0.337,3s4.67,9.667,4.67,9.667s1.167,3,1.667,4.833s0.334,4.5,0.334,4.5
		s-8.5-7.167-11.167-9.167s-13.333-10-13.333-10s-1.001-0.833-1.834-0.333s-0.666,2.333-0.666,2.333s3.832,13,4.666,18.5
		S513,167.833,513,167.833s-11-4.167-13-5.667s-8.5-6.333-8.5-6.333s-2.667-1.833-4.333-1s-2.5,5.167-2.5,5.167
		s-0.833,13.667-1.667,20s-4.333,16.833-4.333,16.833s-5.333-2-8.5-3s-7.833-1.333-7.833-1.333s-2.833-1.333-3.833-0.167
		s-0.333,4.167-0.333,4.167s0,5.834,1.5,9.667s3.667,8,3.667,8s1.667,1.166,0.833,2.333s-3.5,0.5-3.5,0.5s-2.834-0.667-5.167,0.333
		S452.333,219,452.333,219l2.5,0.833c0,0-2.333,2-2.333,3.667s3.833,17.5,3.833,17.5l-8.667-5.667c0,0-0.334-1.167-1.667-1.5
		s-2.5-0.167-2.5-0.167L426,218.833c0,0-1-1.833-2.167-1.167s-1,3-1,3s-0.683,6-0.008,8.333s2.842,7.667,2.842,7.667l-5.667,7.5
		c0,0-0.667,1.5-2.167,1.5s-3.167-2-3.167-2l-5-2.667c0,0-0.667-1.667-3-1.333S402.5,244,402.5,244s-1.333,9.833-3,13.5
		s-2.833,4.5-2.833,4.5s-0.333,2.167-3.333,2.5s-8-1-8-1l-5.667-1.5c0,0-0.667-1.167-1.667-1s-2.167,3.833-2.167,3.833l-1.5,12.333
		l-2-3.167l-4.5,14.333c0,0-0.833,2.5-2,2.833s-1.333-2.833-3.167-3.667s-7.333-1.396-7.333-1.396l1.333,2.896l-4.333,7.833
		c0,0-1,4-3,5s-6,2.333-8.167,4.5S338.333,312,338.333,312l-10.667,16c0,0-2.667,1-3.833,2.167s-1.667,5.167-1.667,5.167
		s-10,9-14.833,11.833S284.5,359.833,284.5,359.833s-5.5-14.583-5.75-22.583s1.5-13.5,1.5-13.5s10.75-8.5,12.75-14
		s2.5-13.75,1.25-18.5s-7.25-11.75-7.5-15s-1.25-13-2-18s-2.25-9.75-2.75-13.75s0.5-27.25,0.25-35.25s-0.75-51.75-1.75-75.75
		s-6.25-75.25-6.25-75.25s-0.5-8-3.75-7.5s-5,9.75-5,9.75s-1.75,18.75-1.75,28.25s-1.25,34.5-1.25,34.5s-3.25-17.75-7.75-30.75
		S244,63,244,63s-1.5-6-4-6s-3,7-3,7s-3.5,12.25-4.75,21.75s-2.75,28-2.75,28s0.75,3.25-1.25,3.5s-3.75-4-3.75-4s-0.75-4.75-3.25-10
		s-4-7-4-7s-0.25-2.75-2-2.5S211.5,99,211.5,99s-5.25,17.75-8.25,32.25s-9,43.5-9,43.5S188.5,167,181.5,160
		s-13.25-13.25-13.25-13.25s-1.5-4-4.5-2.75s-2.75,6-2.75,6s0,14.5,2.25,22S175,207.25,175,207.25s-8.01-9.25-14.005-14.75
		s-11.495-9.25-11.495-9.25s-3.5-3.75-4.75-3.5s-1.75,6-1.75,6s-2.75,17.5-2.25,23.25s4,24,4,24s-10.5,1-14.25-0.25s-6.5-4-6.5-4
		s-1.75,6.5,0,13s9.75,18,9.75,18L124.5,260c0,0-3-1.5-4,0.5s-0.75,14.25,1.25,21.5s6.25,15.25,6.25,15.25s-5.143-2-8.071-1.75
		s-7.179,2.25-7.179,6s0.5,6.5,3,8.75s12,5.25,12,5.25l-9,7.25c0,0-2,2.75-2,4.5s0,4.75,4,7.75s8.5,5.25,8.5,5.25l-1.5,5.25l6,4
		l-2.5,19c0,0-0.75,2.75,0,4.25s3,4,3,4l4.25,1.75c0,0-5,12.75-7.25,20S127.5,416,127.5,416s-3,5.75-4,9.5s-1.25,12.5-1.25,12.5
		l14-12c0,0-3.5,6-4.75,10.75s-1.75,8.5-1.75,8.5S128.5,448,130,448.5s5.5-2.75,5.5-2.75l7-4.5c0,0-2.75,4.354-3.25,7.302
		s0.75,6.198,0.75,6.198l16-7L146.5,461c0,0-2.75,4.5-2.25,6.25s2.75,5.25,6.5,5.5s7.75,1.25,7.75,1.25s1.5,1,1.75,1.75
		s-3.75,6.75-3.75,6.75s-2.5,5.75-1.75,6.75s1.75-2.25,6.25-4s8.5-4.5,10.75-4s2.75,4.5,2.75,4.5s0,5-1.75,10
		c0,0-1.083,10.584-5.083,15.917s-9.333,11.334-14,16.667s-11.333,9.333-14,13.333S137.25,549.75,135,554s-29,28.25-29,28.25
		s-2,1.5-2,2.75s1.25,2,0.25,3.75s-5,5.25-5,5.25S98,595,98,596.25s0.5,3.25-0.75,4.25s-9.5,9-9.5,9s-1.25,2-0.75,3s3.5,0.5,3.5,0.5
		s-0.5,2-1.25,3s-6.75,9.25-6.75,9.25s-3,5-1,6.5s6.75,0,8.75-1S101.5,626.5,108,619.5s12.5-15.75,14.75-17.75s11-13.75,11-13.75
		s0.75-2.25,2.25-1s-0.5,3.5-0.5,3.5s-8.5,12.5-13,20.25s-5.5,13.5-7.25,16.25s-6,10-4.5,12s7,5,12,3.75s11.5-4.75,16.25-9.25
		s10.75-9.5,15.25-17.25s9-19,11.25-21.25s4-5.25,6.25-8.25s4.25-8.25,4.25-8.25s0.75-2.5,2-2s-0.25,5.5-0.25,5.5l-14.25,38.5
		c0,0-2.75,5-3.25,8.75s-0.75,20.25-0.75,20.25s-1.25,6,2,6.5s7-2.5,7-2.5s0.5-2.75,3-4.75S175,648,175,648s1.25,1.75,4-0.25
		s7.5-9.5,7.5-9.5s-0.5-3.5,0.75-5s7-6.25,9.75-13.75s7.5-21.25,7.5-21.25l0.75-4.5c0,0-0.5-2.25,1-2.25s1.75,1.75,1.75,1.75
		l0.75,12c0,0,1.25,5.75,4,7.25s10-6.75,10-6.75s7.5-7.5,10.75-13.75s6.5-10,6.75-12.25s0.5-5.25,0.5-5.25s-0.5-2.25,0.75-2.25
		s1.25,3.75,2.75,5.25s4.5,5,6.5,3.75S264,571.25,267,565s4-10.5,4-10.5l0.5-3.25c0,0,1.25-1,2.25-0.75s2.5,4,5.25,4.5
		s9.25,2.75,11.75,0.25s14.5-8.5,14.25-17.5s-3.75-12.25-5.75-15.5s-7-7.5-8.25-10.5c0,0-1.25-2.5-0.25-5.25
		S294.5,503.25,294.5,503.25z"/>
</g>
</svg>
