<?xml version="1.0" encoding="utf-8"?>
<!-- Generator: Adobe Illustrator 15.0.0, SVG Export Plug-In . SVG Version: 6.00 Build 0)  -->
<!DOCTYPE svg PUBLIC "-//W3C//DTD SVG 1.1//EN" "http://www.w3.org/Graphics/SVG/1.1/DTD/svg11.dtd">
<svg version="1.1" id="Layer_1" xmlns="http://www.w3.org/2000/svg" xmlns:xlink="http://www.w3.org/1999/xlink" x="0px" y="0px"
	 width="25px" height="25px" viewBox="0 0 100 100" enable-background="new 0 0 100 100" xml:space="preserve">
<path fill="#dbdbdb" d="M99.826,3.527c-1.158-0.887-7.975-2.01-11.777-1.013C77.027,5.405,57.727,13.171,50.857,20.551
	c-1.248,1.342-1.786,4.783-2.066,7.14c-0.138,1.163-0.427,5.422-0.427,5.422s-0.899-3.585-0.777-5.446
	c0.092-1.411,0.73-4.823,0.73-4.823s-13.54,9.34-15.829,15.74c-0.481,1.346-0.568,4.324-0.514,5.822
	c0.044,1.222,0.407,4.623,0.481,5.297c-0.009,0.008-0.018,0.019-0.027,0.026c-0.206-0.466-1.213-2.799-1.509-4.603
	c-0.246-1.505-0.194-5.13-0.194-5.13s-3.525,3.663-4.275,5.244c-0.538,1.133-0.896,3.581-0.648,4.809
	c0.25,1.234,1.98,4.538,1.98,4.538l0.133,0.073C16.078,67.873,9.296,77.367,5.639,83.119c-2.292,3.607-3.647,6.19-4.381,7.72
	c-0.463,0.969-0.743,1.649-0.896,2.05c-0.252,0.664-0.515,1.349-0.256,2.168L0.5,96.305l1.281,0.286
	c0.645,0.141,1.585,0.086,2.423-0.986c0.096-0.123,0.233-0.306,0.411-0.547c0.328-0.441,0.801-1.091,1.405-1.918
	c3.425-4.693,11.446-15.688,20.325-26.44c0.926-1.124,4.174-4.877,8.432-9.49c2.14,0.941,4.439,2.573,5.384,2.445
	c2.625-0.357,7.169-3.295,9.405-4.885c2.095-1.488,7.611-5.524,7.605-7.025c-0.004-1.054-2.699-1.647-3.645-2.114
	c-1.215-0.6-5.007-2.077-5.007-2.077s3.767,0.69,5.294,1.222c2.41,0.839,5.924,2.522,5.924,2.522s8.781-6.03,11.508-8.242
	c5.082-4.127,13.09-10.908,12.732-11.6c-0.172-0.329-2.443-0.783-4.309-1.971c-1.568-0.999-3.096-3.057-3.096-3.057
	s1.697,1.296,3.754,2.284c2.055,0.987,4.627,1.17,4.627,1.17s9.674-10.939,13.779-17.417C100.184,6.173,100.129,3.759,99.826,3.527z
	 M70.684,21.702c-7.912,5.677-11.641,9.547-19.387,16.078c-10.872,9.164-24.848,25.229-26.702,27.475
	C12.642,79.732,2.41,94.405,2.272,94.374c-0.138-0.03,4.081-12.741,29.645-40.76c9.757-10.692,21.995-21.738,32.544-29.373
	C81.549,11.874,95.727,6.297,95.727,6.297S83.957,12.18,70.684,21.702z"/>
</svg>
