<!-- Generator: Adobe Illustrator 16.0.0, SVG Export Plug-In . SVG Version: 6.00 Build 0)  -->
<!DOCTYPE svg PUBLIC "-//W3C//DTD SVG 1.1//EN" "http://www.w3.org/Graphics/SVG/1.1/DTD/svg11.dtd">
<svg version="1.1" id="Layer_1" xmlns="http://www.w3.org/2000/svg" xmlns:xlink="http://www.w3.org/1999/xlink" x="0px" y="0px"
	 width="500px" height="500px" viewBox="0 0 500 500" enable-background="new 0 0 500 500" xml:space="preserve">
<path id="body" fill="#dbdbdb" d="M78.919,425.808l-0.513-1.168l0.09-0.208l0.005-0.228l0.006-0.226l0.09-0.208
	l-0.239-0.968l-0.24-0.968l0.092-0.203l0.003-0.229l0.006-0.226l0.091-0.204l0.091-0.209l0.005-0.227l0.428-0.491l0.464-0.441
	l0.564,1.135l0.513,1.17l0.239,0.967l0.241,0.968l0.376,2.596c0.191,1.715,0.092,3.121-0.303,4.217
	c-0.407,1.147-0.373,2.691,0.106,4.625c0.479,1.938,0.688,2.976,0.627,3.111l-0.006,0.228l-0.005,0.229l-0.091,0.201l-0.092,0.209
	l-0.004,0.228l-0.007,0.226l-0.09,0.208l0.07,0.698l0.073,0.7l0.344,0.904l0.397,0.866l0.596-0.225l0.63-0.173l0.206,0.096
	l0.226,0.004l0.226,0.009l0.208,0.094l0.529-0.331l0.529-0.333l0.36-0.597l0.36-0.6l0.006-0.229
	c0.062-0.138,0.076-0.818,0.044-2.044l-0.045-1.833l-0.177-0.633l-0.229-0.6l0.792-0.497l0.794-0.5l0.9,1.669
	c0.566,1.137,0.963,2.003,1.194,2.603l0.397,0.871l0.728-0.607l0.692-0.659l0.005-0.227l0.09-0.207l0.093-0.207
	c0.002-0.149,1.902-2.486,5.701-7.007l5.728-6.733l-3.848-3.54c-2.603-2.342-4.159-3.722-4.67-4.149l-0.771-0.637l-0.225-0.004
	l-0.207-0.094l-0.207-0.094l-0.224-0.008l-0.769-0.636l-0.769-0.638l-0.492-0.433l-0.443-0.467l0.793-0.497l0.792-0.503l0.442,0.469
	l0.495,0.434l0.226,0.008l0.207,0.095l0.206,0.094l0.226,0.007l0.769,0.637c0.51,0.425,0.98,0.699,1.408,0.829l0.657,0.11
	l0.207,0.096l0.225,0.004l0.937,0.903l0.937,0.906l0.599,0.368l0.603,0.367l-0.841-1.336l-0.838-1.336l-1.105-1.171
	c-0.735-0.777-1.359-1.379-1.871-1.803l-0.769-0.637l-0.831-0.97l-0.774-1.003l0.528-0.331l0.53-0.335l0.441,0.47l0.495,0.435
	l0.768,0.635l0.77,0.64l0.599,0.366l0.601,0.366l0.766,0.639c0.513,0.424,1.282,1.06,2.308,1.906l1.536,1.271l0.83,0.969
	l0.778,1.003l0.529-0.333l0.529-0.332l-0.231-0.603l-0.177-0.634l0.091-0.207l0.006-0.225l0.003-0.228l0.091-0.206l-0.071-0.701
	l-0.071-0.699l0.092-0.206l0.003-0.229l0.005-0.224l0.092-0.209l-0.071-0.696c-0.047-0.47-0.238-2.336-0.569-5.605
	c-0.333-3.271-0.523-11.594-0.574-24.982c-0.052-13.383,0.247-22.887,0.896-28.509c0.645-5.625,1.835-10.969,3.57-16.034
	c1.735-5.063,3.964-10.24,6.689-15.53c2.668-5.304,4.722-9.078,6.162-11.323l2.074-3.389l0.091-0.209l0.007-0.228l0.623-0.766
	l0.626-0.765l0.627-0.768l0.624-0.766l0.005-0.222l0.091-0.211l0.227,0.007l0.207,0.093l0.206,0.095l0.226,0.009l0.337,0.536
	l0.334,0.532l-0.089,0.206l-0.007,0.229l-0.36,0.598l-0.361,0.601l-0.005,0.228l-0.09,0.202l-0.092,0.207l-0.004,0.229l-0.362,0.599
	l-0.361,0.6l-0.005,0.227l-0.09,0.206l-2.122,5.431c-1.411,3.618-2.06,5.641-1.942,6.063c0.154,0.402-0.361,1.422-1.543,3.059
	c-1.209,1.604-2.307,3.887-3.3,6.845c-0.935,2.972-1.357,4.805-1.269,5.493c0.053,0.707-0.14,1.576-0.581,2.596
	c-0.474,1.043-0.651,1.779-0.537,2.2c0.156,0.4-0.029,0.894-0.552,1.47c-0.485,0.553-0.671,1.037-0.553,1.462
	c0.153,0.404,0.051,0.714-0.299,0.936c-0.353,0.224-0.324,1.248,0.088,3.073c0.433,1.862,0.787,3.88,1.064,6.04
	c0.265,2.219,0.477,3.651,0.636,4.295l0.238,0.968l0.336,0.537l0.336,0.538l0.227,0.005l0.204,0.09l0.207,0.097l0.227,0.005
	l0.601,0.372l0.599,0.37l0.494,0.433l0.442,0.466l0.596-0.226l0.629-0.17l0.529-0.335l0.529-0.331l0.004-0.227l0.092-0.208
	l0.091-0.203l0.006-0.225l0.004-0.23l0.091-0.204l-0.072-0.702c-0.049-0.466,0.244-1.645,0.877-3.53
	c0.667-1.914,1.119-3.935,1.353-6.066c0.268-2.16,0.613-3.566,1.033-4.23c0.477-0.646,1.397-3.212,2.76-7.696
	c1.385-4.447,1.965-6.851,1.741-7.205c-0.224-0.359,1.04-3.438,3.785-9.239c2.727-5.833,4.45-9.351,5.172-10.549
	c0.721-1.199,2.03-4.008,3.925-8.428c1.894-4.419,3.313-7.051,4.259-7.896c0.947-0.841,1.995-2.494,3.154-4.96l1.732-3.697
	l0.36-0.598l0.36-0.602l0.529-0.331l0.529-0.332l0.207,0.092l0.226,0.009l0.336,0.533l0.334,0.536l-0.09,0.206l-0.004,0.225
	l-0.458,1.038c-0.305,0.685-0.459,1.106-0.463,1.258l-0.091,0.207l-0.091,0.206l-0.005,0.226l-0.003,0.228l-0.092,0.208
	l-0.091,0.203l-0.004,0.227l4.759-2.988c3.17-1.994,5.118-3.59,5.841-4.789c0.723-1.197,3.54-3.169,8.456-5.91
	c4.939-2.705,7.522-3.879,7.744-3.52c0.224,0.351,0.579,0.328,1.063-0.076c0.46-0.437,0.908-1.289,1.341-2.555
	c0.436-1.268,1.421-2.632,2.959-4.096c1.54-1.465,2.717-2.327,3.534-2.593c0.817-0.265,1.932-0.838,3.341-1.726
	c1.412-0.887,2.539-2.22,3.39-3.993l1.277-2.665l0.005-0.226l0.092-0.211l0.091-0.204l0.005-0.229l0.004-0.225l0.091-0.206
	l0.091-0.207l0.004-0.227l0.361-0.599l0.361-0.6l0.529-0.332l0.531-0.333l0.205,0.094l0.227,0.01l0.334,0.529l0.335,0.536
	l-0.091,0.205l-0.004,0.228l-0.007,0.228l-0.091,0.206l-0.091,0.208l-0.004,0.226l-0.359,0.598l-0.361,0.601l-0.008,0.228
	l-0.089,0.208l-0.092,0.206l-0.005,0.228l-0.005,0.226l-0.091,0.205l-0.091,0.209l-0.004,0.226l-0.431,0.493
	c-0.307,0.293-0.35,0.616-0.124,0.975c0.223,0.354,0.158,0.642-0.193,0.865c-0.354,0.219-0.417,0.509-0.194,0.862
	c0.224,0.359,0.133,0.916-0.28,1.668c-0.375,0.734-0.485,1.497-0.329,2.296c0.098,0.78-0.527,2.841-1.874,6.171
	c-1.348,3.332-2.167,5.164-2.453,5.49c-0.309,0.296-0.62,1.284-0.934,2.973c-0.278,1.667-0.451,2.571-0.511,2.71l-0.005,0.225
	l-0.005,0.227l-0.092,0.209l-0.091,0.205l-0.005,0.225l-0.003,0.228l-0.091,0.207l-0.091,0.206l-0.006,0.228l-0.691,0.657
	l-0.728,0.606l0.229,0.6l0.178,0.635l0.335,0.533l0.336,0.536l0.092-0.204l0.004-0.231l0.005-0.225l0.09-0.206l0.091-0.206
	l0.007-0.228l0.361-0.601l0.361-0.597l0.36-0.601l0.36-0.597l0.362-0.6l0.358-0.601l0.362-0.598c0.242-0.4,1.212-2.376,2.914-5.931
	c1.699-3.552,3.6-6.982,5.703-10.291c2.102-3.31,4.243-5.77,6.421-7.388c2.181-1.619,3.729-3.461,4.641-5.523
	c0.916-2.067,2.064-3.955,3.446-5.67c1.359-1.749,2.243-2.377,2.649-1.887c0.44,0.468,1.17-0.566,2.188-3.091l1.509-3.705
	l0.359-0.598l0.362-0.599l0.362-0.599l0.359-0.599l0.694-0.659l0.727-0.604l0.44,0.467l0.493,0.436l0.226,0.008l0.207,0.094
	l-0.005,0.226l-0.091,0.207l-0.091,0.206l-0.005,0.227l-0.005,0.226l-0.09,0.206l-0.092,0.209l-0.005,0.226l-0.817,1.633
	c-0.546,1.086-0.941,1.831-1.18,2.231l-0.361,0.588l-0.005,0.223l-0.09,0.208l-0.092,0.206l-0.006,0.228l-0.003,0.226l-0.092,0.205
	l-0.091,0.209l-0.005,0.226l1.49-0.563l1.49-0.563l1.586-0.994c1.057-0.667,2.732-1.719,5.024-3.157
	c2.291-1.44,4.789-5.172,7.495-11.193c2.717-6.082,5.315-11.265,7.787-15.548c2.468-4.285,4.18-6.85,5.121-7.692
	c0.949-0.842,1.557-0.854,1.827-0.028c0.272,0.82,1.32,0.612,3.144-0.634c1.767-1.259,3.26-3.265,4.479-6.02
	c1.222-2.753,3.908-6.306,8.063-10.652c4.147-4.348,6.648-7.409,7.502-9.187l1.274-2.665l0.005-0.227l0.093-0.205l0.089-0.207
	l0.006-0.229l0.006-0.225l0.091-0.207l0.093-0.207l0.004-0.226l0.363-0.6l0.359-0.599l0.432-0.494l0.459-0.438l0.565,1.135
	l0.51,1.169l-0.088,0.205l-0.006,0.227l-0.007,0.229l-0.091,0.207l0.409,1.233l0.407,1.235l0.174,0.633
	c0.155,0.401-0.371,1.6-1.574,3.599c-1.201,1.999-1.663,3.605-1.392,4.825l0.376,1.773l-0.36,0.602l-0.362,0.598l-0.004,0.226
	l-0.092,0.208l-0.093,0.205l-0.004,0.228l-0.007,0.227l-0.088,0.206l0.242,0.969l0.235,0.968l0.176,0.634l0.232,0.599l0.462-0.441
	l0.428-0.491l0.361-0.598l0.36-0.601l0.006-0.228l0.09-0.207l0.091-0.207l0.007-0.226l0.005-0.226l0.092-0.208l0.093-0.205
	l0.005-0.229l0.361-0.596l0.361-0.602l0.002-0.226c0.062-0.138,0.866-1.984,2.42-5.544c1.564-3.614,4.618-7.473,9.173-11.576
	l6.828-6.155l0.53-0.333l0.529-0.33l0.626-0.171l0.597-0.226l0.232,0.6l0.174,0.635l0.072,0.699l0.069,0.702l-0.09,0.205
	l-0.004,0.226l-0.007,0.228l-0.091,0.206l-0.093,0.208l-0.006,0.227l-0.002,0.227l-0.093,0.208l-0.095,0.204l-0.002,0.229
	l-2.579,6.461c-1.717,4.309-3.247,8.45-4.585,12.421c-1.331,3.915-2.782,8.805-4.358,14.663c-1.637,5.85-2.902,9.625-3.798,11.33
	c-0.916,1.672-1.503,3.28-1.757,4.832c-0.28,1.516-0.558,2.436-0.846,2.766c-0.307,0.293-0.607,1.574-0.902,3.845
	c-0.271,2.307-1.051,6.425-2.345,12.356c-1.347,5.913-2.128,9.681-2.336,11.305c-0.211,1.624-0.344,2.502-0.405,2.641l-0.007,0.227
	l-0.004,0.227l-0.09,0.208l-0.091,0.206l-0.009,0.226l-0.359,0.599l-0.362,0.599l-0.005,0.228l-0.09,0.205l0.069,0.699l0.07,0.702
	l0.179,0.635l0.23,0.6l0.99-0.771l0.956-0.823l0.007-0.226l0.088-0.21l0.093-0.206l0.006-0.226l0.89-0.931
	c0.597-0.619,2.028-2.641,4.309-6.06c2.273-3.419,5.774-12.324,10.495-26.722c4.726-14.394,8.312-27.082,10.758-38.057
	c2.442-10.979,3.868-17.513,4.274-19.606c0.385-2.131,0.901-3.772,1.551-4.926c0.617-1.131,1.7-3.798,3.238-7.997
	c1.541-4.196,4.29-7.337,8.241-9.423c3.963-2.144,7.228-3.523,9.789-4.14c2.564-0.616,4.639-1.422,6.227-2.419
	c1.585-0.995,3.749-3.224,6.49-6.687l4.114-5.195l0.362-0.6l0.358-0.597l0.361-0.599l0.359-0.599l0.267-0.166l0.266-0.166
	l0.626-0.17l0.596-0.228l0.568,1.137l0.512,1.169l-0.092,0.205l-0.004,0.226l-0.008,0.228l-0.09,0.205l-0.095,0.209l-0.002,0.226
	l-0.005,0.227l-0.092,0.208l-0.091,0.205c-0.005,0.152-0.047,0.749-0.129,1.793l-0.121,1.568l-0.007,0.226l-0.09,0.207l-0.093,0.205
	l-0.005,0.227l-0.004,0.228l-0.09,0.207l-0.095,0.206l-0.005,0.228l-0.006,0.227l-0.089,0.206l0.073,0.702l0.065,0.701l-0.09,0.205
	l-0.006,0.227l-0.006,0.226l-0.092,0.207l-0.09,0.206l-0.004,0.228l0.795-0.499l0.792-0.498l0.005-0.227l0.09-0.208l0.089-0.206
	l0.008-0.228l0.007-0.227l0.092-0.206l0.091-0.205l0.005-0.229l0.007-0.226l0.09-0.205l0.09-0.21l0.008-0.225l0.006-0.228
	l0.09-0.204l0.093-0.208l0.007-0.229l0.002-0.226l0.093-0.206l0.091-0.208l0.004-0.226l0.006-0.227
	c0.063-0.14,0.232-0.494,0.511-1.067c0.265-0.514,0.404-1.941,0.406-4.28c-0.014-2.374,0.131-3.708,0.439-4
	c0.284-0.33,0.559-1.147,0.819-2.453c0.317-1.295,0.861-2.382,1.634-3.264c0.83-0.87,1.241-1.624,1.235-2.266
	c-0.021-0.583,0.896-2.404,2.763-5.463c1.921-3.045,5.799-6.772,11.633-11.183c5.834-4.413,9.934-7.86,12.309-10.345
	c2.374-2.482,4.643-5.524,6.808-9.119l3.247-5.398l0.008-0.227l0.09-0.206l0.091-0.205l0.007-0.228l0.004-0.228l0.092-0.205
	l0.092-0.207l0.004-0.226l0.007-0.228l0.093-0.207l0.091-0.205l0.004-0.228l0.532-0.333l0.527-0.332l0.205,0.095l0.225,0.008
	l0.674,1.068l0.672,1.068l-0.092,0.207l-0.006,0.226l-0.004,0.227l-0.094,0.208l-0.093,0.208l-0.004,0.227l-0.007,0.227l-0.09,0.206
	l0.073,0.7c0.046,0.467,0.254,1.578,0.62,3.336c0.363,1.756,0.489,5.28,0.372,10.572c-0.114,5.292-0.307,8.392-0.572,9.304
	c-0.298,0.934-0.313,1.81-0.042,2.633c0.272,0.823,0.253,1.383-0.054,1.676c-0.284,0.328-0.476,2.684-0.574,7.065l-0.058,6.597
	l0.068,0.701l0.072,0.701l0.069,0.699l0.07,0.702l-0.088,0.207l-0.005,0.226l-0.008,0.226l-0.091,0.207l-0.091,0.209l-0.008,0.227
	l-0.005,0.227l-0.092,0.205l-0.09,0.206l-0.004,0.227l0.53-0.331l0.523-0.331l0.363-0.6l0.36-0.601l0.007-0.226l0.09-0.207
	l0.093-0.205l0.005-0.228l0.36-0.599l0.362-0.599l0.006-0.226l0.092-0.207l0.09-0.207l0.006-0.228l0.005-0.228l0.093-0.206
	l1.095-3.299c0.703-2.177,1.294-6.598,1.774-13.262c0.509-6.628,1.166-12.432,1.971-17.41c0.805-4.979,1.785-9.994,2.939-15.04
	c1.096-5.062,1.457-7.774,1.083-8.134c-0.359-0.419,1.182-2.583,4.63-6.487c3.447-3.905,5.412-6.256,5.893-7.055
	c0.479-0.801,1.935-2.209,4.352-4.226c2.423-2.017,4.018-3.393,4.785-4.125l1.152-1.097l0.361-0.599l0.363-0.6l0.955-0.824
	l0.994-0.772l0.397,0.868l0.342,0.903l0.071,0.698l0.071,0.703l-0.092,0.206c-0.002,0.151-0.082,1.195-0.243,3.134l-0.151,2.928
	l-0.092,0.207l-0.008,0.227l-0.004,0.227l-0.091,0.207l0.179,0.634l0.229,0.6l0.988-0.772l0.957-0.822l0.89-0.931l0.887-0.932
	l3.464-3.296c2.314-2.196,3.675-3.547,4.092-4.06l0.622-0.764l0.364-0.6l0.359-0.599l0.005-0.227l0.096-0.207l0.088-0.208
	l0.004-0.227l0.795-0.497l0.792-0.5l0.208,0.093l0.228,0.008l0.332,0.535l0.336,0.534l0.178,0.633l0.229,0.602l-0.462,0.441
	l-0.428,0.491l-0.006,0.227c-0.063,0.138-0.02,0.906,0.124,2.307l0.209,2.102l-0.088,0.208l-0.006,0.226l-0.005,0.227l-0.093,0.207
	l-0.088,0.207l-0.006,0.227l-0.005,0.227l-0.094,0.206l-0.089,0.207l-0.008,0.227l-0.008,0.227l-0.09,0.208l0.338,0.533l0.331,0.534
	l0.095-0.207l0.002-0.227l1.158-1.096l1.155-1.099l0.622-0.766c0.42-0.508,0.938-1.133,1.557-1.872
	c0.63-0.793,2.186-1.844,4.658-3.149c2.506-1.33,3.651-2.17,3.427-2.528c-0.226-0.356,0.107-0.612,0.992-0.77
	c0.86-0.195,1.501-0.545,1.917-1.059c0.416-0.508,3.878-2.633,10.381-6.371c6.521-3.703,9.674-5.731,9.449-6.089
	c-0.223-0.355-0.139-0.608,0.257-0.758l0.635-0.171l0.205,0.091l0.224,0.009l0.095-0.207l0.002-0.226l0.63-0.766l0.622-0.766
	l0.795-0.496l0.795-0.501l0.204,0.093l0.224,0.007l0.339,0.535l0.334,0.535l-0.089,0.204l-0.009,0.229l-0.622,0.765l-0.628,0.765
	l-0.36,0.601l-0.363,0.599l-0.002,0.227l-0.096,0.207l-0.089,0.205l-0.004,0.227l-0.362,0.599c-0.239,0.4-1.59,2.365-4.04,5.894
	c-2.458,3.53-3.919,6.015-4.394,7.454c-0.457,1.383-1.156,2.616-2.096,3.703c-0.903,1.065-1.245,1.775-1.021,2.131
	c0.224,0.357-0.058,1.081-0.851,2.175c-0.765,1.126-1.738,2.629-2.915,4.514c-1.165,1.825-2.021,2.959-2.58,3.409
	c-0.563,0.507-1.122,1.304-1.667,2.39c-0.547,1.089-1.226,1.963-2.039,2.625c-0.84,0.622-1.146,1.313-0.915,2.066l0.308,1.075
	l-0.207-0.094l-0.229-0.006l-0.494-0.435l-0.439-0.467l-0.464,0.438l-0.426,0.492l-0.007,0.228l-0.091,0.205l-0.09,0.207
	l-0.007,0.227l-0.006,0.228l-0.089,0.207l-0.09,0.207l-0.01,0.226l-0.004,0.227l-0.092,0.205l0.176,0.635l0.231,0.602l0.597-0.227
	l0.628-0.172l0.697-0.064l0.696-0.067l0.962-0.231c0.639-0.154,1.835-0.604,3.576-1.352l2.645-1.068l0.339,0.534l0.336,0.536
	l-0.464,0.438l-0.428,0.494l-0.005,0.227l-0.091,0.206l-0.09,0.208l-0.009,0.226l-0.889,0.93l-0.89,0.935l-3.819,3.893
	c-2.553,2.592-4.441,4.278-5.676,5.055c-1.233,0.774-2.174,1.436-2.809,1.987l-0.99,0.773l0.333,0.533l0.336,0.534l0.597-0.226
	c0.421-0.113,1.005-0.159,1.76-0.136l1.129,0.036l-0.365,0.599c-0.239,0.399-0.743,1.165-1.51,2.29l-1.183,1.639l0.775,1.002
	c0.556,0.646,1.15,0.969,1.788,0.966c0.582-0.02,1.337,0.25,2.278,0.805l1.425,0.744l-0.092,0.205l-0.007,0.227l-0.005,0.227
	l-0.092,0.205l-0.09,0.207l-0.007,0.228l-0.359,0.6c-0.24,0.397-2.35,2.715-6.327,6.954l-5.963,6.356l-0.427,0.493l-0.464,0.44
	l0.44,0.467l0.497,0.436l0.225,0.009l0.206,0.092l0.206,0.094l0.226,0.005l0.229,0.007l0.204,0.094l0.208,0.093l0.222,0.008
	l0.23,0.007c0.139,0.063,0.766-0.185,1.895-0.744l1.652-0.888l0.438,0.467l0.497,0.435l0.334,0.536l0.336,0.533l-0.094,0.207
	l-0.002,0.227l-0.361,0.6c-0.24,0.397-0.572,0.855-0.988,1.367c-0.417,0.508-0.433,1.069-0.054,1.672
	c0.402,0.64,0.868,0.796,1.398,0.464c0.527-0.333,1.053-0.164,1.57,0.506l0.827,0.967l0.504,0.801l0.505,0.802l-0.093,0.208
	l-0.002,0.227l-4.136,2.222c-2.754,1.485-4.718,2.469-5.891,2.957l-1.751,0.728l-0.263,0.168l-0.268,0.166l-0.004,0.228l-0.09,0.204
	l-0.093,0.207l-0.009,0.226l0.208,0.094l0.229,0.006l0.224,0.01l0.207,0.093l0.206,0.093l0.226,0.006l0.598,0.366
	c0.403,0.248,1.071,0.449,2.007,0.606c0.969,0.136,1.6,0.36,1.896,0.672l0.495,0.435l0.334,0.533l0.337,0.535l-0.094,0.207
	l-0.007,0.226l-0.357,0.602l-0.359,0.598l-9.526,10.081c-6.345,6.722-9.938,10.594-10.771,11.615
	c-0.836,1.022-1.323,2.396-1.464,4.124c-0.166,1.697-0.399,3.009-0.696,3.941c-0.265,0.912-0.205,1.944,0.173,3.095
	c0.323,1.139,0.341,1.874,0.056,2.202c-0.303,0.294-0.238,0.794,0.209,1.509c0.446,0.711,0.497,1.18,0.141,1.4
	c-0.35,0.22-0.478,0.6-0.388,1.14c0.115,0.573-0.834,1.992-2.857,4.254c-2.02,2.261-3.679,3.928-4.978,4.991
	s-2.422,1.819-3.371,2.266l-1.39,0.726l0.444,0.464l0.492,0.437l0.227,0.008l0.205,0.093l0.206,0.095l0.228,0.007l0.6,0.367
	c0.396,0.246,0.767,0.514,1.092,0.805c0.297,0.311,0.87,0.445,1.73,0.402l1.239-0.03l0.22,0.007l0.208,0.093l-0.007,0.228
	l-0.09,0.205l-0.09,0.21l-0.006,0.225l-0.004,0.227l-0.094,0.208l-0.089,0.205l-0.006,0.226l-0.002,0.228l-0.095,0.207l-5.503,7.33
	c-3.677,4.944-7.432,8.87-11.259,11.771c-3.831,2.907-6.226,5.079-7.187,6.526c-0.899,1.461-1.381,2.259-1.444,2.399l-0.002,0.228
	l-0.695,0.658l-0.727,0.604l0.229,0.6l0.179,0.635l-0.091,0.207l-0.008,0.224l-0.004,0.23l-0.091,0.206l-0.091,0.204l-0.008,0.227
	l0.207,0.095l0.229,0.009l0.225,0.004l0.207,0.095l0.204,0.093l0.228,0.008l0.225,0.006l0.205,0.095l0.208,0.093
	c0.148,0.004,0.804,0.265,1.962,0.779c1.196,0.491,1.968,0.626,2.323,0.406c0.354-0.223,0.641-0.154,0.861,0.201
	c0.223,0.357,0.779,0.453,1.663,0.297l1.292-0.29l0.206,0.093l0.228,0.007l0.225,0.009l0.208,0.093l0.206,0.094l0.227,0.006
	l0.503,0.803l0.503,0.8l-0.092,0.208l-0.002,0.226l-5.999,5.481c-3.986,3.597-6.247,6.261-6.782,7.988
	c-0.521,1.673-1.988,3.139-4.392,4.4c-2.403,1.26-4.076,2.315-5.022,3.158l-1.419,1.262l-0.694,0.659l-0.725,0.604l0.945,1.268
	c0.663,0.828,1.605,1.229,2.823,1.21l1.826-0.029l0.228,0.006l0.204,0.094l0.207,0.094l0.225,0.006l0.494,0.437l0.441,0.466
	l-0.46,0.439l-0.429,0.493l-4.524,3.364c-2.992,2.277-4.377,3.596-4.154,3.952c0.223,0.357-2.996,2.082-9.656,5.171
	c-6.688,3.059-10.437,4.722-11.254,4.982c-0.815,0.264-1.488,0.566-2.019,0.899l-0.792,0.499l-0.005,0.226l-0.093,0.205
	l-0.227-0.005l-0.204-0.093l-0.207-0.093l-0.228-0.009l-0.224-0.006l-0.209-0.095l-0.694,0.067l-0.695,0.062l-0.793,0.502
	l-0.796,0.496l0.208,0.092l0.225,0.008l0.496,0.436l0.441,0.469l0.597-0.228l0.628-0.17l0.697-0.065l0.699-0.064l0.204,0.094
	l0.225,0.005l0.229,0.009l0.202,0.094l0.208,0.092l0.225,0.009l0.228,0.009c0.139,0.059,1.311-0.108,3.521-0.502
	c2.21-0.394,5.354-0.556,9.431-0.485l6.134,0.022l0.091-0.206l0.008-0.228l0.526-0.333l0.53-0.33l0.203,0.093l0.228,0.008
	l0.336,0.534l0.336,0.535l-0.093,0.206l-0.004,0.225l-0.004,0.227l-0.092,0.208l-0.094,0.208l-0.004,0.226l-0.005,0.226
	l-0.091,0.206l-0.094,0.209l-0.002,0.226l-0.734,4.707c-0.463,3.173-1.045,5.179-1.749,6.016c-0.725,0.805-3.042,1.812-6.948,3.027
	c-3.908,1.214-6.424,2.099-7.552,2.654l-1.653,0.895l0.337,0.534c0.223,0.356,0.532,0.458,0.932,0.307
	c0.42-0.111,0.811,0.037,1.169,0.457c0.375,0.365,0.416,1.875,0.128,4.543l-0.438,4.001l-0.09,0.207l-0.01,0.227l-0.889,0.929
	c-0.593,0.626-2.395,0.885-5.405,0.787c-3.011-0.094-5.107,0.404-6.289,1.495c-1.127,1.105-2.44,2.923-3.948,5.459
	c-1.447,2.548-2.475,4.513-3.084,5.891c-0.61,1.375-1.234,2.341-1.874,2.891c-0.657,0.512-0.879,0.95-0.651,1.307
	c0.223,0.354-0.019,0.752-0.719,1.199c-0.712,0.44-1.015,0.929-0.923,1.469c0.109,0.575-0.662,1.88-2.329,3.924
	c-1.667,2.043-4.457,3.668-8.364,4.883c-3.912,1.214-6.008,1.986-6.294,2.31c-0.308,0.297-0.349,0.621-0.124,0.978
	c0.223,0.354-0.035,0.645-0.785,0.865c-0.709,0.194-0.95,0.596-0.721,1.198c0.265,0.58-0.414,1.926-2.037,4.037
	c-1.602,2.148-3.011,4.598-4.231,7.354c-1.218,2.754-2.222,4.873-3.009,6.361c-0.786,1.484-1.793,3.289-3.024,5.402
	c-1.239,2.173-1.284,3.389-0.133,3.66c1.154,0.272,1.897,0.674,2.233,1.206l0.502,0.805l-0.088,0.205l-0.009,0.227l-8.557,5.749
	c-5.706,3.833-12.267,6.417-19.69,7.749c-7.411,1.275-12.015,1.933-13.809,1.971c-1.854,0.023-3.167,0.201-3.942,0.535
	c-0.748,0.375-1.182,1.641-1.3,3.8c-0.094,2.198-1.104,3.528-3.026,3.987c-1.921,0.465-3.703,0.641-5.346,0.529
	c-1.655-0.053-2.559-0.078-2.71-0.087l-0.206-0.095l-0.698,0.066l-0.694,0.066l-1.06,0.662l-1.058,0.665l0.207,0.097l0.227,0.009
	l0.504,0.798l0.503,0.802l0.334,0.537l0.338,0.533l0.336,0.535c0.221,0.354,0.307,0.601,0.244,0.738
	c-0.004,0.151,0.961,1.186,2.901,3.097l2.876,2.814l-0.46,0.439l-0.434,0.493l-6.15,3.119c-4.103,2.081-8.316,3.983-12.642,5.704
	c-4.327,1.728-7.288,3.465-8.892,5.22c-1.605,1.749-2.413,3.007-2.432,3.762c-0.014,0.755-0.196,1.564-0.54,2.429
	c-0.329,0.801-0.347,2.227-0.043,4.271c0.303,2.047,1.061,3.136,2.274,3.271c1.154,0.115,1.942,0.115,2.364,0.004l0.597-0.228
	l0.395,0.87l0.346,0.901l-0.092,0.203l-0.003,0.229l-0.625,0.766l-0.626,0.767l-6.875,4.316c-4.585,2.882-13.101,6.07-25.553,9.57
	c-12.439,3.445-23.511,6.173-33.206,8.195c-9.685,1.959-17.03,2.946-22.035,2.962c-5.019,0.071-10.155-0.354-15.407-1.275
	c-5.25-0.923-8.042-1.529-8.372-1.822c-0.295-0.311-2.035-0.657-5.224-1.04c-3.169-0.344-4.963-0.459-5.383-0.346
	c-0.396,0.151-0.176,1.204,0.661,3.163c0.871,1.936,1.131,4.306,0.778,7.112c-0.293,2.818-0.584,4.393-0.871,4.721
	c-0.306,0.293-0.62-0.01-0.934-0.901c-0.34-0.934-0.384-2.292-0.135-4.093c0.235-1.735-0.057-3.144-0.879-4.216
	c-0.811-1.129-1.263-0.796-1.361,1.003c-0.1,1.8-0.812,4.189-2.14,7.161c-1.353,2.935-2.077,3.736-2.174,2.409
	c-0.075-1.296,0.21-3.46,0.856-6.503c0.705-3.024,0.887-4.929,0.542-5.709c-0.375-0.755-2.433,0.586-6.169,4.03
	c-3.717,3.472-6.474,6.597-8.274,9.372c-1.856,2.754-3.035,4.91-3.533,6.467c-0.5,1.554-0.235,2.758,0.789,3.603
	c1.024,0.847,3.23,1.894,6.623,3.143c3.333,1.237,5.233,1.832,5.696,1.789c0.465-0.044,0.943-0.145,1.431-0.303
	c0.503-0.219,1.01-0.11,1.523,0.309c0.512,0.422,0.828,0.85,0.944,1.273c0.155,0.395,0.556,0.644,1.201,0.732
	c0.683,0.07,2.276,0.807,4.783,2.212c2.47,1.429,3.388,2.343,2.755,2.742c-0.6,0.376-2.121,1.083-4.565,2.124
	c-2.411,1.02-3.33,2.838-2.764,5.461c0.531,2.646,0.654,3.938,0.367,3.867c-0.288-0.067-0.316,0.201-0.086,0.801
	c0.265,0.582,0.219,0.981-0.133,1.204c-0.353,0.222-1.558-1.507-3.622-5.177c-2.061-3.674-3.248-5.291-3.559-4.845
	c-0.348,0.466-3.018-0.267-8.016-2.193c-5.056-1.942-8.346-2.759-9.87-2.447c-1.502,0.347-2.364,0.348-2.589-0.015
	c-0.225-0.351-0.512-0.42-0.865-0.199c-0.352,0.221-0.36,0.601-0.026,1.134c0.336,0.533,1.118,0.915,2.34,1.137
	c1.258,0.203,2.563,0.872,3.918,2.012c1.317,1.158,1.27,1.982-0.143,2.473c-1.391,0.524-2.612,1.049-3.667,1.562
	c-0.995,0.526-1.661,0.644-1.989,0.354c-0.295-0.31-2.22,0.027-5.776,1.02c-3.558,0.993-5.042,2.427-4.459,4.293
	c0.549,1.895,1.316,3.896,2.299,6.006c0.948,2.141,1.053,3.317,0.306,3.536c-0.713,0.2-1.637-0.879-2.778-3.245
	c-1.13-2.42-2.112-3.046-2.949-1.874c-0.896,1.156-1.323,2.669-1.283,4.531c0.053,1.805-0.166,2.791-0.657,2.946
	c-0.501,0.219-1.033-0.119-1.594-1.01c-0.56-0.89-0.941-1.894-1.149-3.003c-0.207-1.114-0.134-1.781,0.218-2.005
	c0.353-0.215,0.045-1.217-0.923-2.991c-0.981-1.722-6.029-9.292-18.391-1.167c-6.632,3.918-32.326,15.61-33.467,13.244
	c-1.127-2.418,7.044-8.563,9.272-9.713c2.229-1.152,7.427-5.09,12.539-8.3c5.112-3.212,8.883-6.59,10.773-8.124
	c5.298-3.709-0.696-7.207-2.471-10.818c-1.775-3.599-2.635-5.868-2.579-6.801c0.042-0.867,0.295-1.522,0.757-1.964
	c0.483-0.403,0.613-0.782,0.391-1.136c-0.226-0.36-0.16-0.647,0.194-0.871c0.353-0.22,0.343-1.209-0.023-2.965
	c-0.366-1.758-0.746-2.639-1.142-2.636c-0.357-0.023-0.87-0.45-1.534-1.273c-0.63-0.846-0.769-1.379-0.416-1.601
	c0.352-0.224-0.057-1.578-1.232-4.072c-1.208-2.472-1.523-3.638-0.946-3.505c0.576,0.134,1.458,0.87,2.645,2.211
	c1.243,1.355,2.909,2.049,4.994,2.082c2.142,0.045,3.481,0.765,4.018,2.172c0.503,1.42,1.083,1.804,1.748,1.136
	c0.699-0.688,1.152-1.841,1.364-3.466c0.21-1.62,0.98-0.862,2.313,2.274c1.368,3.114,2.862,3.616,4.484,1.504
	c1.6-2.148,2.343-3.509,2.23-4.084c-0.094-0.538,0.039-0.918,0.39-1.139c0.352-0.22,0.334-3.067-0.054-8.539
	c-0.353-5.492-0.91-9.116-1.67-10.874c-0.726-1.782-0.911-2.785-0.559-3.007c0.353-0.22,1.167,0.763,2.438,2.942
	c1.237,2.204,1.976,4.476,2.212,6.809c0.238,2.335,0.866,5.296,1.885,8.877c1.023,3.582,1.87,5.909,2.541,6.976
	c0.672,1.065,1.512,2.403,2.517,4.006c1.008,1.605,1.827,1.338,2.452-0.795c0.627-2.131,1.24-3.388,1.838-3.764
	c0.635-0.395,0.817-1.011,0.546-1.832c-0.271-0.822,0.141-2.124,1.234-3.908c1.072-1.813,1.943-3.755,2.614-5.813
	C79.137,427.956,79.296,426.563,78.919,425.808z M173.356,393.449l-0.225-0.002l-0.226-0.008l-0.207-0.092l-0.207-0.098
	l-0.226-0.008l-0.226-0.01l-0.205-0.088l-0.206-0.098l-0.228-0.007l-0.224-0.008l-0.207-0.094l-0.207-0.093l-0.226-0.005
	l-0.599-0.368l-0.601-0.369l-0.225-0.01l-0.21-0.096l-0.206-0.093l-0.226-0.005l-0.222-0.01l-0.208-0.094l0.791-0.498l0.792-0.5
	l0.207,0.091l0.228,0.012l0.225,0.005l0.207,0.098l0.962-0.233l0.96-0.23l0.204,0.095l0.227,0.006l0.226,0.007l0.206,0.097
	l0.207,0.09l0.226,0.011l7.335,0.76c4.876,0.561,9.902,0.458,15.074-0.308c5.173-0.765,8.392-1.122,9.655-1.072
	c1.282,0.089,3.046,0.548,5.288,1.375c2.239,0.824,3.917,1.264,5.027,1.31c1.148,0.028,1.886,0.184,2.216,0.475
	c0.293,0.312,1.101,0.42,2.425,0.336c1.287-0.063,2.096,0.05,2.428,0.339c0.293,0.313-0.75,0.921-3.135,1.823
	c-2.407,0.862-7.192,1.386-14.356,1.566c-7.152,0.12-11.428,0.125-12.829,0.011c-1.435-0.093-2.617-0.293-3.549-0.602
	c-0.911-0.275-2.407-0.426-4.492-0.459c-2.141-0.047-3.378-0.212-3.709-0.504c-0.292-0.308-1.339-0.646-3.14-1.008
	c-1.835-0.336-3.01-0.643-3.525-0.912C173.849,393.689,173.493,393.517,173.356,393.449z M223.813,326.202l6.08-3.82l0.207,0.094
	l0.225,0.005l0.092-0.207l0.004-0.229l0.792-0.495l0.794-0.499l1.228-0.397l1.227-0.397l-0.363,0.599l-0.359,0.599l-0.362,0.6
	l-0.361,0.6l-0.361,0.598l-0.358,0.599l-0.008,0.229l-0.09,0.206l-0.091,0.205l-0.005,0.229l-1.084,1.796
	c-0.72,1.201-4.449,4.658-11.179,10.384c-6.732,5.717-12.182,9.761-16.349,12.129c-4.165,2.371-5.655,2.934-4.467,1.689
	c1.186-1.24,3.646-3.782,7.381-7.616c3.736-3.841,6.558-6.978,8.466-9.422C216.776,331.242,219.757,328.744,223.813,326.202z
	 M359.91,250.158c0.137,0.062,0.204,0.168,0.199,0.319c-0.063,0.139-0.147,0.121-0.254-0.057
	C359.739,250.239,359.761,250.154,359.91,250.158z M352.926,135.741l0.007-0.227l0.006-0.227l0.092-0.207l0.092-0.204l0.003-0.229
	l0.008-0.226l0.093-0.207l0.088-0.206l0.009-0.226l0.004-0.229l0.091-0.206l0.09-0.206l0.004-0.228l0.01-0.226l0.093-0.207
	l0.09-0.207l0.002-0.226l0.364-0.601l0.359-0.6l0.43-0.49l0.462-0.439l0.232,0.6l0.177,0.633l-0.097,0.207l-0.004,0.228
	l-0.006,0.228l-0.09,0.205l-0.092,0.205l-0.004,0.228l-0.008,0.226l-0.091,0.208l-0.092,0.208l-0.003,0.226l-0.008,0.226
	l-0.09,0.207l0.069,0.699l0.07,0.702l-0.088,0.207l-0.008,0.226l-1.272,8.776c-0.86,5.906-1.255,9.582-1.183,11.028
	c0.034,1.465-0.293,3.29-0.991,5.465c-0.73,2.2-1.298,8.269-1.69,18.207c-0.395,9.938-0.887,15.884-1.479,17.843
	c-0.597,2.019-1.128,3.245-1.592,3.685c-0.483,0.405-0.785,1.093-0.914,2.067c-0.147,0.938-0.605,1.971-1.374,3.098
	c-0.789,1.091-1.071,1.815-0.847,2.171c0.225,0.358-0.955,2.391-3.54,6.104c-2.565,3.746-4.269,5.808-5.11,6.191
	c-0.858,0.436-1.11,0.423-0.764-0.042c0.309-0.443,0.355-0.845,0.13-1.202c-0.223-0.355,0.97-3.465,3.58-9.329
	c2.577-5.843,3.804-8.973,3.688-9.396c-0.155-0.399,0.113-1.691,0.815-3.865c0.731-2.199,1.547-5.322,2.45-9.366
	c0.899-4.044,1.293-6.278,1.174-6.7c-0.153-0.401,0.047-1.646,0.604-3.735c0.519-2.065,0.968-3.464,1.343-4.197
	c0.413-0.755,0.697-2.375,0.856-4.859c0.181-2.45,0.361-5.296,0.538-8.536c0.198-3.207,0.576-5.854,1.134-7.941
	c0.519-2.066,0.997-5.101,1.438-9.101C352.621,137.949,352.867,135.879,352.926,135.741z M278.742,254.797
	c0.296,0.312,0.242,0.468-0.148,0.463c-0.361-0.023-0.51-0.176-0.443-0.465C278.217,254.505,278.412,254.505,278.742,254.797z
	 M188.263,285.706c0.139,0.063,0.206,0.168,0.201,0.321c-0.058,0.135-0.146,0.118-0.258-0.063
	C188.096,285.786,188.114,285.7,188.263,285.706z M279.676,193.243c-0.48,1.195-0.795,1.593-0.949,1.192
	c-0.117-0.422,0.14-1.033,0.77-1.825C280.116,191.873,280.176,192.083,279.676,193.243z"/>
<path fill="#FCFCFC" d="M173.356,393.449l-0.225-0.002l-0.226-0.008l-0.207-0.092l-0.207-0.098
	l-0.226-0.008l-0.226-0.01l-0.205-0.088l-0.206-0.098l-0.228-0.007l-0.224-0.008l-0.207-0.094l-0.207-0.093l-0.226-0.005
	l-0.599-0.368l-0.601-0.369l-0.225-0.01l-0.21-0.096l-0.206-0.093l-0.226-0.005l-0.222-0.01l-0.208-0.094l0.791-0.498l0.792-0.5
	l0.207,0.091l0.228,0.012l0.225,0.005l0.207,0.098l0.962-0.233l0.96-0.23l0.204,0.095l0.227,0.006l0.226,0.007l0.206,0.097
	l0.207,0.09l0.226,0.011l7.335,0.76c4.876,0.561,9.902,0.458,15.074-0.308c5.173-0.765,8.392-1.122,9.655-1.072
	c1.282,0.089,3.046,0.548,5.288,1.375c2.239,0.824,3.917,1.264,5.027,1.31c1.148,0.028,1.886,0.184,2.216,0.475
	c0.293,0.312,1.101,0.42,2.425,0.336c1.287-0.063,2.096,0.05,2.428,0.339c0.293,0.313-0.75,0.921-3.135,1.823
	c-2.407,0.862-7.192,1.386-14.356,1.566c-7.152,0.12-11.428,0.125-12.829,0.011c-1.435-0.093-2.617-0.293-3.549-0.602
	c-0.911-0.275-2.407-0.426-4.492-0.459c-2.141-0.047-3.378-0.212-3.709-0.504c-0.292-0.308-1.339-0.646-3.14-1.008
	c-1.835-0.336-3.01-0.643-3.525-0.912C173.849,393.689,173.493,393.517,173.356,393.449z"/>
<path fill="#FBFBFB" d="M223.813,326.202l6.08-3.82l0.207,0.094l0.225,0.005l0.092-0.207
	l0.004-0.229l0.792-0.495l0.794-0.499l1.228-0.397l1.227-0.397l-0.363,0.599l-0.359,0.599l-0.362,0.6l-0.361,0.6l-0.361,0.598
	l-0.358,0.599l-0.008,0.229l-0.09,0.206l-0.091,0.205l-0.005,0.229l-1.084,1.796c-0.72,1.201-4.449,4.658-11.179,10.384
	c-6.732,5.717-12.182,9.761-16.349,12.129c-4.165,2.371-5.655,2.934-4.467,1.689c1.186-1.24,3.646-3.782,7.381-7.616
	c3.736-3.841,6.558-6.978,8.466-9.422C216.776,331.242,219.757,328.744,223.813,326.202z"/>
<path fill="#F5F5F5" d="M352.926,135.741l0.007-0.227l0.006-0.227l0.092-0.207l0.092-0.204
	l0.003-0.229l0.008-0.226l0.093-0.207l0.088-0.206l0.009-0.226l0.004-0.229l0.091-0.206l0.09-0.206l0.004-0.228l0.01-0.226
	l0.093-0.207l0.09-0.207l0.002-0.226l0.364-0.601l0.359-0.6l0.43-0.49l0.462-0.439l0.232,0.6l0.177,0.633l-0.097,0.207l-0.004,0.228
	l-0.006,0.228l-0.09,0.205l-0.092,0.205l-0.004,0.228l-0.008,0.226l-0.091,0.208l-0.092,0.208l-0.003,0.226l-0.008,0.226
	l-0.09,0.207l0.069,0.699l0.07,0.702l-0.088,0.207l-0.008,0.226l-1.272,8.776c-0.86,5.906-1.255,9.582-1.183,11.028
	c0.034,1.465-0.293,3.29-0.991,5.465c-0.73,2.2-1.298,8.269-1.69,18.207c-0.395,9.938-0.887,15.884-1.479,17.843
	c-0.597,2.019-1.128,3.245-1.592,3.685c-0.483,0.405-0.785,1.093-0.914,2.067c-0.147,0.938-0.605,1.971-1.374,3.098
	c-0.789,1.091-1.071,1.815-0.847,2.171c0.225,0.358-0.955,2.391-3.54,6.104c-2.565,3.746-4.269,5.808-5.11,6.191
	c-0.858,0.436-1.11,0.423-0.764-0.042c0.309-0.443,0.355-0.845,0.13-1.202c-0.223-0.355,0.97-3.465,3.58-9.329
	c2.577-5.843,3.804-8.973,3.688-9.396c-0.155-0.399,0.113-1.691,0.815-3.865c0.731-2.199,1.547-5.322,2.45-9.366
	c0.899-4.044,1.293-6.278,1.174-6.7c-0.153-0.401,0.047-1.646,0.604-3.735c0.519-2.065,0.968-3.464,1.343-4.197
	c0.413-0.755,0.697-2.375,0.856-4.859c0.181-2.45,0.361-5.296,0.538-8.536c0.198-3.207,0.576-5.854,1.134-7.941
	c0.519-2.066,0.997-5.101,1.438-9.101C352.621,137.949,352.867,135.879,352.926,135.741z"/>
</svg>
